<svg id="Layer_1" data-name="Layer 1" xmlns="http://www.w3.org/2000/svg" viewBox="0 0 22 19"><defs><style>.cls-1{fill:#322124;}.cls-2{fill:#5b3138;}.cls-3{fill:#bb7547;}.cls-4{fill:#955e3a;}.cls-5{fill:#ffd541;}.cls-6{fill:#fff;}.cls-7{fill:#70482d;}.cls-8{fill:#dab639;}</style></defs><title>common</title><rect class="cls-1" x="20" y="18" width="1" height="1"/><rect class="cls-1" x="19" y="18" width="1" height="1"/><rect class="cls-1" x="18" y="18" width="1" height="1"/><rect class="cls-1" x="17" y="18" width="1" height="1"/><rect class="cls-1" x="16" y="18" width="1" height="1"/><rect class="cls-1" x="15" y="18" width="1" height="1"/><rect class="cls-1" x="14" y="18" width="1" height="1"/><rect class="cls-1" x="13" y="18" width="1" height="1"/><rect class="cls-1" x="12" y="18" width="1" height="1"/><rect class="cls-1" x="11" y="18" width="1" height="1"/><rect class="cls-1" x="10" y="18" width="1" height="1"/><rect class="cls-1" x="9" y="18" width="1" height="1"/><rect class="cls-1" x="8" y="18" width="1" height="1"/><rect class="cls-1" x="7" y="18" width="1" height="1"/><rect class="cls-1" x="6" y="18" width="1" height="1"/><rect class="cls-1" x="5" y="18" width="1" height="1"/><rect class="cls-1" x="4" y="18" width="1" height="1"/><rect class="cls-1" x="3" y="18" width="1" height="1"/><rect class="cls-1" x="2" y="18" width="1" height="1"/><rect class="cls-1" x="1" y="18" width="1" height="1"/><rect class="cls-1" x="21" y="17" width="1" height="1"/><rect class="cls-2" x="20" y="17" width="1" height="1"/><rect class="cls-2" x="19" y="17" width="1" height="1"/><rect class="cls-2" x="18" y="17" width="1" height="1"/><rect class="cls-2" x="17" y="17" width="1" height="1"/><rect class="cls-2" x="16" y="17" width="1" height="1"/><rect class="cls-2" x="15" y="17" width="1" height="1"/><rect class="cls-2" x="14" y="17" width="1" height="1"/><rect class="cls-2" x="13" y="17" width="1" height="1"/><rect class="cls-2" x="12" y="17" width="1" height="1"/><rect class="cls-2" x="11" y="17" width="1" height="1"/><rect class="cls-2" x="10" y="17" width="1" height="1"/><rect class="cls-2" x="9" y="17" width="1" height="1"/><rect class="cls-2" x="8" y="17" width="1" height="1"/><rect class="cls-2" x="7" y="17" width="1" height="1"/><rect class="cls-2" x="6" y="17" width="1" height="1"/><rect class="cls-2" x="5" y="17" width="1" height="1"/><rect class="cls-2" x="4" y="17" width="1" height="1"/><rect class="cls-2" x="3" y="17" width="1" height="1"/><rect class="cls-2" x="2" y="17" width="1" height="1"/><rect class="cls-2" x="1" y="17" width="1" height="1"/><rect class="cls-1" y="17" width="1" height="1"/><rect class="cls-1" x="21" y="16" width="1" height="1"/><rect class="cls-2" x="20" y="16" width="1" height="1"/><rect class="cls-3" x="19" y="16" width="1" height="1"/><rect class="cls-3" x="18" y="16" width="1" height="1"/><rect class="cls-3" x="17" y="16" width="1" height="1"/><rect class="cls-3" x="16" y="16" width="1" height="1"/><rect class="cls-3" x="15" y="16" width="1" height="1"/><rect class="cls-3" x="14" y="16" width="1" height="1"/><rect class="cls-3" x="13" y="16" width="1" height="1"/><rect class="cls-4" x="12" y="16" width="1" height="1"/><rect class="cls-4" x="11" y="16" width="1" height="1"/><rect class="cls-4" x="10" y="16" width="1" height="1"/><rect class="cls-4" x="9" y="16" width="1" height="1"/><rect class="cls-4" x="8" y="16" width="1" height="1"/><rect class="cls-3" x="7" y="16" width="1" height="1"/><rect class="cls-3" x="6" y="16" width="1" height="1"/><rect class="cls-3" x="5" y="16" width="1" height="1"/><rect class="cls-3" x="4" y="16" width="1" height="1"/><rect class="cls-3" x="3" y="16" width="1" height="1"/><rect class="cls-3" x="2" y="16" width="1" height="1"/><rect class="cls-2" x="1" y="16" width="1" height="1"/><rect class="cls-1" y="16" width="1" height="1"/><rect class="cls-1" x="21" y="15" width="1" height="1"/><rect class="cls-2" x="20" y="15" width="1" height="1"/><rect class="cls-3" x="19" y="15" width="1" height="1"/><rect class="cls-3" x="18" y="15" width="1" height="1"/><rect class="cls-4" x="17" y="15" width="1" height="1"/><rect class="cls-3" x="16" y="15" width="1" height="1"/><rect class="cls-3" x="15" y="15" width="1" height="1"/><rect class="cls-3" x="14" y="15" width="1" height="1"/><rect class="cls-3" x="13" y="15" width="1" height="1"/><rect class="cls-3" x="12" y="15" width="1" height="1"/><rect class="cls-3" x="11" y="15" width="1" height="1"/><rect class="cls-3" x="10" y="15" width="1" height="1"/><rect class="cls-3" x="9" y="15" width="1" height="1"/><rect class="cls-3" x="8" y="15" width="1" height="1"/><rect class="cls-3" x="7" y="15" width="1" height="1"/><rect class="cls-3" x="6" y="15" width="1" height="1"/><rect class="cls-3" x="5" y="15" width="1" height="1"/><rect class="cls-3" x="4" y="15" width="1" height="1"/><rect class="cls-3" x="3" y="15" width="1" height="1"/><rect class="cls-3" x="2" y="15" width="1" height="1"/><rect class="cls-2" x="1" y="15" width="1" height="1"/><rect class="cls-1" y="15" width="1" height="1"/><rect class="cls-1" x="21" y="14" width="1" height="1"/><rect class="cls-2" x="20" y="14" width="1" height="1"/><rect class="cls-3" x="19" y="14" width="1" height="1"/><rect class="cls-3" x="18" y="14" width="1" height="1"/><rect class="cls-3" x="17" y="14" width="1" height="1"/><rect class="cls-4" x="16" y="14" width="1" height="1"/><rect class="cls-4" x="15" y="14" width="1" height="1"/><rect class="cls-3" x="14" y="14" width="1" height="1"/><rect class="cls-4" x="13" y="14" width="1" height="1"/><rect class="cls-3" x="12" y="14" width="1" height="1"/><rect class="cls-3" x="11" y="14" width="1" height="1"/><rect class="cls-3" x="10" y="14" width="1" height="1"/><rect class="cls-3" x="9" y="14" width="1" height="1"/><rect class="cls-3" x="8" y="14" width="1" height="1"/><rect class="cls-3" x="7" y="14" width="1" height="1"/><rect class="cls-3" x="6" y="14" width="1" height="1"/><rect class="cls-4" x="5" y="14" width="1" height="1"/><rect class="cls-3" x="4" y="14" width="1" height="1"/><rect class="cls-3" x="3" y="14" width="1" height="1"/><rect class="cls-3" x="2" y="14" width="1" height="1"/><rect class="cls-2" x="1" y="14" width="1" height="1"/><rect class="cls-1" y="14" width="1" height="1"/><rect class="cls-1" x="21" y="13" width="1" height="1"/><rect class="cls-2" x="20" y="13" width="1" height="1"/><rect class="cls-3" x="19" y="13" width="1" height="1"/><rect class="cls-3" x="18" y="13" width="1" height="1"/><rect class="cls-3" x="17" y="13" width="1" height="1"/><rect class="cls-3" x="16" y="13" width="1" height="1"/><rect class="cls-3" x="15" y="13" width="1" height="1"/><rect class="cls-3" x="14" y="13" width="1" height="1"/><rect class="cls-3" x="13" y="13" width="1" height="1"/><rect class="cls-3" x="12" y="13" width="1" height="1"/><rect class="cls-1" x="11" y="13" width="1" height="1"/><rect class="cls-1" x="10" y="13" width="1" height="1"/><rect class="cls-4" x="9" y="13" width="1" height="1"/><rect class="cls-4" x="8" y="13" width="1" height="1"/><rect class="cls-4" x="7" y="13" width="1" height="1"/><rect class="cls-4" x="6" y="13" width="1" height="1"/><rect class="cls-3" x="5" y="13" width="1" height="1"/><rect class="cls-3" x="4" y="13" width="1" height="1"/><rect class="cls-3" x="3" y="13" width="1" height="1"/><rect class="cls-3" x="2" y="13" width="1" height="1"/><rect class="cls-2" x="1" y="13" width="1" height="1"/><rect class="cls-1" y="13" width="1" height="1"/><rect class="cls-1" x="21" y="12" width="1" height="1"/><rect class="cls-2" x="20" y="12" width="1" height="1"/><rect class="cls-3" x="19" y="12" width="1" height="1"/><rect class="cls-4" x="18" y="12" width="1" height="1"/><rect class="cls-4" x="17" y="12" width="1" height="1"/><rect class="cls-4" x="16" y="12" width="1" height="1"/><rect class="cls-4" x="15" y="12" width="1" height="1"/><rect class="cls-4" x="14" y="12" width="1" height="1"/><rect class="cls-4" x="13" y="12" width="1" height="1"/><rect class="cls-1" x="12" y="12" width="1" height="1"/><rect class="cls-5" x="11" y="12" width="1" height="1"/><rect class="cls-5" x="10" y="12" width="1" height="1"/><rect class="cls-1" x="9" y="12" width="1" height="1"/><rect class="cls-3" x="8" y="12" width="1" height="1"/><rect class="cls-3" x="7" y="12" width="1" height="1"/><rect class="cls-3" x="6" y="12" width="1" height="1"/><rect class="cls-3" x="5" y="12" width="1" height="1"/><rect class="cls-3" x="4" y="12" width="1" height="1"/><rect class="cls-3" x="3" y="12" width="1" height="1"/><rect class="cls-3" x="2" y="12" width="1" height="1"/><rect class="cls-2" x="1" y="12" width="1" height="1"/><rect class="cls-1" y="12" width="1" height="1"/><rect class="cls-1" x="21" y="11" width="1" height="1"/><rect class="cls-2" x="20" y="11" width="1" height="1"/><rect class="cls-3" x="19" y="11" width="1" height="1"/><rect class="cls-3" x="18" y="11" width="1" height="1"/><rect class="cls-3" x="17" y="11" width="1" height="1"/><rect class="cls-3" x="16" y="11" width="1" height="1"/><rect class="cls-3" x="15" y="11" width="1" height="1"/><rect class="cls-3" x="14" y="11" width="1" height="1"/><rect class="cls-3" x="13" y="11" width="1" height="1"/><rect class="cls-1" x="12" y="11" width="1" height="1"/><rect class="cls-5" x="11" y="11" width="1" height="1"/><rect class="cls-6" x="10" y="11" width="1" height="1"/><rect class="cls-1" x="9" y="11" width="1" height="1"/><rect class="cls-3" x="8" y="11" width="1" height="1"/><rect class="cls-3" x="7" y="11" width="1" height="1"/><rect class="cls-3" x="6" y="11" width="1" height="1"/><rect class="cls-3" x="5" y="11" width="1" height="1"/><rect class="cls-4" x="4" y="11" width="1" height="1"/><rect class="cls-4" x="3" y="11" width="1" height="1"/><rect class="cls-3" x="2" y="11" width="1" height="1"/><rect class="cls-2" x="1" y="11" width="1" height="1"/><rect class="cls-1" y="11" width="1" height="1"/><rect class="cls-1" x="21" y="10" width="1" height="1"/><rect class="cls-2" x="20" y="10" width="1" height="1"/><rect class="cls-2" x="19" y="10" width="1" height="1"/><rect class="cls-2" x="18" y="10" width="1" height="1"/><rect class="cls-2" x="17" y="10" width="1" height="1"/><rect class="cls-2" x="16" y="10" width="1" height="1"/><rect class="cls-2" x="15" y="10" width="1" height="1"/><rect class="cls-2" x="14" y="10" width="1" height="1"/><rect class="cls-1" x="13" y="10" width="1" height="1"/><rect class="cls-5" x="12" y="10" width="1" height="1"/><rect x="11" y="10" width="1" height="1"/><rect x="10" y="10" width="1" height="1"/><rect class="cls-5" x="9" y="10" width="1" height="1"/><rect class="cls-1" x="8" y="10" width="1" height="1"/><rect class="cls-2" x="7" y="10" width="1" height="1"/><rect class="cls-2" x="6" y="10" width="1" height="1"/><rect class="cls-2" x="5" y="10" width="1" height="1"/><rect class="cls-2" x="4" y="10" width="1" height="1"/><rect class="cls-2" x="3" y="10" width="1" height="1"/><rect class="cls-2" x="2" y="10" width="1" height="1"/><rect class="cls-2" x="1" y="10" width="1" height="1"/><rect class="cls-1" y="10" width="1" height="1"/><rect class="cls-1" x="21" y="9" width="1" height="1"/><rect class="cls-1" x="20" y="9" width="1" height="1"/><rect class="cls-1" x="19" y="9" width="1" height="1"/><rect class="cls-1" x="18" y="9" width="1" height="1"/><rect class="cls-1" x="17" y="9" width="1" height="1"/><rect class="cls-1" x="16" y="9" width="1" height="1"/><rect class="cls-1" x="15" y="9" width="1" height="1"/><rect class="cls-1" x="14" y="9" width="1" height="1"/><rect class="cls-1" x="13" y="9" width="1" height="1"/><rect class="cls-1" x="12" y="9" width="1" height="1"/><rect class="cls-5" x="11" y="9" width="1" height="1"/><rect class="cls-5" x="10" y="9" width="1" height="1"/><rect class="cls-1" x="9" y="9" width="1" height="1"/><rect class="cls-1" x="8" y="9" width="1" height="1"/><rect class="cls-1" x="7" y="9" width="1" height="1"/><rect class="cls-1" x="6" y="9" width="1" height="1"/><rect class="cls-1" x="5" y="9" width="1" height="1"/><rect class="cls-1" x="4" y="9" width="1" height="1"/><rect class="cls-1" x="3" y="9" width="1" height="1"/><rect class="cls-1" x="2" y="9" width="1" height="1"/><rect class="cls-1" x="1" y="9" width="1" height="1"/><rect class="cls-1" y="9" width="1" height="1"/><rect class="cls-1" x="20" y="8" width="1" height="1"/><rect class="cls-3" x="19" y="8" width="1" height="1"/><rect class="cls-7" x="18" y="8" width="1" height="1"/><rect class="cls-7" x="17" y="8" width="1" height="1"/><rect class="cls-7" x="16" y="8" width="1" height="1"/><rect class="cls-7" x="15" y="8" width="1" height="1"/><rect class="cls-7" x="14" y="8" width="1" height="1"/><rect class="cls-7" x="13" y="8" width="1" height="1"/><rect class="cls-7" x="12" y="8" width="1" height="1"/><rect class="cls-7" x="11" y="8" width="1" height="1"/><rect class="cls-7" x="10" y="8" width="1" height="1"/><rect class="cls-7" x="9" y="8" width="1" height="1"/><rect class="cls-7" x="8" y="8" width="1" height="1"/><rect class="cls-7" x="7" y="8" width="1" height="1"/><rect class="cls-7" x="6" y="8" width="1" height="1"/><rect class="cls-7" x="5" y="8" width="1" height="1"/><rect class="cls-7" x="4" y="8" width="1" height="1"/><rect class="cls-7" x="3" y="8" width="1" height="1"/><rect class="cls-3" x="2" y="8" width="1" height="1"/><rect class="cls-1" x="1" y="8" width="1" height="1"/><rect class="cls-1" x="20" y="7" width="1" height="1"/><rect class="cls-3" x="19" y="7" width="1" height="1"/><rect class="cls-7" x="18" y="7" width="1" height="1"/><rect class="cls-7" x="17" y="7" width="1" height="1"/><rect class="cls-7" x="16" y="7" width="1" height="1"/><rect class="cls-7" x="15" y="7" width="1" height="1"/><rect class="cls-7" x="14" y="7" width="1" height="1"/><rect class="cls-7" x="13" y="7" width="1" height="1"/><rect class="cls-7" x="12" y="7" width="1" height="1"/><rect class="cls-7" x="11" y="7" width="1" height="1"/><rect class="cls-7" x="10" y="7" width="1" height="1"/><rect class="cls-7" x="9" y="7" width="1" height="1"/><rect class="cls-7" x="8" y="7" width="1" height="1"/><rect class="cls-7" x="7" y="7" width="1" height="1"/><rect class="cls-7" x="6" y="7" width="1" height="1"/><rect class="cls-7" x="5" y="7" width="1" height="1"/><rect class="cls-7" x="4" y="7" width="1" height="1"/><rect class="cls-7" x="3" y="7" width="1" height="1"/><rect class="cls-3" x="2" y="7" width="1" height="1"/><rect class="cls-1" x="1" y="7" width="1" height="1"/><rect class="cls-1" x="20" y="6" width="1" height="1"/><rect class="cls-3" x="19" y="6" width="1" height="1"/><rect class="cls-3" x="18" y="6" width="1" height="1"/><rect class="cls-7" x="17" y="6" width="1" height="1"/><rect class="cls-7" x="16" y="6" width="1" height="1"/><rect class="cls-7" x="15" y="6" width="1" height="1"/><rect class="cls-7" x="14" y="6" width="1" height="1"/><rect class="cls-7" x="13" y="6" width="1" height="1"/><rect class="cls-7" x="12" y="6" width="1" height="1"/><rect class="cls-7" x="11" y="6" width="1" height="1"/><rect class="cls-7" x="10" y="6" width="1" height="1"/><rect class="cls-7" x="9" y="6" width="1" height="1"/><rect class="cls-7" x="8" y="6" width="1" height="1"/><rect class="cls-7" x="7" y="6" width="1" height="1"/><rect class="cls-7" x="6" y="6" width="1" height="1"/><rect class="cls-7" x="5" y="6" width="1" height="1"/><rect class="cls-7" x="4" y="6" width="1" height="1"/><rect class="cls-3" x="3" y="6" width="1" height="1"/><rect class="cls-3" x="2" y="6" width="1" height="1"/><rect class="cls-1" x="1" y="6" width="1" height="1"/><rect class="cls-1" x="19" y="5" width="1" height="1"/><rect class="cls-3" x="18" y="5" width="1" height="1"/><rect class="cls-3" x="17" y="5" width="1" height="1"/><rect class="cls-7" x="16" y="5" width="1" height="1"/><rect class="cls-7" x="15" y="5" width="1" height="1"/><rect class="cls-7" x="14" y="5" width="1" height="1"/><rect class="cls-7" x="13" y="5" width="1" height="1"/><rect class="cls-7" x="12" y="5" width="1" height="1"/><rect class="cls-7" x="11" y="5" width="1" height="1"/><rect class="cls-7" x="10" y="5" width="1" height="1"/><rect class="cls-7" x="9" y="5" width="1" height="1"/><rect class="cls-7" x="8" y="5" width="1" height="1"/><rect class="cls-7" x="7" y="5" width="1" height="1"/><rect class="cls-7" x="6" y="5" width="1" height="1"/><rect class="cls-7" x="5" y="5" width="1" height="1"/><rect class="cls-3" x="4" y="5" width="1" height="1"/><rect class="cls-3" x="3" y="5" width="1" height="1"/><rect class="cls-1" x="2" y="5" width="1" height="1"/><rect class="cls-1" x="18" y="4" width="1" height="1"/><rect class="cls-3" x="17" y="4" width="1" height="1"/><rect class="cls-3" x="16" y="4" width="1" height="1"/><rect class="cls-7" x="15" y="4" width="1" height="1"/><rect class="cls-7" x="14" y="4" width="1" height="1"/><rect class="cls-7" x="13" y="4" width="1" height="1"/><rect class="cls-7" x="12" y="4" width="1" height="1"/><rect class="cls-7" x="11" y="4" width="1" height="1"/><rect class="cls-7" x="10" y="4" width="1" height="1"/><rect class="cls-7" x="9" y="4" width="1" height="1"/><rect class="cls-7" x="8" y="4" width="1" height="1"/><rect class="cls-7" x="7" y="4" width="1" height="1"/><rect class="cls-7" x="6" y="4" width="1" height="1"/><rect class="cls-3" x="5" y="4" width="1" height="1"/><rect class="cls-3" x="4" y="4" width="1" height="1"/><rect class="cls-1" x="3" y="4" width="1" height="1"/><rect class="cls-1" x="17" y="3" width="1" height="1"/><rect class="cls-3" x="16" y="3" width="1" height="1"/><rect class="cls-3" x="15" y="3" width="1" height="1"/><rect class="cls-3" x="14" y="3" width="1" height="1"/><rect class="cls-3" x="13" y="3" width="1" height="1"/><rect class="cls-3" x="12" y="3" width="1" height="1"/><rect class="cls-3" x="11" y="3" width="1" height="1"/><rect class="cls-3" x="10" y="3" width="1" height="1"/><rect class="cls-3" x="9" y="3" width="1" height="1"/><rect class="cls-3" x="8" y="3" width="1" height="1"/><rect class="cls-3" x="7" y="3" width="1" height="1"/><rect class="cls-3" x="6" y="3" width="1" height="1"/><rect class="cls-3" x="5" y="3" width="1" height="1"/><rect class="cls-1" x="4" y="3" width="1" height="1"/><rect class="cls-1" x="16" y="2" width="1" height="1"/><rect class="cls-1" x="15" y="2" width="1" height="1"/><rect class="cls-1" x="14" y="2" width="1" height="1"/><rect class="cls-1" x="13" y="2" width="1" height="1"/><rect class="cls-1" x="12" y="2" width="1" height="1"/><rect class="cls-1" x="11" y="2" width="1" height="1"/><rect class="cls-1" x="10" y="2" width="1" height="1"/><rect class="cls-1" x="9" y="2" width="1" height="1"/><rect class="cls-1" x="8" y="2" width="1" height="1"/><rect class="cls-1" x="7" y="2" width="1" height="1"/><rect class="cls-1" x="6" y="2" width="1" height="1"/><rect class="cls-1" x="5" y="2" width="1" height="1"/><rect class="cls-1" x="12" y="1" width="1" height="1"/><rect class="cls-8" x="11" y="1" width="1" height="1"/><rect class="cls-8" x="10" y="1" width="1" height="1"/><rect class="cls-1" x="9" y="1" width="1" height="1"/><rect class="cls-1" x="11" width="1" height="1"/><rect class="cls-1" x="10" width="1" height="1"/></svg>