<svg data-name="Layer 1" xmlns="http://www.w3.org/2000/svg" viewBox="0 0 1331.07 2135.04"><path d="M858.09 0c7 3.78 14.85 2.61 22.25 3.44Q1029.28 20.11 1145 115.12c62.49 51.11 109.5 114.1 142 188 1.15 2.6 2.87 5 2.68 8.09-16.36-.41-32.08-4.83-48-7.78q-78.9-14.58-157.74-29.46c-51.3-9.77-102.5-20.05-153.8-29.78-46.61-8.84-93.32-17.18-140-25.88q-70.42-13.14-140.8-26.58-94.32-18-188.6-36.05c-2.14-.41-5 .3-6-2.07-1.38-3.12 1.84-4.44 3.5-6.05a537.82 537.82 0 0173.06-60.09A502.77 502.77 0 01683 17.82a536.66 536.66 0 0172.18-14c3.38-.42 7 1.07 10.17-1.1C762 1.22 758.46 2 755 2q-145.85 0-291.71.16L462.57 0zm326.68 1923.48c14.15 25.35 22.25 52.8 28 81q12.35 60.51 24.66 121c.64 3.14 1.3 6.25.8 9.48H90.09l-.78-.53.1-1c4.48-.13 9-.36 13.42-.37q165.11 0 330.19.06a73.35 73.35 0 0019.88-2.39q29.5-8.22 59-16.5L692.67 2064q80.22-22.33 160.46-44.71 85.76-23.88 171.53-47.73 76.54-21.31 153.08-42.67c2.95-.78 6.5-1.26 7.03-5.41z" fill="#90b59d"/><path d="M463.29 2.17Q609.15 2.07 755 2c3.46 0 7-.79 10.39.74-3.19 2.17-6.79.68-10.17 1.1a536.66 536.66 0 00-72.18 14 502.77 502.77 0 00-151.72 69.6 537.82 537.82 0 00-73.06 60.09c-1.66 1.61-4.88 2.93-3.5 6.05 1.05 2.37 3.87 1.66 6 2.07q94.31 18 188.6 36.05 70.38 13.4 140.8 26.58c46.64 8.7 93.35 17 140 25.88 51.3 9.73 102.5 20 153.8 29.78q78.81 15 157.74 29.46c15.95 2.95 31.67 7.37 48 7.78a321.68 321.68 0 0123.64 70.91 53.79 53.79 0 01-7.64-.38q-97.18-18.19-194.33-36.53-75.55-14.28-151.1-28.68-107-20.28-214-40.52Q666 260.75 585.8 245.43c-58.18-11.05-116.38-22-174.51-33.29-5-1-7.8 0-10.36 4-4.82 7.52-9.95 14.83-14.75 22.36a471.59 471.59 0 00-44 89.19 499.85 499.85 0 00-30.4 138.71c-.33 4.53 1 5.84 4.93 5.83h997.97c4.15 0 8.31-.17 12.46-.26 2.69 21.16 1.45 42.4 1.22 63.62-4.8 0-9.6.12-14.4.12H415.62c-2.88 0-5.76-.06-8.64 0-1.49.05-3.78-.47-4.08 1.4-.47 2.93 2.46 2.15 4 2.62 24.71 7.48 49.49 14.78 74.18 22.35 53.37 16.36 106.61 33.18 160.08 49.21q66 19.77 131.83 40c42.36 13 84.86 25.62 127.21 38.7 52.71 16.29 105.65 31.84 158.46 47.79q53.1 16 106.14 32.31c41.47 12.68 82.87 25.62 124.43 38 12.78 3.81 25.27 9 38.82 9.9a13 13 0 013 8.79c-.09 19.73 0 39.47 0 59.2 0 2.54.16 5.15-2.17 7Q1273.48 876 1218.12 859c-42.7-13-85.39-26.09-128.18-38.79-45-13.34-89.77-27.13-134.6-40.84q-62.25-19-124.56-37.8-97.62-29.32-195-59.27c-44.19-13.62-88.52-26.8-132.71-40.43-60.69-18.72-121.68-36.47-182.54-54.62-8.62-2.57-9.6-2-9.61 6.77q-.08 109.41-.11 218.84c0 5.55.91 8.55 7.47 9.46 24.59 3.41 49.08 7.54 73.59 11.46 30.8 4.94 61.57 10 92.37 14.9 33.95 5.39 67.94 10.55 101.88 16 34.58 5.49 69.12 11.2 103.69 16.7 34 5.4 67.93 10.59 101.88 16q45.74 7.26 91.43 14.75c27 4.41 54 8.93 81 13.4-7.59 11.81-14.51 23.84-18.6 37.51-2.74 9.19-3.87 18.69-6.63 27.82-34.62-5.27-69.26-10.35-103.84-15.86-62.24-9.93-124.42-20.22-186.66-30.14-54.08-8.62-108.21-16.84-162.29-25.44-54.42-8.76-108.76-17.68-163.1-26.42-12.41-2-12.42-1.91-11.93 11 0 .32.06.63.09.95-20.8 8.36-34.31 24-42.59 44.19-16.31 39.75-16.5 80.25-2.35 120.47 7.34 20.88 19.55 38.75 40.9 48.32 4.42 2.62 3.71 6.94 3.76 11.08.5 36.4-2.13 72.92 2.24 109.17a482.68 482.68 0 0028.84 115.64c6.13 16 6.09 15.74 23 12.3 11.21-2.29 22.7-6.09 33.8-5.34 22.81 1.53 45.45 5.61 68.14 8.75 30.88 4.26 61.74 8.68 92.63 12.91 25.53 3.5 51.1 6.73 76.62 10.25 30.26 4.17 60.47 8.6 90.72 12.79 25.53 3.53 51.09 6.78 76.62 10.33 29.62 4.13 59.19 8.56 88.82 12.64 25.84 3.55 51.74 6.7 77.6 10.2 31.2 4.22 62.39 8.62 93.58 13 26.14 3.64 52.28 7.37 78.43 11 20.17 2.8 40.47 4.88 60.49 8.49 8.18 1.48 17.55-1.18 24.57 5.61a371.2 371.2 0 01-50.31 55.46c-22.28-1.31-44.12-6-66.27-8.51-21.18-2.36-42.23-5.82-63.36-8.71-25.54-3.49-51.1-6.81-76.64-10.34-29.94-4.15-59.85-8.54-89.8-12.66-25.54-3.52-51.12-6.72-76.66-10.2-21.44-2.92-42.84-6.11-64.27-9-20.82-2.84-41.67-5.39-62.48-8.26-30.58-4.21-61.13-8.6-91.7-12.89-21.42-3-42.86-5.93-64.28-9-19.23-2.71-38.43-5.62-57.67-8.21-25.86-3.48-51.76-6.73-77.64-10.09-2.65-.34-5.94-3.24-7.75-.12-1.46 2.51 1.37 5.35 2.88 7.7a646.78 646.78 0 0041.21 57.55c23.64 29.3 51.05 54.52 80.8 77.15A480.47 480.47 0 00623.39 1633c40.85 15.58 83.08 25 126.35 29.38a547.38 547.38 0 0073.7 2.26q-.12 36.87-.26 73.75c0 3.5-.32 7-.49 10.5l-157.38.21c-16.31 0-32.63.08-48.94 0-4.78 0-7.76.8-7.94 6.7-.82 27.84 2.86 54.89 14.82 80.21 17.61 37.3 45.48 64.24 83.56 80.5 2.07.89 6.08.66 5.69 3.81-.32 2.61-4.06 2.71-6.37 3.18-19.34 4-38.44 7.13-58.65 4.65-37-4.51-69.14-18.53-95.24-44.61-31.6-31.57-48.36-70-47.52-115.3q0-46.54-.07-93.1c0-10.4 0-10.57-10.44-10.41-81.82 1.23-159.8-15.29-232.16-53.68q-198.6-105.38-251.67-324.57C3.12 1256.37 0 1225.61 0 1194.39c.31-239-.1-478 .37-717 .11-56.65 13.19-111.3 35.64-163Q147.68 57.11 424.23 6.48a267.49 267.49 0 0139.06-4.31z" fill="#6e9e7f"/><path d="M504.72 1768.2c-.84 45.31 15.92 83.73 47.52 115.3 26.1 26.08 58.29 40.1 95.24 44.61 20.21 2.48 39.31-.67 58.65-4.65 2.31-.47 6-.57 6.37-3.18.39-3.15-3.62-2.92-5.69-3.81-38.08-16.26-65.95-43.2-83.56-80.5-12-25.32-15.64-52.37-14.82-80.21.18-5.9 3.16-6.73 7.94-6.7 16.31.12 32.63.06 48.94 0l157.38-.21c.19 4.77.65 9.55.5 14.32-.16 4.92 1.76 6.84 6.71 6.76 11.49-.2 23-.07 34.48 0 27.14 0 54.32-.74 81.42.3 63 2.42 118.78 24.68 167.6 64.4 12.88 10.47 25.27 21.52 35 35.14-15.68 4.35-31.36 8.66-47 13q-103.7 29-207.38 58c-66.39 18.47-132.87 36.61-199.24 55.11-66.69 18.6-133.27 37.59-199.95 56.19-50.39 14.06-100.9 27.7-151.31 41.71-17.89 5-17.68 5.23-15.15-13.45 4.49-33.09 8.49-66.25 13.19-99.31 7.71-54.24 25.53-104.75 57.82-149.41 15.48-21.42 34.21-39.46 58.76-50.85 9-4.18 18.63-6.39 27.53-10.64 6.25-1.53 12.99 1.48 19.05-1.92z" fill="#90b59d"/><path d="M485.67 1770.2c-8.9 4.25-18.53 6.46-27.53 10.64-24.55 11.39-43.28 29.43-58.76 50.85-32.29 44.66-50.11 95.17-57.82 149.41-4.7 33.06-8.7 66.22-13.19 99.31-2.53 18.68-2.74 18.42 15.15 13.45 50.41-14 100.92-27.65 151.31-41.71 66.68-18.6 133.26-37.59 200-56.19 66.37-18.5 132.85-36.64 199.24-55.11q103.72-28.86 207.38-58c15.67-4.38 31.35-8.69 47-13 15 16 26.78 34.09 36.34 53.72-.53 4.15-4.08 4.63-7 5.45q-76.53 21.4-153.08 42.67-85.77 23.87-171.53 47.73-80.28 22.26-160.51 44.58l-180.77 50.36q-29.5 8.22-59 16.5a73.35 73.35 0 01-19.88 2.39q-165.09-.15-330.19-.06c-4.47 0-8.94.24-13.42.37 2.32-21.31 7.84-42 12.07-63 6.13-30.37 11.44-60.94 19.25-90.94 28.6-109.76 124.94-193.82 237.51-207.76a262 262 0 0132.5-2c31.64.03 63.26.22 94.93.34z" fill="#6e9e7f"/><path d="M1226.91 1476.66c-7-6.79-16.39-4.13-24.57-5.61-20-3.61-40.32-5.69-60.49-8.49-26.15-3.62-52.29-7.35-78.43-11-31.19-4.35-62.38-8.75-93.58-13-25.86-3.5-51.76-6.65-77.6-10.2-29.63-4.08-59.2-8.51-88.82-12.64-25.53-3.55-51.09-6.8-76.62-10.33-30.25-4.19-60.46-8.62-90.72-12.79-25.52-3.52-51.09-6.75-76.62-10.25-30.89-4.23-61.75-8.65-92.63-12.91-22.69-3.14-45.33-7.22-68.14-8.75-11.1-.75-22.59 3-33.8 5.34-16.87 3.44-16.83 3.65-23-12.3a482.68 482.68 0 01-28.84-115.64c-4.37-36.25-1.74-72.77-2.24-109.17-.05-4.14.66-8.46-3.76-11.08 23.27 5.5 42.05-1.65 56.56-20.36a101.53 101.53 0 0017.13-31.88c12.24-39 12.48-78.05-3.61-115.83-13.11-30.8-33.39-50-66-44.91 0-.32-.08-.63-.09-.95-.49-12.89-.48-13 11.93-11 54.37 8.77 108.71 17.69 163.09 26.35 54.08 8.6 108.21 16.82 162.29 25.44 62.24 9.98 124.42 20.3 186.65 30.2 34.58 5.51 69.22 10.59 103.84 15.86 0 16.58-1.24 33.17 1.67 49.69 4.61 26.09 13.85 49.56 34.11 67.93 16.67 15.12 44.83 14.92 61.2-.55a95.6 95.6 0 0018.82-24c12.19-22.49 16.7-46.7 17-71.95 30.72 5.06 61.42 10.22 92.15 15.17 35.44 5.71 70.87 11.52 106.38 16.71 19.49 2.84 38.76 7.15 58.47 8.47q-.25 65.67.16 131.35c.29 43.58-6.22 86.46-18.18 128.44-17 59.71-44.69 114.06-82.19 163.47a7.51 7.51 0 01-1.52 1.17zM663.44 1155.9c18.86 0 37.79-1 56.56.31 14.45 1 30.82-11.59 32.42-27.76 1.64-16.68-9.37-30.69-26.19-34.51-7.67-1.74-15.23-1.37-22.85-1.4-31.64-.12-63.29-.23-94.93 0-19.94.16-32.87 13.68-32.65 33.29.22 18.76 12.19 30 32 30 18.57.1 37.11.07 55.64.07zM1327.11 472c-4.15.09-8.31.26-12.46.26H316.68c-4 0-5.26-1.3-4.93-5.83a499.85 499.85 0 0130.4-138.71 471.59 471.59 0 0144-89.19c4.8-7.53 9.93-14.84 14.75-22.36 2.56-4 5.34-5 10.36-4 58.13 11.31 116.33 22.24 174.51 33.29q80.28 15.23 160.5 30.54 107 20.3 214 40.52 75.56 14.31 151.1 28.68 97.16 18.34 194.33 36.53a53.79 53.79 0 007.64.38 372.9 372.9 0 0113.77 89.89zM964.08 925.43c-27-4.47-54-9-81-13.4q-45.71-7.46-91.43-14.75c-33.95-5.39-67.93-10.58-101.88-16-34.57-5.5-69.11-11.21-103.69-16.7-33.94-5.4-67.93-10.56-101.88-16-30.8-4.88-61.57-10-92.37-14.9-24.51-3.92-49-8-73.59-11.46-6.56-.91-7.48-3.91-7.47-9.46q.18-109.43.11-218.84c0-8.76 1-9.34 9.61-6.77 60.86 18.15 121.85 35.9 182.54 54.62 44.19 13.63 88.52 26.81 132.71 40.43q97.41 30 195 59.27 62.33 18.74 124.56 37.8c44.83 13.71 89.64 27.5 134.6 40.84 42.79 12.7 85.48 25.76 128.18 38.79q55.39 16.9 110.71 34.07 0 44.87.07 89.75c-10.06-1.42-20.14-2.69-30.17-4.29-34.21-5.46-68.39-11.07-102.59-16.56-31.68-5.09-63.35-10.28-95.08-15.09-15.07-2.28-30-5.92-45.32-6.19-5.77-8.74-11.6-17.4-19.59-24.37-15.54-13.53-34.6-15.69-53.05-6.47-7.6 3.89-12.58 10.56-18.98 15.68zm363.98-107.37c-13.55-.89-26-6.09-38.82-9.9-41.56-12.39-83-25.33-124.43-38q-53.05-16.21-106.14-32.31c-52.81-16-105.75-31.5-158.46-47.79C857.86 677 815.36 664.37 773 651.35q-65.85-20.25-131.83-40c-53.47-16-106.71-32.85-160.08-49.21-24.69-7.57-49.47-14.87-74.18-22.35-1.55-.47-4.48.31-4-2.62.3-1.87 2.59-1.35 4.08-1.4 2.88-.11 5.76 0 8.64 0h898.31c4.8 0 9.6-.08 14.4-.12.1 16.6.29 33.19.3 49.78v221.22c-.02 3.78-.39 7.59-.58 11.41zm-504.62 846.58a547.38 547.38 0 01-73.7-2.26c-43.27-4.42-85.5-13.8-126.35-29.38A480.47 480.47 0 01503 1566.54c-29.75-22.63-57.16-47.85-80.8-77.15a646.78 646.78 0 01-41.2-57.55c-1.51-2.35-4.34-5.19-2.88-7.7 1.81-3.12 5.1-.22 7.75.12 25.88 3.36 51.78 6.61 77.64 10.09 19.24 2.59 38.44 5.5 57.67 8.21 21.42 3 42.86 5.94 64.28 9 30.57 4.29 61.12 8.68 91.7 12.89 20.81 2.87 41.66 5.42 62.48 8.26 21.43 2.93 42.83 6.12 64.27 9 25.54 3.48 51.12 6.68 76.66 10.2 30 4.12 59.86 8.51 89.8 12.66 25.54 3.53 51.1 6.85 76.64 10.34 21.13 2.89 42.18 6.35 63.36 8.71 22.15 2.46 44 7.2 66.27 8.51-40.39 39.18-86.87 69.27-138.21 91.94-68.51 30.23-140.43 42.55-214.99 40.57z" fill="#90b59d"/><path d="M1055.74 940.66c15.35.27 30.25 3.91 45.32 6.19 31.73 4.81 63.4 10 95.08 15.09 34.2 5.49 68.38 11.1 102.59 16.56 10 1.6 20.11 2.87 30.17 4.29a6.56 6.56 0 012 5.14c0 20.33.62 40.67-.79 61-.08 1.14-1 2.22-1.55 3.33-19.71-1.32-39-5.63-58.47-8.47-35.51-5.19-70.94-11-106.38-16.71-30.73-4.95-61.43-10.11-92.15-15.17-.46-7-.68-14-1.43-21-1.84-17.56-7.48-34.1-14.39-50.25z" fill="#6e9e7f"/><path d="M1055.74 940.66c6.91 16.15 12.55 32.69 14.44 50.26.75 7 1 14 1.43 21-.26 25.25-4.77 49.46-17 71.95a95.6 95.6 0 01-18.82 24c-16.37 15.47-44.53 15.67-61.2.55-20.26-18.37-29.5-41.84-34.11-67.93-2.91-16.52-1.69-33.11-1.67-49.69 2.76-9.13 3.89-18.63 6.63-27.82 4.09-13.67 11-25.7 18.6-37.51 6.4-5.12 11.38-11.79 19-15.61 18.45-9.22 37.51-7.06 53.05 6.47 8.05 6.93 13.91 15.59 19.65 24.33zM311.13 904.9c32.65-5.06 52.93 14.11 66 44.91 16.09 37.78 15.85 76.83 3.61 115.83a101.53 101.53 0 01-17.13 31.88c-14.51 18.71-33.29 25.86-56.56 20.36-21.35-9.57-33.56-27.44-40.9-48.32-14.15-40.22-14-80.72 2.35-120.47 8.32-20.17 21.83-35.83 42.63-44.19z" fill="#d5bf29"/><path d="M663.44 1155.9h-55.61c-19.84 0-31.81-11.28-32-30-.22-19.61 12.71-33.13 32.65-33.29 31.64-.25 63.29-.14 94.93 0 7.62 0 15.18-.34 22.85 1.4 16.82 3.82 27.83 17.83 26.19 34.51-1.6 16.17-18 28.74-32.42 27.76-18.8-1.34-37.73-.38-56.59-.38z" fill="#6e9e7f"/></svg>