<svg viewBox="0 0 512 512"
    xmlns="http://www.w3.org/2000/svg">
    <path d="M53.825 110.108c-29.482 0-53.381-23.9-53.381-53.381v69.74c0 29.482 23.9 53.381 53.381 53.381h65.911v-69.74z" fill="#f9ebd7"/>
    <path d="M458.072 110.108H388.58v69.74h69.493c29.482 0 53.381-23.9 53.381-53.381v-69.74c0 29.481-23.9 53.381-53.382 53.381z" fill="#f3d6ae"/>
    <path d="M100.169 359.721c-34.381-1.498-70.6 25.545-84.063 49.725l25.397 15.326S0 456.595 0 512h255.949l37.835-152.279z" fill="#5ebe8e"/>
    <path d="M470.497 424.772l25.397-15.326c-13.463-24.18-49.682-51.224-84.063-49.725H255.949V512H512c0-55.405-41.503-87.228-41.503-87.228z" fill="#2c9b79"/>
    <path d="M179.649 0l-19.69 31.997L143.96 0h-5.021c-23.734 0-42.974 19.24-42.974 42.974v295.103a114.391 114.391 0 0033.504 80.886l5.876 5.876 40.611-49.226s33.227 54.487 79.992 77.869l44.406-217.981L255.949 0z" fill="#9be183"/>
    <path d="M406.305 0a45.912 45.912 0 00-39.099 21.848l-6.245 10.148L344.963 0h-89.014v453.483c46.764-23.382 79.992-77.869 79.992-77.869l40.611 49.226 5.876-5.876a114.391 114.391 0 0033.504-80.886V0z" fill="#5ebe8e"/>
    <path d="M196.549 272.842h30v40.023h-30z" fill="#f2f2fc"/>
    <path d="M285.354 272.842h30v40.023h-30z" fill="#e8e1fd"/>
    <path d="M240.276 196.066h-30c0-6.814-5.543-12.357-12.357-12.357s-12.357 5.543-12.357 12.357h-30c0-23.356 19.001-42.357 42.357-42.357s42.357 19.001 42.357 42.357z" fill="#2b1951"/>
    <path d="M356.439 196.066h-30c0-6.814-5.544-12.357-12.357-12.357s-12.357 5.543-12.357 12.357h-30c0-23.356 19.002-42.357 42.357-42.357s42.357 19.001 42.357 42.357z" fill="#160b33"/>
    <path d="M180.284 257.842v30h75.665l15.776-15-15.776-15z" fill="#5ebe8e"/>
    <path d="M255.949 257.842h75.67v30h-75.67z" fill="#2c9b79"/>
</svg>