<svg data-name="Layer 1"
    xmlns="http://www.w3.org/2000/svg" viewBox="0 0 2134.77 1971.53">
    <path d="M1293.86 1969.71a13.83 13.83 0 000 1.82H178.29a11.79 11.79 0 000-1.88c2.56-.06 5.12-.17 7.67-.17h451.13c3.83 0 7.67-.13 11.51-.2 7.66.07 15.32.2 23 .2h482.05c4.47 0 8.94-.2 13.41-.3 3.81.11 7.62.29 11.43.3h105.86c3.16.01 6.34.15 9.51.23zM2134.77 1418.57a11.82 11.82 0 00-1.78.11c-.09-1.58-.25-3.16-.25-4.74v-56c0-1.58.15-3.16.23-4.74a7.86 7.86 0 001.81.09z" fill="#fcf1b5"/>
    <path d="M648.6 1969.26c-3.84.08-7.68.21-11.51.21H186c-2.55 0-5.11.11-7.67.17-3.34-1.08-6.86-1.78-10-3.31a35.85 35.85 0 01-19.57-23.58 32.78 32.78 0 01-1-6.6c-.2-3.19-.15-6.4-.15-9.59v-132.47c0-2.56 0-5.12.09-7.68.67-13.1 6.69-23.08 17.74-30.08 1.61-1 3.32-1.9 4.94-2.91a1.11 1.11 0 00.33-1.67c-.15-.22-.4-.51-.62-.51-2.56-.09-5.11-.16-7.67-.16H45.32c-3.52 0-7-.09-10.56-.12a31.91 31.91 0 01-17.92-6C6.15 1737.82 1.1 1727.6.09 1715.13c-.13-1.59 0-3.2 0-4.8v-136.31a52.46 52.46 0 011.89-15.16c4-13.34 12.77-21.74 26.2-25.47a45.13 45.13 0 0112.26-1.39h49c2.56 0 5.11-.16 7.66-.29.15 0 .36-.41.39-.65s0-.7-.17-.8c-2.19-1.31-4.48-2.47-6.61-3.88-10-6.59-15.62-15.78-16.29-27.83-.16-2.87-.09-5.75-.09-8.63v-134.39c0-2.56 0-5.12.07-7.68.39-13 7-22.27 17.53-29.11 2.37-1.53 5-2.74 7.23-4 .2-1.3-.16-1.47-1-1.47H41.52c-2.56 0-5.12 0-7.68-.06a31.65 31.65 0 01-18.58-6.87c-9.77-7.5-14.5-17.58-15.13-29.74-.08-1.59 0-3.2 0-4.8v-135.34a51 51 0 011.6-14.24c4-14.16 13.16-23 27.46-26.57a53.86 53.86 0 0113.32-1.28h118.07c3.19 0 6.38-.19 9.57-.32.18 0 .43-.34.49-.57s.11-.77 0-.86c-2.18-1.35-4.44-2.56-6.57-4-10-6.62-15.3-16-16.29-27.91-.21-2.55-.12-5.12-.12-7.68V917.69c0-1.92.07-3.84 0-5.76a35.17 35.17 0 014.69-17.39 32.24 32.24 0 0111.68-12.43c2.18-1.33 4.49-2.45 6.67-3.78.37-.22.55-1 .54-1.55 0-.73-.61-1-1.39-1-1.92 0-3.83-.12-5.75-.12H41.14c-2.87 0-5.75-.09-8.63-.18-6.31-.2-11.79-2.64-16.77-6.36C5.25 861.34.24 850.72.08 837.78c-.13-10.56 0-21.12 0-31.68V698.59a50 50 0 011.69-14.22c4.07-14.13 13.39-22.83 27.62-26.37a45.64 45.64 0 0111.41-1.2q24 .06 48 0c2.23 0 4.46-.16 6.68-.38.25 0 .42-.95.64-1.51-2.15-1.36-4.41-2.59-6.46-4.11-6.57-4.9-11.56-11-13.91-19a32 32 0 01-1.24-6.56c-.25-3.19-.23-6.4-.23-9.59V480.3c0-2.56 0-5.12.06-7.68 0-8.8 3.77-16 9.45-22.45 3.44-3.92 7.82-6.54 12.17-9.22.16-.1.15-.55.11-.83s-.18-.74-.31-.75c-1.9-.18-3.81-.41-5.71-.41-15.36 0-30.72-.07-46.08 0a70.24 70.24 0 01-13.34-1.16C15.64 434.94 6.17 426 1.8 411.58A44.85 44.85 0 010 398.34q.14-69.6 0-139.19A49.84 49.84 0 012.2 245c3.61-12.4 16.74-23.62 29.08-24.86a167.78 167.78 0 0117.2-1.14q56.16.09 112.31 0c2.55 0 5.1-.16 7.64-.37.26 0 .45-1 .72-1.56-2.38-1.59-4.86-3.07-7.14-4.82a35.49 35.49 0 01-14.37-27.05c-.18-2.87-.12-5.75-.12-8.63V44.12c0-2.88-.09-5.77.12-8.63 1-13.45 7.19-23.62 19.11-30.13a31.48 31.48 0 0116.53-4.22c2.55.1 5.12 0 7.68 0h449.22c4.16 0 8.31.19 12.47.29a5 5 0 01-3.06 2.11 20.7 20.7 0 00-10.38 6.56 67.933 67.933 0 01-4.07 4.07 23.08 23.08 0 00-4.92 7 42.2 42.2 0 00-4.63 19.32c.15 46.39.07 92.79.07 139.18v4.8c.29 5.86 3 11 4.83 16.44a4.74 4.74 0 001.17 1.51c1.1 1.16 2.26 2.27 3.34 3.45 4.55 5 9.4 9.53 16 11.73.23.08.53.61.46.78-.24.55-.54 1.34-1 1.47a14 14 0 01-3.74.57c-7 .05-14.08 0-21.12 0-37.11 0-74.23.05-111.34-.06-5.26 0-10.17.66-14.64 3.55a13.11 13.11 0 01-1.73.83c-6.39 2.88-10.64 7.92-14.24 13.75a28.35 28.35 0 00-4 15.48q.09 74.88 0 149.74a36.33 36.33 0 002.82 14 20.44 20.44 0 003.5 5.66 111.63 111.63 0 008.14 8.14 14.64 14.64 0 004 2.54c4.7 2.05 9.47 3.53 14.77 3.46 14.71-.19 29.43-.07 44.15-.06 5.44 0 10.88 0 16.32.07a5.9 5.9 0 012.67.78 1.69 1.69 0 01.36 1.63c-1.42 2.35-4 3-6.29 4.1a22.08 22.08 0 00-9.81 8.85c-.65 1.09-1.45 2.1-2.15 3.16a30.71 30.71 0 00-5.47 18V623.83a19.27 19.27 0 00.36 3.8c1.67 7.34 5.42 13.59 10.32 19.2a17.91 17.91 0 006.15 4.49c2.88 1.32 5.72 2.73 8.56 4.14.22.11.47.62.39.78-.26.54-.62 1.37-1 1.43a50.67 50.67 0 01-6.63.55q-27.84.06-55.67 0h-7.68a8.88 8.88 0 00-5.36 1.78 9.58 9.58 0 01-3.31 1.83 12.58 12.58 0 00-6.41 4c-1.78 1.84-3.56 3.69-5.44 5.42a21.45 21.45 0 00-5 8.07 36.74 36.74 0 00-2.24 14.07q.1 73 0 145.9c0 9.48.07 9.45 4.53 18.24a29.26 29.26 0 0013.31 13.28c8.72 4.39 8.69 4.48 18.25 4.48h131.52a9.85 9.85 0 012.82.39 2 2 0 011.17 1.26c.09.46-.29 1.4-.65 1.51-5.73 1.74-10 5.44-14 9.73-1.51 1.65-3.19 3.15-4.69 4.82a9.4 9.4 0 00-2.11 3.14c-2.14 6.66-5.12 13.16-4.21 20.44v136.31a55.76 55.76 0 001.64 13.21c1.55 6.43 4.21 12 9 16.56 2.53 2.43 4.93 5 8.14 6.62a23.81 23.81 0 014.57 3.48 1.87 1.87 0 01.47 1.63c-.14.5-.77 1.19-1.23 1.22-3.18.23-6.37.4-9.55.4H515.81c-2.88 0-5.76 0-8.63.07a10.69 10.69 0 00-3.73.75c-4.4 1.9-8.79 3.85-12 7.65-1.24 1.46-2.74 2.69-4 4.1-4.94 5.35-8.14 11.4-7.64 19 .09 1.27 0 2.56 0 3.84v151.65a16.57 16.57 0 00.53 3.78c1.66 5.91 4.08 11.25 8.83 15.6 3.62 3.32 7.71 5.59 11.93 7.85a24.25 24.25 0 0011.9 2.7c17.28-.12 34.56 0 51.83 0H579a1.49 1.49 0 01-.71 2.4c-3.12 1.52-6.38 2.62-9.34 4.66-10.15 7-16.25 17.62-16.26 29.77 0 49 0 97.91-.08 146.86a36.24 36.24 0 003.41 14.78 13 13 0 002.51 4c5.16 5.19 9.73 11.08 16.54 14.38.66.33.81.89.3 2h-6.39c-15.68 0-31.35.07-47 0a55.17 55.17 0 00-15.12 1.81c-5.67 1.56-10.79 3.86-14.94 8.1-1.34 1.37-2.72 2.71-4.07 4.08-5.37 5.47-8.27 11.78-8.2 19.71.22 23.67.08 47.35.08 71 0 26.56.07 53.11-.06 79.67 0 5.27.71 10.14 3.57 14.64.85 1.34 1.34 2.92 2.2 4.25a20.2 20.2 0 003.49 4.52c4.12 3.52 8.39 6.92 13.56 8.82 4.21 1.54 8.49 2.8 13.1 2.31a52.51 52.51 0 015.75 0H644.2c1 0 1.92 0 2.87.12a2.43 2.43 0 012.32 1.31c.34.74 0 1.67-1.25 2.08-3.45 1.09-6.17 3.41-9 5.44-5.31 3.84-8.27 9.61-11.09 15.37a3.22 3.22 0 00-.29.91c-.88 5.32-2.26 10.49-2.23 16 .19 45.43.12 90.87.09 136.3a56.94 56.94 0 001.62 13.22 34.19 34.19 0 009.58 17.28 32.14 32.14 0 009.24 6.72 4 4 0 012.54 3.75z" fill="#ffc850"/>
    <path d="M648.6 1969.27a4 4 0 00-2.51-3.74 32.14 32.14 0 01-9.24-6.72 34.19 34.19 0 01-9.58-17.28 56.94 56.94 0 01-1.62-13.22c0-45.43.1-90.87-.09-136.3 0-5.55 1.35-10.72 2.23-16a3.22 3.22 0 01.29-.91c2.82-5.76 5.78-11.53 11.09-15.37 2.8-2 5.52-4.35 9-5.44 1.29-.41 1.59-1.34 1.25-2.08a2.43 2.43 0 00-2.32-1.31c-1-.1-1.91-.11-2.87-.12h-122.9a52.51 52.51 0 00-5.75 0c-4.61.49-8.89-.77-13.1-2.31-5.17-1.9-9.44-5.3-13.56-8.82a20.2 20.2 0 01-3.49-4.52c-.86-1.33-1.35-2.91-2.2-4.25-2.86-4.5-3.6-9.37-3.57-14.64.13-26.56.06-53.11.06-79.67 0-23.68.14-47.36-.08-71-.07-7.93 2.83-14.24 8.2-19.71 1.35-1.37 2.73-2.71 4.07-4.08 4.15-4.24 9.27-6.54 14.94-8.1a55.17 55.17 0 0115.12-1.81c15.68.1 31.35 0 47 0h6.39c.51-1.06.36-1.62-.3-2-6.81-3.3-11.38-9.19-16.54-14.38a13 13 0 01-2.51-4 36.24 36.24 0 01-3.41-14.78c.11-49 0-97.9.08-146.86 0-12.15 6.11-22.76 16.26-29.77 3-2 6.22-3.14 9.34-4.66a1.49 1.49 0 00.71-2.4h-14.15c-17.27 0-34.55-.07-51.83 0a24.25 24.25 0 01-11.95-2.77c-4.22-2.26-8.31-4.53-11.93-7.85-4.75-4.35-7.17-9.69-8.83-15.6a16.57 16.57 0 01-.53-3.78c-.09-2.23 0-4.48 0-6.71v-144.94c0-1.28.08-2.57 0-3.84-.5-7.56 2.7-13.61 7.64-19 1.3-1.41 2.8-2.64 4-4.1 3.23-3.8 7.62-5.75 12-7.65a10.69 10.69 0 013.73-.75c2.87-.12 5.75-.07 8.63-.07h122.87c3.18 0 6.37-.17 9.55-.4.46 0 1.09-.72 1.23-1.22a1.87 1.87 0 00-.47-1.63 23.81 23.81 0 00-4.57-3.48c-3.21-1.64-5.61-4.19-8.14-6.62-4.75-4.58-7.41-10.13-9-16.56a55.76 55.76 0 01-1.64-13.21q.06-68.16 0-136.31c-.91-7.28 2.07-13.78 4.21-20.44A9.4 9.4 0 01632 893c1.5-1.67 3.18-3.17 4.69-4.82 3.93-4.29 8.25-8 14-9.73.36-.11.74-1 .65-1.51a2 2 0 00-1.17-1.26 9.85 9.85 0 00-2.82-.39c-2.56-.06-5.12 0-7.68 0H515.81c-9.56 0-9.53-.09-18.25-4.48a29.26 29.26 0 01-13.31-13.28c-4.46-8.79-4.53-8.76-4.53-18.24v-145.9a36.74 36.74 0 012.24-14.07 21.45 21.45 0 015-8.07c1.88-1.73 3.66-3.58 5.44-5.42a12.58 12.58 0 016.41-4 9.58 9.58 0 003.29-1.83 8.88 8.88 0 015.39-1.68h63.35a50.67 50.67 0 006.63-.55c.41-.06.77-.89 1-1.43.08-.16-.17-.67-.39-.78-2.84-1.41-5.68-2.82-8.56-4.14a17.91 17.91 0 01-6.15-4.49c-4.9-5.61-8.65-11.86-10.32-19.2a19.27 19.27 0 01-.36-3.8c-.06-2.24 0-4.48 0-6.72V478.89v-4.8a30.71 30.71 0 015.47-18c.7-1.06 1.5-2.07 2.15-3.16a22.08 22.08 0 019.81-8.85c2.27-1.07 4.87-1.75 6.29-4.1a1.69 1.69 0 00-.36-1.63 5.9 5.9 0 00-2.67-.78c-5.44-.08-10.88-.07-16.32-.07-14.72 0-29.44-.13-44.15.06-5.3.07-10.07-1.41-14.77-3.46a14.64 14.64 0 01-4-2.54 111.63 111.63 0 01-8.14-8.14 20.44 20.44 0 01-3.5-5.66 36.33 36.33 0 01-2.82-14q.15-74.86 0-149.74a28.35 28.35 0 014-15.48c3.6-5.83 7.85-10.87 14.24-13.75a13.11 13.11 0 001.73-.83c4.47-2.89 9.38-3.56 14.64-3.55 37.11.11 74.23.06 111.34.06h21.12a14 14 0 003.74-.57c.45-.13.75-.92 1-1.47.07-.17-.23-.7-.46-.78-6.6-2.2-11.45-6.76-16-11.73-1.08-1.18-2.24-2.29-3.34-3.45a4.74 4.74 0 01-1.17-1.51c-1.81-5.42-4.54-10.58-4.83-16.44-.08-1.6 0-3.2 0-4.8 0-46.39.08-92.79-.07-139.18a42.2 42.2 0 014.63-19.32 23.08 23.08 0 014.92-7c1.41-1.3 2.78-2.66 4.07-4.07a20.7 20.7 0 0110.38-6.56 5 5 0 003.06-2.11c2.23-.08 4.47-.24 6.7-.24h417.56c5.12 0 10.24.08 15.35.13a9.86 9.86 0 01-1.92 2c-2.21 1.28-4.5 2.43-6.79 3.54a23.57 23.57 0 00-9.76 9c-4 6.56-6.64 13.58-6.61 21.62q.22 72.81 0 145.62a34.63 34.63 0 003.66 15.65 40.35 40.35 0 004.34 7.39c3.84 4.8 8.94 8.1 14.33 11a10.86 10.86 0 003.58 1.26c6.92.83 13.69 2.65 20.82 2.19 7.32-.48 14.69 0 22-.15a63 63 0 0117.94 1.88c11.89 4 19 12.5 22.62 24.13a43.83 43.83 0 011.85 13.24q-.13 69.58 0 139.18a45.43 45.43 0 01-2.54 15 35 35 0 01-15.2 19.12c-1.64 1-3.31 1.93-4.93 3-.16.1-.16.57-.11.84s.25.63.41.65c1.9.15 3.82.35 5.72.35 14.72 0 29.44.11 44.16 0a82.87 82.87 0 0116.2 1.43 34.12 34.12 0 0117.75 8.92c7.37 7.15 11.8 15.84 11.69 26.42v147.73c-.3 13.16-9.09 28.49-26.88 33.65-6 .58-12 1.91-18.1 1.86-14.08-.13-28.15-.06-42.23 0-2.23 0-4.46.2-6.68.36-.22 0-.47.31-.62.54a1.09 1.09 0 00.27 1.69c1.83 1.26 3.65 2.55 5.51 3.76 7.06 4.6 11.15 11.4 13.58 19.18a43.52 43.52 0 012 13.21c-.1 31.68 0 63.35 0 95 0 2.87.18 5.77-1 8.5a14.23 14.23 0 00-3.7.91c-5 2.82-10.19 5.4-14.75 8.82-4.1 3.07-8.35 5.85-12.56 8.72s-8.33 5.87-12.4 8.93c-3.31 2.5-6.82 4.69-10.11 7.23-3.79 2.92-7.24 6.29-11.17 9-5 3.4-9.5 7.49-14.24 11.22-6.24 4.92-12.76 9.61-18 15.74a7 7 0 01-2.2 1.83c-3.87 1.85-6.53 5.1-9.47 8q-16.67 16.59-33.25 33.26c-4.92 5-10.47 9.42-14 15.69a7.76 7.76 0 01-1.28 1.42c-4.43 4.59-9.29 8.78-12.58 14.38-.79 1.34-2.2 2.31-3.3 3.47a21.84 21.84 0 00-3.22 3.54c-4.63 7.67-10.72 14.25-16.18 21.26-8.63 11.08-16.1 22.94-24.44 34.2-5.14 6.94-9.19 14.55-13.66 21.9q-4 6.54-7.84 13.14c-4 6.89-8.18 13.7-11.87 20.75-5.49 10.48-10.64 21.14-15.91 31.73a39.91 39.91 0 00-2.88 6.06c-2 6.76-6 12.69-8 19.45-6 12.36-10.45 25.36-15 38.28-4 11.42-7.91 22.89-11.08 34.61-2.42 8.9-5.46 17.64-7.46 26.67-1.72 7.76-4.43 15.3-5.24 23.26-2 3.85-1 8.26-2.19 12.17-1 3.11-.84 6.37-1.84 9.35-1.14 3.41-1 7-1.74 10.32a57.49 57.49 0 00-1.79 13.22 7.15 7.15 0 01-.68 2.77c-1.08 2.42-1 5-1.12 7.53a20 20 0 01-.76 5.66 25.08 25.08 0 00-1.13 8.5c0 4.46.22 8.91-1.48 13.25-.66 1.69-.39 3.79-.42 5.7v12.48c0 4.16.11 8.25-1.39 12.3-.74 2-.48 4.42-.49 6.65v47c0 1.92-.29 4 .34 5.71 2.17 5.92 1.37 12 1.54 18 .15 5.08-.56 10.25 1.58 15.14a5 5 0 01.26 1.89c0 3.2-.15 6.42.17 9.59.35 3.46 1.8 6.91 1.67 10.31-.3 7.44 2.66 14.42 2.44 21.82-.06 2.14 1.32 4.3 1.45 6.48.34 6.09 2.22 11.86 3.27 17.8 1.73 9.7 4 19.28 6.12 28.91a186.25 186.25 0 005.52 21.22 74.82 74.82 0 012.42 8.25 190.74 190.74 0 005.74 20.21c4.61 13.59 9 27.25 14.7 40.46 3.29 7.6 6.35 15.31 9.55 23 5 12 10.87 23.72 16.1 35.67 2.45 5.59 6.34 10.38 8.85 15.88 5.32 11.66 12.69 22.14 18.8 33.35 2.28 4.18 5.07 8.09 7.62 12.14 9 14.31 19 27.92 28.85 41.63 4.83 6.71 10.07 13.15 15.37 19.48 4.29 5.12 7.78 11 13 15.3a4.42 4.42 0 011.13 1.53c1.66 3.61 4.75 6 7.39 8.74 2.43 2.55 5.4 4.74 7.23 7.66 2.77 4.43 6.46 7.9 10.05 11.51q11.82 11.94 23.75 23.76c3.62 3.58 6.9 7.56 11.57 10a13.64 13.64 0 012.84 2.56c4.13 4 8 8.22 12.94 11.32 2.65 1.66 4.54 4.49 7 6.57 2.65 2.28 5.76 4.06 8.23 6.51a75.18 75.18 0 0011.17 9A126.75 126.75 0 011131 1944a35.27 35.27 0 003.88 2.77c10.69 7.49 22 14.14 32.14 22.38-4.46.1-8.93.3-13.4.3H671.57c-7.65.02-15.31-.11-22.97-.18zm396.72-1531.79a19.85 19.85 0 016.47-5.73 31.11 31.11 0 0011.3-12.7c4.06-8.25 4.16-8.2 4.16-18.34V258.65c0-1.92.13-3.85 0-5.76a34.75 34.75 0 00-1-5.61 47.45 47.45 0 00-3.87-9.77 27.58 27.58 0 00-12-12l-6-3a16.63 16.63 0 00-8.28-2c-2.86 0-5.81.4-8.55-.73s-5.61-1.12-8.49-1.12h-51.84c-1.91 0-4-.19-5.7.42a32.46 32.46 0 01-10.38 1.5 22.3 22.3 0 00-4.67.86c-5.72 1.42-10.74 4-14.59 8.65-1.22 1.47-2.73 2.69-4 4.11a23.84 23.84 0 00-6.16 11.76c-1.06 6.24-2.4 12.42-2.37 18.91.23 42.88.12 85.75.12 128.63v4.8a19.13 19.13 0 00.92 6.61 20.38 20.38 0 01.93 4.66c.63 5.92 2.58 11.13 7.3 15.1 2.19 1.85 4 4.21 6.17 6 4.75 3.92 9.9 6.94 16.41 6.85a44.06 44.06 0 016.6.87 64.56 64.56 0 006.6.9c3.83.15 7.68 0 11.52 0h39.36c-.12.79 0 1.61-.32 1.87-1.74 1.4-3.56 2.7-5.4 4a31.7 31.7 0 00-10.76 12c-4.39 8.8-4.49 8.75-4.49 19.22v143c0 1.92.09 3.85 0 5.76a15.74 15.74 0 002 8.29c.61 1.13 1.21 2.26 1.72 3.43a30.07 30.07 0 0012.34 14.14 34.24 34.24 0 015 4.22c.13.11-.09.6-.19 1.12H970.1a101.49 101.49 0 00-20 1.61c-6.57 1.29-12.1 3.8-16.79 8.39-1.83 1.79-3.66 3.58-5.41 5.45a23.61 23.61 0 00-6.24 11.72c-1.13 6.22-2.42 12.42-2.38 18.91.21 40.64.11 81.27.11 121.91 0 3.84.25 7.7-.07 11.51-.33 4 1.63 7.45 2 11.27a25.49 25.49 0 007.3 15.24c1.53 1.63 3.14 3.2 4.74 4.76 5.49 5.35 11.82 8.24 19.74 8.18 26.87-.2 53.75-.08 80.63-.08h2.88a26.32 26.32 0 0012.59-4 36 36 0 0015.09-16.79 30.08 30.08 0 003-12.88q-.16-74.87 0-149.74a28.16 28.16 0 00-3.07-12.85c-2.28-4.66-4.84-9-8.88-12.34-1.46-1.21-3.16-2.14-4.66-3.32a25.08 25.08 0 01-2.72-2.64c-.2-.2-.42-.65-.33-.83.25-.5.63-1.27 1-1.31a54.82 54.82 0 015.73-.28h40.31c2.55 0 5.23.14 7.61-.57a40.19 40.19 0 018.47-1.35 26.55 26.55 0 0012.62-4.18 51.13 51.13 0 0012.81-12.81 6.49 6.49 0 00.82-1.72c2.65-7.53 5.12-15 5.1-23.2-.1-43.51 0-87-.05-130.54 0-3.83.21-7.67-1.38-11.34a9.86 9.86 0 01-.46-3.78c0-6.47-3.15-11.59-7.18-16.27-1.67-1.93-3.64-3.6-5.39-5.47a23.4 23.4 0 00-7-4.91c-3.19-1.56-6.35-3-10-2.75a6.19 6.19 0 01-2.85-.29c-4.91-2-10.06-1.52-15.15-1.53-15.35-.06-30.71-.04-47.32-.04z" fill="#ffdc64"/>
    <path d="M2133 1353.2c-.08 1.58-.23 3.16-.23 4.74v56c0 1.58.16 3.16.25 4.74q-.12 6.72-.25 13.43a42.5 42.5 0 01-1 10.48 18.48 18.48 0 00-.5 3.79c-.58 9.58-2.35 19-3.6 28.49-2.68 20.31-7.27 40.21-12.32 60-2.36 9.27-5.32 18.41-8.15 27.56s-5.89 18.25-9.26 27.21c-2.81 7.48-5.89 14.85-8.94 22.24a557.61 557.61 0 01-26.39 54.33 517.18 517.18 0 01-33.6 53.59c-7.82 10.92-15.78 21.73-24.27 32.14-6.46 7.93-12.94 15.83-20 23.28-7.68 8.13-14.83 16.76-23 24.45-10.45 9.88-20.86 19.8-32 28.92-4 3.25-7.83 6.58-11.76 9.85-20.7 17.19-42.85 32.34-65.79 46.34a522.8 522.8 0 01-54 29.13c-15.38 7.07-30.92 13.83-46.91 19.48-7.54 2.65-15 5.49-22.62 7.92-18.87 6-38 11-57.35 15.29-11.87 2.62-23.83 4.54-35.76 6.71-7.21 1.31-14.67 1.31-21.83 2.81-9.78 2.06-19.81.84-29.54 3a31.75 31.75 0 01-6.7.28c-19.84 0-39.67.12-59.5.06-3.5 0-7-.6-10.48-.93-1.59-.14-3.18-.44-4.77-.43a171.86 171.86 0 01-27.67-2.36c-11-1.7-22.13-3-33.15-4.88-14.19-2.41-28.15-5.78-42.15-8.94-11.51-2.6-22.81-6.21-34.06-9.81s-22.35-7.71-33.48-11.7c-2.47-.89-4.87-1.53-7.47-.83a7.24 7.24 0 00-4-3.9 110.77 110.77 0 01-14.92-6.27c-4.8-2.49-9.85-4.51-14.71-6.88-8.33-4.06-16.61-8.23-24.91-12.37-6.85-3.42-13.69-6.86-19.86-11.49a24.26 24.26 0 00-4.12-2.41 110.28 110.28 0 01-14.77-8.84c-3.93-2.72-7.77-5.6-12.15-7.61a9 9 0 01-2.44-1.51c-5.64-5.22-12.52-8.74-18.46-13.59-7.88-6.43-16.75-11.61-23.94-18.93a8.14 8.14 0 00-2.23-1.8c-3.28-1.54-5.56-4.25-8.11-6.66a17.31 17.31 0 00-3.65-3.06c-2.92-1.51-5.09-3.84-7.36-6.08-2.05-2-4.08-4.06-6.11-6.09-7.47-7.46-15-14.88-22.39-22.4-7.6-7.73-15.63-15-22.11-23.84-3-4.07-7.4-7.06-9.76-11.72-3.68-3.17-6.06-7.38-9-11.12-1.78-2.24-3.31-4.68-5.1-6.91-7-8.69-13.12-18-19.65-27-5.8-8-10.46-16.76-15.61-25.19-5-8.17-10-16.31-14.19-24.93a29.57 29.57 0 00-2.63-5.1c-3.75-4.88-6-10.53-8.77-15.93-1.58-3.12-2.44-6.6-4-9.71-3-6-5.61-12.16-8.1-18.38-3.07-7.7-6.31-15.33-9.18-23.1-2.44-6.57-4.45-13.31-6.67-20-2.13-6.36-4.84-12.58-6.28-19.08-1.51-6.83-4.82-13.22-5-20.38a5.94 5.94 0 00-.67-1.79c-2.37-6.29-3.13-13-4.54-19.48-1-4.65-1.54-9.42-2.81-14-.79-2.84-.81-5.66-1.2-8.49s-1.43-5.57-1.7-8.4c-.59-6.32-2.83-12.46-2.16-18.93a3.58 3.58 0 00-.37-1.86c-1.7-3.63-1.32-7.5-1.4-11.32-.05-2.87.38-5.8-.76-8.54s-1.14-5.61-1.14-8.49v-78.68c0-1.91-.25-4 .42-5.7 1.71-4.33 1.39-8.79 1.48-13.24.06-2.56-.42-5.34.43-7.62 2.28-6.09.52-12.81 3.29-18.75-.2-4.83 1.12-9.45 1.81-14.16.5-3.48 1.24-6.86 1.91-10.29.85-4.36 2.68-8.54 2.31-13.14-.1-1.2.64-2.45 1-3.68.92-3.71 1.87-7.41 2.72-11.13 3.47-15.22 8.07-30.13 12.85-45 3.42-10.63 7.39-21 11.71-31.35 2.09-5 3.55-10.27 6-15.09 2.27-4.57 3.75-9.45 6.31-13.91 2.68-4.67 4.52-9.83 6.9-14.69a250.48 250.48 0 0112.15-22.81c3.38-5.38 5.93-11.26 9.33-16.7 6.41-10.27 12.64-20.66 19.39-30.72 2.65-4 5.72-7.65 8.42-11.59 1.44-2.1 2.86-4.19 4.45-6.2 4.92-6.25 9.14-13.05 14.78-18.73 1.65-3.57 4.48-6.19 7.19-8.9a10.42 10.42 0 001.94-2.11c3.16-5.71 8.24-9.71 12.6-14.35 2-2.09 4.19-4 5.71-6.43a38.45 38.45 0 015.47-6.62q9.15-9.16 18.32-18.31a17 17 0 013.51-3.24c4.31-2.34 7.47-6 10.91-9.28 3.89-3.76 7.38-7.95 12.25-10.65 1.62-.9 2.81-2.58 4.21-3.9a29 29 0 013.52-3.24c7.45-4.91 14-11 21.29-16.15 8.61-6 17-12.3 25.67-18.26 3.44-2.37 7.5-3.79 10.57-6.51 3.67-3.25 7.91-5.32 12.1-7.63s8.28-4.77 12.38-7.24a5 5 0 002.25-4 38.25 38.25 0 0012.63-4.12c11.36-5.88 22.78-11.64 34.35-17.09 11-5.17 22.35-9.49 33.69-13.82 12.54-4.79 25.26-9 38.11-12.91 14.7-4.44 29.5-8.36 44.51-11.5 9.06-1.89 18.08-4 27.29-5.07 3.17-.36 6.27-1.21 9.41-1.75a248 248 0 0133.27-3.88 18.21 18.21 0 002.87-.19c10.11-2.07 20.38-1.41 30.59-1.86 4.46-.19 8.91-.45 13.37-.84a119.58 119.58 0 0121.07-.06c5.42.49 10.82.8 16.24 1 5.12.15 10.24.19 15.35.43 3.18.15 6.35.58 9.53.91a25.58 25.58 0 002.83.45c8.35-.08 16.52 1.64 24.79 2.42 4.76.45 9.5 1.2 14.21 2 19.5 3.38 38.89 7.28 58 12.34 17.93 4.73 35.65 10.19 53 16.63 15 5.56 29.88 11.33 44.19 18.51 6 3 12.3 5.42 18.21 8.57 11.85 6.31 23.56 12.88 35.24 19.47 4.73 2.67 9.28 5.66 13.87 8.57 17.83 11.27 34.9 23.6 51.53 36.6a572.25 572.25 0 0166.73 61.87 498.52 498.52 0 0134.53 41.06c8.61 11.53 17.17 23.07 25 35.16 8.13 12.63 16.25 25.27 23.17 38.63 4 7.66 8.18 15.19 12.09 22.89 5.93 11.69 11.15 23.71 16.13 35.84 5.21 12.71 10.13 25.54 14.36 38.62 4.53 14 8.61 28.09 12 42.39 2.35 9.94 4.78 19.87 6.69 29.9 2 10.65 4 21.32 5 32.15.61 6.34 1.49 12.68 2.36 19a122.67 122.67 0 011.16 14.3c.1 3.55.16 7.07.26 10.58zm-586.72 543.45h28.8c2.54 0 5.23.09 7.58-.67a23.59 23.59 0 019.45-1.16c8.7.76 17-2.76 25.66-2.24a4 4 0 001.84-.49c2.71-1.26 5.62-1.08 8.48-1.25 3.19-.2 6-2.15 9.35-1.86 2.25.19 4.38-.54 6.56-1.13a97.68 97.68 0 0112.14-2.43c7.31-1 14.28-3.25 21.36-5 10.81-2.71 21.27-6.65 32.1-9.36a77.39 77.39 0 008.08-2.94c2.09-.79 4.18-1.56 6.26-2.38 5.92-2.35 12.18-3.76 17.9-6.74s11.94-4.54 17.47-7.81a15.67 15.67 0 014.34-2c4.13-1 7.68-3.15 11.42-4.94 5.76-2.76 11.26-6 16.8-9.16 6.08-3.49 12.39-6.6 18.36-10.31 5.14-3.19 10.38-6.24 15.48-9.51 11.27-7.22 22.49-14.52 32.84-23.07 2-1.61 4.34-2.65 6.14-4.54 4-4.16 9.41-6.6 13.21-11 4.48-2.1 7.4-6 10.9-9.28 2.33-2.17 4.46-4.69 7.1-6.4a45 45 0 007.31-6.13c2.73-2.7 5.5-5.37 8.14-8.15 5.49-5.77 11.88-10.73 16-17.75a8.15 8.15 0 011.3-1.4c5.11-5.26 10.44-10.27 14.65-16.4 3.24-4.7 7.57-8.62 10.93-13.25 2.81-3.89 6.34-7.23 8.9-11.21 7.25-11.26 15.41-21.93 21.91-33.68 2.17-3.9 4.49-7.72 6.84-11.51 5-8.14 9.89-16.39 14.19-24.94a215.37 215.37 0 009.23-20c2.26-6 5.39-11.55 7.75-17.5 4.72-11.86 10.25-27.27 14.88-41.33 3-9.1 5.42-18.33 7.83-27.57 1.53-5.85 3.1-11.7 4.37-17.61 1.07-5 1.12-10.23 2.76-15 1.71-4.94.31-10.32 2.9-15 .12-2.87 0-5.77.39-8.61.4-3.15 1.48-6.22 1.72-9.37.4-5.07-.17-10.19 1.7-15.15.65-1.7.31-3.8.32-5.71v-20.16a31.19 31.19 0 011-8.51 30.64 30.64 0 00.06-16.1 32.82 32.82 0 01-1.09-8.5v-21.12a21.41 21.41 0 00-.71-6.62c-1.08-3.13-1.09-6.26-1.2-9.45-.08-2.55.13-5.24-.65-7.59a32.41 32.41 0 01-1.27-9.44 19.56 19.56 0 00-.52-5.7c-1.87-5.48-1.58-11.31-3.08-16.87-.81-3-.76-6.25-1.7-9.35s-.4-6.39-2-9.32c-.44-5.8-3.12-11-4.45-16.6-2.42-10.21-5.26-20.35-8.61-30.31-2.54-7.56-5.18-15.07-8-22.52-3.66-9.53-7.73-18.89-11.77-28.25-3.93-9.08-8.65-17.83-13.21-26.63s-9.31-17.47-14-26.17c-.6-1.11-1.49-2.07-2.19-3.14-7.82-12-15.74-24-24.22-35.56-4.7-6.42-8.93-13.21-14.76-18.75a10.79 10.79 0 01-2.37-3c-1.3-2.66-3.44-4.58-5.42-6.67-1.32-1.38-2.92-2.65-3.79-4.29-1.86-3.49-4.68-6-7.38-8.76q-16.27-16.32-32.58-32.59c-1.58-1.58-3-3.5-4.88-4.57-4.27-2.42-7.44-6-10.92-9.28-1.39-1.31-3-2.42-4.46-3.6a48.54 48.54 0 01-4.49-3.54c-4.1-4-9-7.1-13.37-10.82-5.8-4.93-12.32-9-18.68-13.27-17.87-11.81-35.81-23.46-55.21-32.66a29.48 29.48 0 01-5-2.87 26.79 26.79 0 00-8.51-4.26 32.23 32.23 0 01-5.29-2.23c-6.27-3.17-12.61-6.14-19.16-8.74-13.93-5.53-27.77-11.28-42.11-15.71-4-1.23-7.87-2.63-11.86-3.77-4.58-1.31-9.33-2.12-13.81-3.69-4.86-1.71-10-2.12-14.87-3.45-6.44-1.74-13-3-19.53-4.41-4 .43-7.4-1.85-11.26-2-6.35-.31-12.47-2.72-18.94-2.08a3.7 3.7 0 01-1.87-.38c-3.31-1.63-6.86-1.28-10.37-1.4-1.59 0-3.33.1-4.73-.48-4-1.68-8.16-1.37-12.3-1.4-4.48 0-9 0-13.44-.06a18.41 18.41 0 01-5.66-.72 25.34 25.34 0 00-8.5-1.14h-23a21.07 21.07 0 00-6.62.67c-3.13 1.09-6.27 1.11-9.46 1.21-7.94.24-16-1-23.75 1.81-6.41-.21-12.66 1.21-19 1.81s-12.47 2.65-18.86 2.71a17.63 17.63 0 01-7.49 1.39 12 12 0 00-3.78.5c-7.26 2.47-14.89 3.3-22.3 5.16-9.88 2.49-19.85 4.69-29.45 8.16-12 4.34-24.42 7.47-36.06 12.8-9 2.28-17 7.15-25.76 10.26-13.27 7-27 13.16-40 20.74-9.65 5.63-19.28 11.26-28.6 17.4-12.77 8.42-25.26 17.24-37.3 26.69-3.51 2.76-6.79 5.87-10.45 8.32-4.33 2.89-7.82 6.53-11.53 10-2.08 2-4 4.34-6.36 5.79a46.77 46.77 0 00-8.73 7.42c-5.45 5.41-10.9 10.81-16.28 16.29-3.57 3.64-7.62 6.86-10 11.57a10.12 10.12 0 01-1.9 2.15c-4.43 4.59-9 9-12.64 14.35-3.4 5-7.94 9.13-11.56 14-6.67 8.92-13.09 18-19.49 27.17-1.64 2.34-2.44 5.34-4.29 7.45-3 3.41-5 7.39-7.38 11.14a254.86 254.86 0 00-15.08 26.64c-2.34 4.86-5.44 9.33-7.32 14.45-.75 2-2.71 3.69-3.34 5.75-1.22 4-3.44 7.55-5.08 11.36s-3.23 7.63-4.8 11.47c-3.14 7.67-6.48 15.27-9.33 23-4.39 12-8.09 24.21-11.39 36.51-4.11 15.34-7.63 30.85-10.24 46.55-.73 4.39-1.93 8.7-2.09 13.18-1.9 3.9-1.5 8.1-1.58 12.25 0 1.59.19 3.35-.38 4.75-1.89 4.63-1.48 9.42-1.53 14.2a26.37 26.37 0 01-1 7.56 23.16 23.16 0 00-.83 6.6q-.09 29.26 0 58.55c0 1.91-.19 4 .47 5.69 1.57 4 1.32 8.16 1.45 12.3.07 2.54 0 5.22.71 7.58a31.07 31.07 0 011.18 9.45c0 3.19-.1 6.37 1.15 9.46a14.9 14.9 0 01.73 4.69 57.43 57.43 0 001 6.58c.89 5.33 2.77 10.47 2.9 15.94a22.35 22.35 0 00.88 4.67c1 4 2 8 2.93 12.06 1.42 6.2 3.71 12.21 4.09 18.63 3 9.06 6.21 18.08 8.59 27.35 3.32 6.58 5.19 13.72 8 20.52 5.64 13.9 11.4 27.72 18 41.22 5.31 10.93 11.5 21.37 17.16 32.11a36.68 36.68 0 002.14 3.17 92.37 92.37 0 015.24 8c6.88 13 16.55 24.19 24.35 36.61a6.65 6.65 0 001.26 1.44c4.17 3.59 6.38 8.77 10.25 12.6 1.93 4.2 5.45 7.07 8.66 10.16s5.1 7.27 8.35 10.45c13.27 13 26.3 26.19 39.44 39.29a25.41 25.41 0 005 4.37c2.86 1.62 5 3.92 7.33 6.12 1.62 1.56 3 3.41 4.89 4.59 5.67 3.61 10.31 8.51 15.83 12.3 4.46 3.06 8.72 6.41 13.19 9.46 7.37 5 14.89 9.86 22.27 14.89a136 136 0 0015.44 9.57c5.69 2.87 10.87 6.67 16.73 9.3 4.95 2.22 9.75 4.8 14.57 7.32 2 1 3.67 2.69 5.72 3.43 8.13 2.9 15.55 7.39 23.69 10.29 7.8 2.78 15.29 6.46 23.13 9.09 15.4 5.18 30.62 11 46.59 14.35 6.22 1.32 12.36 3.07 18.47 4.83 6.44 1.85 13.24 1.8 19.63 3.85 5.15-.1 9.86 2.8 15.1 2.24a5.78 5.78 0 012.76.68c2.43 1.07 5 1.06 7.54 1.07a26 26 0 019.44 1.29c1.72.67 3.77.55 5.68.6 3.19.1 6.4 0 9.59.08a18.32 18.32 0 015.66.7c3.11 1.15 6.27 1.16 9.46 1.17z" fill="#ffdc64"/>
    <path d="M1255.3 876.05a5 5 0 01-2.25 4c-4.1 2.47-8.19 4.94-12.38 7.24s-8.43 4.38-12.1 7.63c-3.07 2.72-7.13 4.14-10.57 6.51-8.65 6-17.06 12.26-25.67 18.26-7.33 5.11-13.84 11.24-21.29 16.15a29 29 0 00-3.52 3.24c-1.4 1.32-2.59 3-4.21 3.9-4.87 2.7-8.36 6.89-12.25 10.65-3.44 3.32-6.6 6.94-10.91 9.28a17 17 0 00-3.51 3.24q-9.18 9.14-18.32 18.31a38.45 38.45 0 00-5.47 6.62c-1.52 2.39-3.74 4.34-5.71 6.43-4.36 4.64-9.44 8.64-12.6 14.35a10.42 10.42 0 01-1.94 2.11c-2.71 2.71-5.54 5.33-7.19 8.9-5.64 5.68-9.86 12.48-14.78 18.73-1.59 2-3 4.1-4.45 6.2-2.7 3.94-5.77 7.63-8.42 11.59-6.75 10.06-13 20.45-19.39 30.72-3.4 5.44-5.95 11.32-9.33 16.7a250.48 250.48 0 00-12.15 22.81c-2.38 4.86-4.22 10-6.9 14.69-2.56 4.46-4 9.34-6.31 13.91-2.41 4.82-3.87 10.1-6 15.09-4.32 10.3-8.29 20.72-11.71 31.35-4.78 14.84-9.38 29.75-12.85 45-.85 3.72-1.8 7.42-2.72 11.13-.31 1.23-1.05 2.48-1 3.68.37 4.6-1.46 8.78-2.31 13.14-.67 3.43-1.41 6.81-1.91 10.29-.69 4.71-2 9.33-1.81 14.16-2.77 5.94-1 12.66-3.29 18.75-.85 2.28-.37 5.06-.43 7.62-.09 4.45.23 8.91-1.48 13.24-.67 1.7-.42 3.79-.42 5.7v78.68c0 2.88 0 5.74 1.14 8.49s.71 5.67.76 8.54c.08 3.82-.3 7.69 1.4 11.32a3.58 3.58 0 01.37 1.86c-.67 6.47 1.57 12.61 2.16 18.93.27 2.83 1.32 5.58 1.7 8.4s.41 5.65 1.2 8.49c1.27 4.58 1.81 9.35 2.81 14 1.41 6.52 2.17 13.19 4.54 19.48a5.94 5.94 0 01.67 1.79c.14 7.16 3.45 13.55 5 20.38 1.44 6.5 4.15 12.72 6.28 19.08 2.22 6.65 4.23 13.39 6.67 20 2.87 7.77 6.11 15.4 9.18 23.1 2.49 6.22 5.05 12.4 8.1 18.38 1.59 3.11 2.45 6.59 4 9.71 2.73 5.4 5 11 8.77 15.93a29.57 29.57 0 012.63 5.1c4.19 8.62 9.19 16.76 14.19 24.93 5.15 8.43 9.81 17.16 15.61 25.19 6.53 9 12.67 18.32 19.65 27 1.79 2.23 3.32 4.67 5.1 6.91 3 3.74 5.35 8 9 11.12 2.36 4.66 6.77 7.65 9.76 11.72 6.48 8.82 14.51 16.11 22.11 23.84 7.41 7.52 14.92 14.94 22.39 22.4 2 2 4.06 4.07 6.11 6.09 2.27 2.24 4.44 4.57 7.36 6.08a17.31 17.31 0 013.65 3.06c2.55 2.41 4.83 5.12 8.11 6.66a8.14 8.14 0 012.23 1.8c7.19 7.32 16.06 12.5 23.94 18.93 5.94 4.85 12.82 8.37 18.46 13.59a9 9 0 002.44 1.51c4.38 2 8.22 4.89 12.15 7.61a110.28 110.28 0 0014.77 8.84 24.26 24.26 0 014.12 2.41c6.17 4.63 13 8.07 19.86 11.49 8.3 4.14 16.58 8.31 24.91 12.37 4.86 2.37 9.91 4.39 14.71 6.88a110.77 110.77 0 0014.92 6.27 7.24 7.24 0 014 3.9c.14 5.38 0 10.68-1.84 15.87-3.91 10.75-11.33 18-21.81 22.16a71.2 71.2 0 01-7.27 2.08c-3.17-.08-6.35-.22-9.52-.22h-105.86c-3.81 0-7.62-.19-11.43-.3-10.18-8.24-21.46-14.89-32.15-22.38a35.27 35.27 0 01-3.8-2.84 126.75 126.75 0 00-15.93-12.16 75.18 75.18 0 01-11.17-9c-2.47-2.45-5.58-4.23-8.23-6.51-2.42-2.08-4.31-4.91-7-6.57-5-3.1-8.81-7.34-12.94-11.32a13.64 13.64 0 00-2.84-2.56c-4.67-2.42-8-6.4-11.57-10q-11.94-11.82-23.75-23.76c-3.59-3.61-7.28-7.08-10.05-11.51-1.83-2.92-4.8-5.11-7.23-7.66-2.64-2.76-5.73-5.13-7.39-8.74a4.42 4.42 0 00-1.13-1.53c-5.21-4.35-8.7-10.18-13-15.3-5.3-6.33-10.54-12.77-15.37-19.48-9.87-13.71-19.86-27.32-28.85-41.63-2.55-4-5.34-8-7.62-12.14-6.11-11.21-13.48-21.69-18.8-33.35-2.51-5.5-6.4-10.29-8.85-15.88-5.23-12-11.06-23.62-16.1-35.67-3.2-7.64-6.26-15.35-9.55-23-5.72-13.21-10.09-26.87-14.7-40.46a190.74 190.74 0 01-5.74-20.21 74.82 74.82 0 00-2.42-8.25 186.25 186.25 0 01-5.52-21.22c-2.08-9.63-4.39-19.21-6.12-28.91-1.05-5.94-2.93-11.71-3.27-17.8-.13-2.18-1.51-4.34-1.45-6.48.22-7.4-2.74-14.38-2.44-21.82.13-3.4-1.32-6.85-1.67-10.31-.32-3.17-.12-6.39-.17-9.59a5 5 0 00-.26-1.89c-2.14-4.89-1.43-10.06-1.58-15.14-.17-6 .63-12.13-1.54-18-.63-1.71-.34-3.79-.34-5.71v-47c0-2.23-.25-4.64.49-6.65 1.5-4 1.37-8.16 1.39-12.3s0-8.32 0-12.48c0-1.91-.24-4 .42-5.7 1.7-4.34 1.44-8.79 1.48-13.25a25.08 25.08 0 011.13-8.5 20 20 0 00.76-5.66c.13-2.55 0-5.11 1.12-7.53a7.15 7.15 0 00.68-2.77 57.49 57.49 0 011.79-13.22c.79-3.36.6-6.91 1.74-10.32 1-3 .87-6.24 1.84-9.35 1.21-3.91.2-8.32 2.19-12.17.81-8 3.52-15.5 5.24-23.26 2-9 5-17.77 7.46-26.67 3.17-11.72 7.08-23.19 11.08-34.61 4.52-12.92 9-25.92 15-38.28 2-6.76 6-12.69 8-19.45a39.91 39.91 0 012.88-6.06c5.27-10.59 10.42-21.25 15.91-31.73 3.69-7 7.86-13.86 11.87-20.75q3.85-6.6 7.84-13.14c4.47-7.35 8.52-15 13.66-21.9 8.34-11.26 15.81-23.12 24.44-34.2 5.46-7 11.55-13.59 16.18-21.26a21.84 21.84 0 013.22-3.54c1.1-1.16 2.51-2.13 3.3-3.47 3.29-5.6 8.15-9.79 12.58-14.38a7.76 7.76 0 001.28-1.42c3.51-6.27 9.06-10.71 14-15.69Q1052 897 1068.7 880.51c2.94-2.92 5.6-6.17 9.47-8a7 7 0 002.2-1.83c5.21-6.13 11.73-10.82 18-15.74 4.74-3.73 9.2-7.82 14.24-11.22 3.93-2.66 7.38-6 11.17-9 3.29-2.54 6.8-4.73 10.11-7.23 4.07-3.06 8.19-6.06 12.4-8.93s8.46-5.65 12.56-8.72c4.56-3.42 9.76-6 14.75-8.82a14.23 14.23 0 013.7-.91 47.71 47.71 0 011 6.57c.1 10.17.18 20.35 0 30.52-.12 6.38-1 12.75-4.13 18.44-4.51 8.31-10.7 14.93-20.12 17.79-1.53-.08-3.07-.08-4.11 1.27a3.24 3.24 0 00-.4 1.64c0 .13.46.43.7.42 1.48 0 3-.11 4.44-.17 7.23-1.12 14.52-1.11 21.81-1.1h68.48c3.39.07 6.86.39 10.33.56z" fill="#ffc850"/>
    <path d="M1153.9 222.3a63 63 0 00-17.94-1.88c-7.34.18-14.71-.33-22 .15-7.13.46-13.9-1.36-20.82-2.19a10.86 10.86 0 01-3.58-1.26c-5.39-2.85-10.49-6.15-14.33-11a40.35 40.35 0 01-4.34-7.39 34.63 34.63 0 01-3.66-15.65q.13-72.81 0-145.62c0-8 2.6-15.06 6.61-21.62a23.57 23.57 0 019.76-9c2.29-1.11 4.58-2.26 6.79-3.54a9.86 9.86 0 001.92-2 10.69 10.69 0 012.56-1.17 21 21 0 013.81-.15h85.13c2.21 0 4.5-.35 6.38 1.29.66 1.62 2.17 2.21 3.53 3a33.37 33.37 0 015.53 3.73c3.3 3 6.39 6.23 9.49 9.45a8.75 8.75 0 012.11 3.14c2.13 6.63 5.15 13.1 4.23 20.37v137.8a61.24 61.24 0 01-1.73 14.12 31.32 31.32 0 01-13.62 19.94c-2.12 1.41-4.27 2.78-6.27 4.35-.65.52-.84 1.62-1.24 2.45-2.79.95-5.67.67-8.53.67h-22.93a21.24 21.24 0 00-4.73.37c-.77.14-1.41 1.05-2.13 1.64z" fill="#fff082"/>
    <path d="M1192.26 219.58c.4-.83.59-1.93 1.24-2.45 2-1.57 4.15-2.94 6.27-4.35a31.32 31.32 0 0013.62-19.94 61.24 61.24 0 001.73-14.12q-.09-68.91 0-137.8c.92-7.27-2.1-13.74-4.23-20.37a8.75 8.75 0 00-2.11-3.14c-3.1-3.22-6.19-6.46-9.49-9.45a33.37 33.37 0 00-5.58-3.62c-1.36-.81-2.87-1.4-3.53-3q49.38 0 98.74-.08c14.86 0 25.45 7.23 32.51 20a24.87 24.87 0 013.19 11c.15 3.51.22 7 .22 10.54v135.17c0 2.87 0 5.75-.11 8.62a30.23 30.23 0 01-4.84 15.32c-7.35 11.82-18.08 17.62-31.78 18.3-1.92.1-3.84 0-5.76 0h-79.56c-3.53-.13-7.03-.45-10.53-.63zM1154.59 876.62c-1.48.06-3 .15-4.44.17-.24 0-.72-.29-.7-.42a3.24 3.24 0 01.4-1.64c1-1.35 2.58-1.35 4.11-1.27z" fill="#ffdc64"/>
    <path d="M1045.32 437.48h47.32c5.09 0 10.24-.52 15.15 1.53a6.19 6.19 0 002.85.29c3.68-.28 6.84 1.19 10 2.75a23.4 23.4 0 017 4.91c1.75 1.87 3.72 3.54 5.39 5.47 4 4.68 7.13 9.8 7.18 16.27a9.86 9.86 0 00.46 3.78c1.59 3.67 1.38 7.51 1.38 11.34 0 43.51 0 87 .05 130.54 0 8.17-2.45 15.67-5.1 23.2a6.49 6.49 0 01-.82 1.72 51.13 51.13 0 01-12.81 12.81 26.55 26.55 0 01-12.62 4.18 40.19 40.19 0 00-8.47 1.35c-2.38.71-5.06.56-7.61.57h-40.31a54.82 54.82 0 00-5.73.28c-.39 0-.77.81-1 1.31-.09.18.13.63.33.83a25.08 25.08 0 002.72 2.64c1.5 1.18 3.2 2.11 4.66 3.32 4 3.32 6.6 7.68 8.88 12.34a28.16 28.16 0 013.07 12.85q-.16 74.88 0 149.74a30.08 30.08 0 01-3 12.88 36 36 0 01-15.09 16.79 26.32 26.32 0 01-12.59 4h-2.88c-26.88 0-53.76-.12-80.63.08-7.92.06-14.25-2.83-19.74-8.18-1.6-1.56-3.21-3.13-4.74-4.76a25.49 25.49 0 01-7.3-15.24c-.35-3.82-2.31-7.28-2-11.27.32-3.81.07-7.67.07-11.51 0-40.64.1-81.27-.11-121.91 0-6.49 1.25-12.69 2.38-18.91a23.61 23.61 0 016.34-11.66c1.75-1.87 3.58-3.66 5.41-5.45 4.69-4.59 10.22-7.1 16.79-8.39a101.49 101.49 0 0120-1.61h45.06c.1-.52.32-1 .19-1.12a34.24 34.24 0 00-5-4.22A30.07 30.07 0 01998 636.85c-.51-1.17-1.11-2.3-1.72-3.43a15.74 15.74 0 01-2-8.29c.09-1.91 0-3.84 0-5.76v-143c0-10.47.1-10.42 4.49-19.22a31.7 31.7 0 0110.76-12c1.84-1.26 3.66-2.56 5.4-4 .32-.26.2-1.08.32-1.87h-39.36c-3.84 0-7.69.1-11.52 0a64.56 64.56 0 01-6.6-.9 44.06 44.06 0 00-6.6-.87c-6.51.09-11.66-2.93-16.41-6.85-2.21-1.83-4-4.19-6.17-6-4.72-4-6.67-9.18-7.3-15.1a20.38 20.38 0 00-.93-4.66 19.13 19.13 0 01-.92-6.61v-4.8c0-42.88.11-85.75-.12-128.63 0-6.49 1.31-12.67 2.37-18.91a23.84 23.84 0 016.16-11.76c1.29-1.42 2.8-2.64 4-4.11 3.85-4.63 8.87-7.23 14.59-8.65a22.3 22.3 0 014.67-.86 32.46 32.46 0 0010.38-1.5c1.74-.61 3.79-.42 5.7-.42h51.84c2.88 0 5.74 0 8.49 1.12s5.69.77 8.55.73a16.63 16.63 0 018.28 2c2 1.06 4 2 6 3a27.58 27.58 0 0112 12 47.45 47.45 0 013.87 9.77 34.75 34.75 0 011 5.61c.17 1.91 0 3.84 0 5.76v142.07c0 10.14-.1 10.09-4.16 18.34a31.11 31.11 0 01-11.3 12.7 19.85 19.85 0 00-6.44 5.73z" fill="#fff082"/>
    <path d="M1546.24 1896.65h-28.79c-3.19 0-6.35 0-9.46-1.17a18.32 18.32 0 00-5.66-.7c-3.19-.11-6.4 0-9.59-.08-1.91 0-4 .07-5.68-.6a26 26 0 00-9.44-1.29c-2.56 0-5.11 0-7.54-1.07a5.78 5.78 0 00-2.76-.68c-5.24.56-10-2.34-15.1-2.24-6.39-2-13.19-2-19.63-3.85-6.11-1.76-12.25-3.51-18.47-4.83-16-3.39-31.19-9.17-46.59-14.35-7.84-2.63-15.33-6.31-23.13-9.09-8.14-2.9-15.56-7.39-23.69-10.29-2-.74-3.75-2.4-5.72-3.43-4.82-2.52-9.62-5.1-14.57-7.32-5.86-2.63-11-6.43-16.73-9.3a136 136 0 01-15.44-9.57c-7.38-5-14.9-9.86-22.27-14.89-4.47-3.05-8.73-6.4-13.19-9.46-5.52-3.79-10.16-8.69-15.83-12.3-1.85-1.18-3.27-3-4.89-4.59-2.3-2.2-4.47-4.5-7.33-6.12a25.41 25.41 0 01-5-4.37c-13.14-13.1-26.17-26.32-39.44-39.29-3.25-3.18-5.1-7.32-8.35-10.45s-6.73-6-8.66-10.16c-3.87-3.83-6.08-9-10.25-12.6a6.65 6.65 0 01-1.26-1.44c-7.8-12.42-17.47-23.58-24.35-36.61a92.37 92.37 0 00-5.24-8 36.68 36.68 0 01-2.14-3.17c-5.66-10.74-11.85-21.18-17.16-32.11-6.56-13.5-12.32-27.32-18-41.22-2.76-6.8-4.63-13.94-8-20.52-2.38-9.27-5.55-18.29-8.59-27.35-.38-6.42-2.67-12.43-4.09-18.63-.93-4-2-8-2.93-12.06a22.35 22.35 0 01-.88-4.67c-.13-5.47-2-10.61-2.9-15.94a57.43 57.43 0 01-1-6.58 14.9 14.9 0 00-.73-4.69c-1.25-3.09-1.12-6.27-1.15-9.46a31.07 31.07 0 00-1.18-9.45c-.75-2.36-.64-5-.71-7.58-.13-4.14.12-8.27-1.45-12.3-.66-1.7-.47-3.78-.47-5.69v-58.55a23.16 23.16 0 01.83-6.6 26.37 26.37 0 001-7.56c0-4.78-.36-9.57 1.53-14.2.57-1.4.34-3.16.38-4.75.08-4.15-.32-8.35 1.58-12.25.16-4.48 1.36-8.79 2.09-13.18 2.61-15.7 6.13-31.21 10.24-46.55 3.3-12.3 7-24.54 11.39-36.51 2.85-7.78 6.19-15.38 9.33-23 1.57-3.84 3.15-7.67 4.8-11.47s3.86-7.33 5.08-11.36c.63-2.06 2.59-3.7 3.34-5.75 1.88-5.12 5-9.59 7.32-14.45a254.86 254.86 0 0115.08-26.64c2.41-3.75 4.37-7.73 7.38-11.14 1.85-2.11 2.65-5.11 4.29-7.45 6.4-9.12 12.82-18.25 19.49-27.17 3.62-4.84 8.16-9 11.56-14 3.67-5.34 8.21-9.76 12.64-14.35a10.12 10.12 0 001.9-2.15c2.35-4.71 6.4-7.93 10-11.57 5.38-5.48 10.83-10.88 16.28-16.29a46.77 46.77 0 018.73-7.42c2.41-1.45 4.28-3.82 6.36-5.79 3.71-3.51 7.2-7.15 11.53-10 3.66-2.45 6.94-5.56 10.45-8.32 12-9.45 24.53-18.27 37.3-26.69 9.32-6.14 19-11.77 28.6-17.4 13-7.58 26.7-13.73 40-20.74 8.71-3.11 16.72-8 25.76-10.26 11.64-5.33 24.07-8.46 36.06-12.8 9.6-3.47 19.57-5.67 29.45-8.16 7.41-1.86 15-2.69 22.3-5.16a12 12 0 013.78-.5 17.63 17.63 0 007.49-1.39c6.39-.06 12.5-2.11 18.86-2.71s12.56-2 19-1.81c7.75-2.77 15.81-1.57 23.75-1.81 3.19-.1 6.33-.12 9.46-1.21a21.07 21.07 0 016.62-.67c7.68-.07 15.36 0 23 0a25.34 25.34 0 018.5 1.14 18.41 18.41 0 005.66.72c4.48.1 9 0 13.44.06 4.14 0 8.29-.28 12.3 1.4 1.4.58 3.14.43 4.73.48 3.51.12 7.06-.23 10.37 1.4a3.7 3.7 0 001.87.38c6.47-.64 12.59 1.77 18.94 2.08 3.86.18 7.31 2.46 11.26 2 6.51 1.44 13.09 2.67 19.53 4.41 4.92 1.33 10 1.74 14.87 3.45 4.48 1.57 9.23 2.38 13.81 3.69 4 1.14 7.9 2.54 11.86 3.77 14.34 4.43 28.18 10.18 42.11 15.71 6.55 2.6 12.89 5.57 19.16 8.74a32.23 32.23 0 005.29 2.23 26.79 26.79 0 018.51 4.26 29.48 29.48 0 005 2.87c19.4 9.16 37.34 20.81 55.15 32.64 6.36 4.23 12.88 8.34 18.68 13.27 4.37 3.72 9.27 6.77 13.37 10.82a48.54 48.54 0 004.49 3.54c1.5 1.18 3.07 2.29 4.46 3.6 3.48 3.28 6.65 6.86 10.92 9.28 1.89 1.07 3.3 3 4.88 4.57q16.3 16.29 32.58 32.59c2.7 2.71 5.52 5.27 7.38 8.76.87 1.64 2.47 2.91 3.79 4.29 2 2.09 4.12 4 5.42 6.67a10.79 10.79 0 002.37 3c5.83 5.54 10.06 12.33 14.76 18.75 8.48 11.58 16.4 23.53 24.22 35.56.7 1.07 1.59 2 2.19 3.14 4.71 8.7 9.47 17.38 14 26.17s9.28 17.55 13.21 26.63c4 9.36 8.11 18.72 11.77 28.25 2.87 7.45 5.51 15 8 22.52 3.35 10 6.19 20.1 8.61 30.31 1.33 5.59 4 10.8 4.45 16.6 1.56 2.93 1.05 6.3 2 9.32s.89 6.35 1.7 9.35c1.5 5.56 1.21 11.39 3.08 16.87a19.56 19.56 0 01.52 5.7 32.41 32.41 0 001.27 9.44c.78 2.35.57 5 .65 7.59.11 3.19.12 6.32 1.2 9.45a21.41 21.41 0 01.71 6.62c.09 7 0 14.08 0 21.12a32.82 32.82 0 001.09 8.5 30.64 30.64 0 01-.06 16.1 31.19 31.19 0 00-1 8.51v20.16c0 1.91.33 4-.32 5.71-1.87 5-1.3 10.08-1.7 15.15-.24 3.15-1.32 6.22-1.72 9.37-.35 2.84-.27 5.74-.39 8.61-2.59 4.65-1.19 10-2.9 15-1.64 4.74-1.69 10-2.76 15-1.27 5.91-2.84 11.76-4.37 17.61-2.41 9.24-4.84 18.47-7.83 27.57-4.63 14.06-10.16 29.47-14.88 41.33-2.36 6-5.49 11.55-7.75 17.5a215.37 215.37 0 01-9.23 20c-4.3 8.55-9.15 16.8-14.19 24.94-2.35 3.79-4.67 7.61-6.84 11.51-6.5 11.75-14.66 22.42-21.91 33.68-2.56 4-6.09 7.32-8.9 11.21-3.36 4.63-7.69 8.55-10.93 13.25-4.21 6.13-9.54 11.14-14.65 16.4a8.15 8.15 0 00-1.3 1.4c-4.12 7-10.51 12-16 17.75-2.64 2.78-5.41 5.45-8.14 8.15a45 45 0 01-7.31 6.13c-2.64 1.71-4.77 4.23-7.1 6.4-3.5 3.25-6.42 7.18-10.9 9.28-3.8 4.4-9.23 6.84-13.21 11-1.8 1.89-4.19 2.93-6.14 4.54-10.35 8.55-21.57 15.85-32.84 23.07-5.1 3.27-10.34 6.32-15.48 9.51-6 3.71-12.28 6.82-18.36 10.31-5.54 3.18-11 6.4-16.8 9.16-3.74 1.79-7.29 4-11.42 4.94a15.67 15.67 0 00-4.34 2c-5.53 3.27-11.82 4.86-17.47 7.81s-12 4.39-17.9 6.74c-2.08.82-4.17 1.59-6.26 2.38a77.39 77.39 0 01-8.08 2.94c-10.83 2.71-21.29 6.65-32.1 9.36-7.08 1.77-14 4-21.36 5a97.68 97.68 0 00-12.14 2.43c-2.18.59-4.31 1.32-6.56 1.13-3.32-.29-6.16 1.66-9.35 1.86-2.86.17-5.77 0-8.48 1.25a4 4 0 01-1.84.49c-8.66-.52-17 3-25.66 2.24a23.59 23.59 0 00-9.45 1.16c-2.35.76-5 .65-7.58.67-9.63-.04-19.23-.08-28.83-.08zm-.62-73h29.75c2.24 0 4.63.23 6.66-.47 4.06-1.4 8.18-1.29 12.32-1.43 1.6 0 3.33.15 4.76-.4 6.07-2.31 12.78-.75 18.78-3.26 9-.46 17.6-2.89 26.28-4.75a319.32 319.32 0 0039.6-11c6.62-2.34 13.28-4.57 19.88-7 12-4.34 23.45-10.07 35.3-14.82a14.2 14.2 0 003.4-1.75c4.36-3.35 9.39-5.47 14.26-7.84 9.21-4.5 17.81-10 26.51-15.38 3.53-2.17 7.09-4.29 10.52-6.62 3.17-2.14 6.17-4.53 9.25-6.8 8.47-6.23 17.38-11.89 24.89-19.34a9.18 9.18 0 012.2-1.85c3.51-1.76 6-4.7 8.84-7.3 1.17-1.08 2.46-2 3.69-3 2-1.62 4.07-3.1 5.88-4.87 6.85-6.72 13.63-13.53 20.39-20.34a29.14 29.14 0 004.4-5 28.78 28.78 0 015.52-6.59c5.78-5.13 9.59-12 15-17.37 5.93-8.68 12.54-16.88 18.42-25.61a411.34 411.34 0 0029.87-51.28c.55-1.15 1.11-2.31 1.7-3.44 7.9-15 14-30.79 19.5-46.81 2.79-8.16 6-16.23 7.94-24.6 2.95-12.7 7.48-25.07 8.47-38.2 1.85-7.43 3.76-14.84 3.59-22.58a7.06 7.06 0 01.42-2.83c1.59-3.66 1.24-7.53 1.42-11.35.13-2.86.07-5.82.81-8.54a35.88 35.88 0 001-9.48v-46.07c0-4.78.34-9.58-1.42-14.23-.54-1.43-.35-3.16-.4-4.76-.15-5.73.3-11.5-1.67-17.08-.51-1.45-.23-3.17-.33-4.77a19.22 19.22 0 00-.32-3.81c-1.78-6.47-2-13.22-3.64-19.69-1.55-6.18-2.06-12.59-4.42-18.58a33.93 33.93 0 01-1.21-4.61c-2.2-9.31-4.92-18.48-7.79-27.59-2.49-7.91-5.49-15.65-8.39-23.42-1.56-4.19-3.32-8.3-5.13-12.38-1.68-3.8-3.88-7.4-5.24-11.3s-4.28-7.08-5.22-11.23c-.41-1.79-1.82-3.34-2.78-5-1.12-1.93-2.38-3.79-3.35-5.8a257.44 257.44 0 00-19.39-33c-5.58-8.16-10.8-16.56-16.84-24.43-2.34-3-5.2-5.68-7.24-8.88a56.57 56.57 0 00-7.28-8.86 18.32 18.32 0 01-3-3.69 29.93 29.93 0 00-5.48-6.63q-16.61-16.65-33.25-33.26a23.83 23.83 0 00-4.23-3.89c-6.09-3.63-10.28-9.6-16.44-13.09-7.59-6.86-16-12.65-24.36-18.51q-10.18-7.14-20.94-13.43c-6.89-4-13.57-8.41-20.77-11.89q-12.09-5.87-24-12a244.38 244.38 0 00-30.93-12.84c-29.72-10.4-32.3-11.18-62.33-18.34-8-1.92-16.26-3.11-24.4-4.42-6.88-1.1-13.76-2.95-20.87-2.3a4.47 4.47 0 01-1.89-.21c-5.87-2.22-12-1.41-18-1.61-5.1-.17-10.23.4-15.2-1.45-1.43-.53-3.16-.33-4.76-.34h-17.27a14.39 14.39 0 00-4.76.36c-4.34 1.63-8.81 1.32-13.27 1.41-5.12.11-10.23.26-15.35.39-5.19 2.22-10.72 1.28-16.11 1.75a5.86 5.86 0 00-1.87.36c-2.71 1.19-5.64 1-8.44 1.53-5 .95-10.08 1.5-15.06 2.5-7.49 1.5-14.93 3.24-22.34 5.1-10.82 2.7-21.65 5.36-32.18 9.17q-10.8 3.9-21.62 7.74c-11.47 4.06-22.37 9.37-33.41 14.36-14.28 6.46-27.7 14.57-41.14 22.58-7.11 4.25-13.86 9.11-20.66 13.87-5.74 4-11.3 8.3-17 12.45a43.84 43.84 0 00-3.89 2.76c-5.85 5.43-12.74 9.66-18 15.78a7.91 7.91 0 01-2.15 1.9c-4.36 2.28-7.51 6-10.83 9.38-8.21 8.49-17.11 16.29-24.29 25.8-4 5.32-9.57 9.41-13.08 15.23-6.22 6.46-11.27 13.89-16.38 21.16a440.61 440.61 0 00-37.56 63.37c-3.44 7.2-6.83 14.43-9.88 21.81-3.65 8.84-6.94 17.83-10.35 26.77a26.52 26.52 0 00-1.76 5.46c-.71 4.8-2.62 9.2-4 13.77-.85 2.74-1.47 5.55-2.25 8.3-2.7 9.5-5 19.11-6.78 28.81-1.09 5.94-3.11 11.74-2.84 17.9a6.62 6.62 0 01-.37 2.84c-1.56 3.65-1.41 7.5-1.51 11.33a11.33 11.33 0 01-.38 3.8c-1.72 4.31-1.41 8.8-1.47 13.26-.06 3.84-.09 7.63-1.4 11.36-.61 1.74-.44 3.79-.44 5.71q-.06 17.75 0 35.51a14.42 14.42 0 00.32 4.76c1.92 5.28 1.4 10.73 1.55 16.14.09 3.52 0 7 1.27 10.42.64 1.73.51 3.77.59 5.68.15 3.19 0 6.39 1.29 9.45a8.86 8.86 0 01.57 3.76c-.2 4.23 1 8.21 2 12.23.68 2.78 1.3 5.58 1.88 8.39 1.42 6.85 2.32 13.82 4.72 20.44a31.39 31.39 0 011 3.68c4.17 17.76 10.36 34.84 17.15 51.72 1.66 4.15 3.42 8.25 5.19 12.35 2.8 6.45 6.75 12.36 8.84 19.14a12.36 12.36 0 001.43 2.47c4.47 7.38 8.15 15.18 12.6 22.58 2.46 4.1 4.8 8.29 7.39 12.32 2.76 4.29 5.65 8.5 8.5 12.74a324.32 324.32 0 0026.87 34.78 8.08 8.08 0 011.25 1.45c2.39 4.67 6.42 7.94 10 11.58 7.4 7.54 14.82 15 22.38 22.42 6.39 6.24 12.21 13.12 19.85 18 4.69 4.82 10.82 8 15.26 13.06a7.51 7.51 0 001.5 1.18c7.36 5.06 14.75 10.07 22.06 15.19 5 3.48 10.23 6.51 15.35 9.75 4.08 2.57 8.54 4.42 12.5 7.06a113.09 113.09 0 0013.38 7.46c10.33 5 20.45 10.51 31.15 14.83 5.92 2.39 11.79 4.87 17.85 6.9 3 1 5.94 2.33 9 3.39 5.12 1.78 10.26 3.53 15.42 5.18 2.73.87 5.59 1.34 8.28 2.3a139.77 139.77 0 0015.62 4.49c3.1.72 6.24 1.25 9.35 1.91 5 1 9.89 2.39 14.9 3.34 4.08.77 8.27 1 12.22 2a47.7 47.7 0 0011.35 1.48 11.09 11.09 0 013.8.34c4.3 1.73 8.79 1.45 13.25 1.6a14.82 14.82 0 014.74.48c4 1.55 8.18 1.32 12.32 1.33 8.56-.03 17.22-.05 25.84-.05z" fill="#ffc850"/>
    <path d="M1545.62 1823.66h-25.92c-4.14 0-8.29.22-12.32-1.33a14.82 14.82 0 00-4.74-.48c-4.46-.15-9 .13-13.25-1.6a11.09 11.09 0 00-3.8-.34 47.7 47.7 0 01-11.35-1.48c-4-1.06-8.14-1.26-12.22-2-5-1-9.92-2.3-14.9-3.34-3.11-.66-6.25-1.19-9.35-1.91a139.77 139.77 0 01-15.62-4.49c-2.69-1-5.55-1.43-8.28-2.3-5.16-1.65-10.3-3.4-15.42-5.18-3-1.06-5.93-2.38-9-3.39-6.06-2-11.93-4.51-17.85-6.9-10.7-4.32-20.82-9.78-31.15-14.83a113.09 113.09 0 01-13.38-7.46c-4-2.64-8.42-4.49-12.5-7.06-5.12-3.24-10.37-6.27-15.35-9.75-7.31-5.12-14.7-10.13-22.06-15.19a7.51 7.51 0 01-1.5-1.18c-4.44-5.11-10.57-8.24-15.26-13.06-7.64-4.87-13.46-11.75-19.85-18-7.56-7.37-15-14.88-22.38-22.42-3.56-3.64-7.59-6.91-10-11.58a8.08 8.08 0 00-1.25-1.45 324.32 324.32 0 01-26.87-34.78c-2.85-4.24-5.74-8.45-8.5-12.74-2.59-4-4.93-8.22-7.39-12.32-4.45-7.4-8.13-15.2-12.6-22.58a12.36 12.36 0 01-1.43-2.47c-2.09-6.78-6-12.69-8.84-19.14-1.77-4.1-3.53-8.2-5.19-12.35-6.79-16.88-13-34-17.15-51.72a31.39 31.39 0 00-1-3.68c-2.4-6.62-3.3-13.59-4.72-20.44-.58-2.81-1.2-5.61-1.88-8.39-1-4-2.19-8-2-12.23a8.86 8.86 0 00-.57-3.76c-1.27-3.06-1.14-6.26-1.29-9.45-.08-1.91 0-3.95-.59-5.68-1.27-3.42-1.18-6.9-1.27-10.42-.15-5.41.37-10.86-1.55-16.14a14.42 14.42 0 01-.32-4.76v-35.51c0-1.92-.17-4 .44-5.71 1.31-3.73 1.34-7.52 1.4-11.36.06-4.46-.25-9 1.47-13.26a11.33 11.33 0 00.38-3.8c.1-3.83 0-7.68 1.51-11.33a6.62 6.62 0 00.37-2.84c-.27-6.16 1.75-12 2.84-17.9 1.77-9.7 4.08-19.31 6.78-28.81.78-2.75 1.4-5.56 2.25-8.3 1.41-4.57 3.32-9 4-13.77a26.52 26.52 0 011.76-5.46c3.41-8.94 6.7-17.93 10.35-26.77 3-7.38 6.44-14.61 9.88-21.81a440.61 440.61 0 0137.56-63.37c5.11-7.27 10.16-14.7 16.38-21.16 3.51-5.82 9.07-9.91 13.08-15.23 7.18-9.51 16.08-17.31 24.29-25.8 3.32-3.43 6.47-7.1 10.83-9.38a7.91 7.91 0 002.15-1.9c5.24-6.12 12.13-10.35 18-15.78a43.84 43.84 0 013.89-2.76c5.65-4.15 11.21-8.43 17-12.45 6.8-4.76 13.55-9.62 20.66-13.87 13.44-8 26.86-16.12 41.14-22.58 11-5 21.94-10.3 33.41-14.36q10.82-3.83 21.62-7.74c10.53-3.81 21.36-6.47 32.18-9.17 7.41-1.86 14.85-3.6 22.34-5.1 5-1 10-1.55 15.06-2.5 2.8-.54 5.73-.34 8.44-1.53a5.86 5.86 0 011.87-.36c5.39-.47 10.92.47 16.11-1.75 5.12-.13 10.23-.28 15.35-.39 4.46-.09 8.93.22 13.27-1.41a14.39 14.39 0 014.76-.36q8.64-.06 17.27 0c1.6 0 3.33-.19 4.76.34 5 1.85 10.1 1.28 15.2 1.45 6 .2 12.17-.61 18 1.61a4.47 4.47 0 001.89.21c7.11-.65 14 1.2 20.87 2.3 8.14 1.31 16.35 2.5 24.4 4.42 30 7.16 32.61 7.94 62.33 18.34a244.38 244.38 0 0130.93 12.84q12 6.13 24 12c7.2 3.48 13.88 7.86 20.77 11.89q10.76 6.28 20.94 13.43c8.35 5.86 16.77 11.65 24.36 18.51 6.16 3.49 10.35 9.46 16.44 13.09a23.83 23.83 0 014.23 3.89q16.64 16.61 33.25 33.26a29.93 29.93 0 015.48 6.63 18.32 18.32 0 003 3.69 56.57 56.57 0 017.28 8.86c2 3.2 4.9 5.83 7.24 8.88 6 7.87 11.26 16.27 16.84 24.43a257.44 257.44 0 0119.39 33c1 2 2.23 3.87 3.35 5.8 1 1.66 2.37 3.21 2.78 5 .94 4.15 3.85 7.29 5.22 11.23s3.56 7.5 5.24 11.3c1.81 4.08 3.57 8.19 5.13 12.38 2.9 7.77 5.9 15.51 8.39 23.42 2.87 9.11 5.59 18.28 7.79 27.59a33.93 33.93 0 001.21 4.61c2.36 6 2.87 12.4 4.42 18.58 1.62 6.47 1.86 13.22 3.64 19.69a19.22 19.22 0 01.32 3.81c.1 1.6-.18 3.32.33 4.77 2 5.58 1.52 11.35 1.67 17.08 0 1.6-.14 3.33.4 4.76 1.76 4.65 1.41 9.45 1.42 14.23v46.07a35.88 35.88 0 01-1 9.48c-.74 2.72-.68 5.68-.81 8.54-.18 3.82.17 7.69-1.42 11.35a7.06 7.06 0 00-.42 2.83c.17 7.74-1.74 15.15-3.59 22.58-1 13.13-5.52 25.5-8.47 38.2-1.93 8.37-5.15 16.44-7.94 24.6-5.5 16-11.6 31.79-19.5 46.81-.59 1.13-1.15 2.29-1.7 3.44a411.34 411.34 0 01-29.87 51.28c-5.88 8.73-12.49 16.93-18.42 25.61-5.43 5.42-9.24 12.24-15 17.37a28.78 28.78 0 00-5.52 6.59 29.14 29.14 0 01-4.4 5c-6.76 6.81-13.54 13.62-20.39 20.34-1.81 1.77-3.91 3.25-5.88 4.87-1.23 1-2.52 2-3.69 3-2.82 2.6-5.33 5.54-8.84 7.3a9.18 9.18 0 00-2.2 1.85c-7.51 7.45-16.42 13.11-24.89 19.34-3.08 2.27-6.08 4.66-9.25 6.8-3.43 2.33-7 4.45-10.52 6.62-8.7 5.36-17.3 10.88-26.51 15.38-4.87 2.37-9.9 4.49-14.26 7.84a14.2 14.2 0 01-3.4 1.75c-11.85 4.75-23.28 10.48-35.3 14.82-6.6 2.38-13.26 4.61-19.88 7a319.32 319.32 0 01-39.6 11c-8.68 1.86-17.32 4.29-26.28 4.75-6 2.51-12.71 1-18.78 3.26-1.43.55-3.16.35-4.76.4-4.14.14-8.26 0-12.32 1.43-2 .7-4.42.46-6.66.47-9.91.05-19.83 0-29.75 0zm141.58-599.11c3.64-5.66 5.19-12.17 7.31-18.43 1.1-3.26.78-6.86 2-10.18.81-2.25-1-4.24-1.18-6.42-.39-5.08-3.82-8.5-6.58-12.29-4.65-3.18-8.75-7.34-14.64-8.35-1.91-3.69-3.87-7.35-5.71-11.07-2.55-5.14-4.92-10.39-9.06-14.55-2.12-4.73-6.24-7.11-10.71-9-1.75-.76-3.64-1.2-5.35-2-3.44-1.65-7.11-3-10.13-5.3-5.1-3.8-10.19-7.62-14.58-12.32-6.64-7.09-15.14-10.44-24.74-10.78a20 20 0 01-9.12-2.47c-8.67-4.74-18-8.23-26.21-13.88a5.57 5.57 0 00-1.74-.78c-3.81-.91-7-3-10.14-5.21a14.91 14.91 0 00-10-2.75c-2.23.16-4.47.08-6.71.11h-38.28l-34.53-.12h-11.52a7.28 7.28 0 00-5.15 2.19c-.93.88-1.84 1.78-2.74 2.68-7.48 7.56-5.92 6.77-15.81 6.58-8.29-.16-15.72 2.77-22.85 6.21-5.11 2.47-9.69 6.14-14.28 9.57-6.37 4.77-12.3 10.13-18.83 14.66-5.31 3.69-9.79 8.16-14.31 12.66-3.38 3.38-7.06 6.52-9.25 10.91-5 4.62-8.35 10.46-12 16.08-2.06 3.21-4.24 6.54-5.34 10.13-2.52 8.18-6.69 16-6.54 24.86a2.19 2.19 0 01-.18.94c-1.83 3.93-1.44 8.12-1.45 12.26v20.15a22.07 22.07 0 00.7 6.62 29.29 29.29 0 011.13 9.46v18.23c0 2.88.06 5.73-1.22 8.46-.87 1.85-.38 3.75.54 5.52.45.85.76 1.78 1.23 2.6 3.65 6.37 7.34 12.71 11 19.06s7.78 12.5 10.82 19.15c2.79 6.09 6.21 11.83 9.08 17.86a84 84 0 004 7.63c6.8 11.16 14.16 22 20.44 33.47a12.4 12.4 0 005.31 5.37c.43 3.48 2.36 6.22 4.3 9 1.78 2.51 3.33 5.13 3.62 8.29a24.41 24.41 0 00.16 4.77c.75 3.41 1.74 6.71 1.89 10.28a54.3 54.3 0 001.87 10.28c1.74 7.09 2.52 14.35 3.86 21.51a16.31 16.31 0 00.71 2.77c1.6 4.34 1 8.8.79 13.25-2.2 5.51-1.46 11.3-1.68 17-.09 2.54 0 5.2-.72 7.56-1.09 3.45-1.06 6.9-1.15 10.4-.08 3.18.43 6.57-.49 9.5-1.47 4.72-1.28 9.43-1.47 14.19a26.25 26.25 0 01-.79 6.59c-2.25 7.3-4.74 14.53-7.16 21.77a6.12 6.12 0 01-3.1 3.47c-1.13.6-2.27 1.17-3.45 1.66-2.93 1.23-5.9 2.37-8.82 3.62s-5.77 2.56-8.65 3.88c-.26.12-.41.48-.61.72a28.52 28.52 0 00-3.7.9c-10.69 4.1-21.51 7.86-32.1 12.22-2.65 1.08-5.37 2-8 3.11-2.49 1-4.31 2.64-4.19 5.72.1 2.55 0 5.11 0 7.66v36.4c0 3.19.11 6.36-1.14 9.43a16.46 16.46 0 00-.56 9.46c.8 4 1.51 8.11 4.69 11.27a18.13 18.13 0 0013.68 5.66c14.36-.17 28.73-.08 43.1-.09l84.3-.09h78.87c1.9 0 3.8-.15 5.69-.24s3.83.18 5.74.18h102.47c2.23 0 4.47-.13 6.7-.21 1.91.1 3.82.28 5.73.28H1717.69c.62 0 1.24-.23 1.86-.34s1.7-1.53 1.51-2.15c-2.68-8.51-5.49-17-10.21-24.62-.83-1.35-1.84-2.6-2.57-4-4.57-8.7-11.8-14.91-19.37-20.76-3.27-2.53-6.7-4.87-10.87-5.85a7.63 7.63 0 01-3.26-1.86c-4.16-3.94-8.47-7.78-10.59-13.37a24.56 24.56 0 00-2.65-5.08 15.06 15.06 0 00-2.78-2.54 16.38 16.38 0 00-2.45-8.12c-1.78-3.24-1.82-6.69-1.41-10.19a5.71 5.71 0 011-2.62c2.7-3.55 5.56-7.14 9.5-9.21 4.46-2.35 8.41-5.65 13.43-7 2.75-.76 5.48-2.25 6.9-4.81 2.17-3.89 5.55-5.66 9.47-7.27 5.27-2.16 10.28-5 15.4-7.5 2.85-1.4 5.6-3.11 8.6-4.08a31.28 31.28 0 0010.51-6.18 55.88 55.88 0 005.31-1.93c4.29-2 8.52-4.19 12.76-6.34 7.31-3.71 5.5-3 7.82-9.76a19.13 19.13 0 00.77-6.54 40 40 0 012-14 6.26 6.26 0 003.78-6v-4.74-22.76a45.33 45.33 0 011.34-12.16 25.27 25.27 0 000-14.06c-1.23-4-4.94-6.4-8.18-8.94a4.71 4.71 0 00-.84-.42c-2.22-8.72-5.47-17.1-8.36-25.6-.18-.52-.82-.89-1.25-1.33v-38.31c1-.8 2.31-1.4 2.89-2.42 3-5.35 8-9.09 11-14.39 5.08-4.3 7.34-10.37 10.07-16.13a10.38 10.38 0 00.24-8.4c-1.78-4.45-3.87-8.71-7.51-12.11-3-2.84-6.45-5.21-9.54-7.92-5-4.41-10-8.83-15.22-13.06-5.43-4.42-11.28-8.38-15.94-13.72-.81-.93-2.11-1.42-3.1-2.21-5-4-10.43-7.33-14.85-12a17.19 17.19 0 00-9.92-5.39c-.18-1.47.07-3.2-.63-4.37-1.35-2.57-2.57-5.39-5.15-7.13z" fill="#fff082"/>
    <path d="M1387.92 1399.36c-.29-3.16-1.84-5.78-3.62-8.29-1.94-2.76-3.87-5.5-4.3-9a43.93 43.93 0 015.65.82c2.91.8 4-.39 4.14-3.32.28-4.6-.06-8.83-3.9-12.22-1.61-1.43-2.54-3.64-3.79-5.49a31.39 31.39 0 01-5.74-18.87c.1-3.52 0-7 .05-10.55a16.21 16.21 0 01.53-4.73c1.71-5.14 3.49-10.26 5.49-15.29 1.18-3 2.79-5.74 4.26-8.58s2.61-6 4.61-8.36c2.15-2.58 2.11-6 4.24-8.51a12.61 12.61 0 002-4.25c1-2.94 3.07-4.76 5.65-6.2 5.59-3.12 7.76-1.91 9.39 4.51.69 2.73-.51 5.06-2.63 6.78-2.46 2-5.28 3.63-7.53 5.84-8 7.87-6.91 5.76-6.85 17.59a2.72 2.72 0 00.1 1 15.07 15.07 0 001.09 2.62c.82 1.36 1.77 2.65 2.67 4-.32 1.88-.48 3.79-1 5.62-1.87 6.92-.86 13.93-.72 20.91a7.05 7.05 0 00.56 1.82c2.22 7 4.45 14 8.22 20.33a25.08 25.08 0 002.56 4 53 53 0 0020.36 13.84 47.22 47.22 0 009.24 2.25 12.46 12.46 0 004.75-.12 41.89 41.89 0 009.13-2.57 80.16 80.16 0 0010.6-6.42 7.47 7.47 0 003.36-6.53 25.22 25.22 0 011.39-8.43c1.23-3.59 1.69-7.43 2.62-11.12 1.38-5.54 2.88-11.05 4.34-16.56.2-.77 1.69-1.2 2.44-.79 2.7 1.45 4.48 3.52 4.63 6.72 0 1.28-.06 2.55 0 3.82a12.1 12.1 0 00.58 2.77 3.34 3.34 0 005.38 1.55 36.52 36.52 0 005.11-5.6 25.74 25.74 0 014.1-5.22c4.58-4 7.28-9.54 11.4-14-1.06-3.23-2.06-6.23-3-9.23-.78-2.41-1.88-4.79-2.22-7.27-.54-3.92-2.26-7.14-4.33-10.42a59.31 59.31 0 00-8.5-10.23c-4-4-8.39-7.81-10.67-13.3-.46-1.1-1.64-1.9-2.43-2.89a2.53 2.53 0 01.67-3.36c1.26-1 2.63-1.77 3.87-2.76a4.66 4.66 0 001.43-5.17c-1.4-3.64-3.33-6.86-6.84-8.87-.9-6.14.29-12.49-2-18.51-.53-1.38-.18-3.09-.24-4.65-.1-3.11-.19-6.23-.29-9.34.45-3.73 0-7.56 1.7-11.13a10.75 10.75 0 00.46-3.72c.24-3.17-1.39-5.44-3.82-7.13a12 12 0 00-3.47-1.38c-2.81-.84-4-2.82-4.21-5.59.55-.77 1.49-1.49 1.57-2.3.48-4.75 1-9.6-.42-14.22a31.6 31.6 0 01-1.13-9.43c0-3.52-.13-7 0-10.54a9.72 9.72 0 00-3.7-8.39c-1.22-1-2.47-2.39-3.88-2.64-4.07-.74-8.22-1.17-12.18.78-3.71 1.84-7.39 3.77-11.19 5.42a14.16 14.16 0 01-10.27.29 4.62 4.62 0 01-2.67-4.64 14.23 14.23 0 014.72-8.1 6.56 6.56 0 013.35-1.66c5.06-.22 10.19-1 15.15.86a10.36 10.36 0 002.78.67c9.75.75 19-.88 27.62-5.72a17.15 17.15 0 006.29-5.77c3.7-6 6.82-12.28 7-19.56.12-6.37 2.58-12.44 2.32-18.87 0-.88.75-1.76.93-2.69.32-1.55.46-3.15.67-4.72h38.28c-.34 1.21-.39 2.63-1.09 3.58a48 48 0 01-4.56 4.91c-3.81 3.87-7.67 7.71-11.48 11.58a5.18 5.18 0 00-1.3 6.12l8 18.42a10.75 10.75 0 01.35 2.21 47.65 47.65 0 01-8.19 12.5c-3.88 4.23-7.66 8.48-11.19 13a31.36 31.36 0 00-7 19.37v9.6a32.76 32.76 0 01-1 8.5c-1.76 6.69-1.4 13.2 2.29 19.41a37 37 0 005.25 6.78c5.07 5.28 10.89 9.9 14.59 16.41 3.77 3.33 5.22 7.88 6.75 12.46a13.81 13.81 0 01.15 9.36c-.86 2.4-1.71 4.81-2.51 7.23a5 5 0 001.25 5.32c3.56 3.68 7.19 7.28 10.78 10.93a149.83 149.83 0 0112.68 14.28c4.73 6.23 8.74 12.5 9.7 20.39a7.84 7.84 0 00.27.91c1.67 6.47 4 12.86 4.83 19.43s.26 13.41.3 20.12v2.88a22.54 22.54 0 01-1 6.6c-1.88 6.45-1.31 12.49 2.86 18.16a20.81 20.81 0 013.87 12.6v4.8c.12 6.36-.67 12.79 1.71 19a9.29 9.29 0 01.18 2.86c.32 6.77 3.53 12.12 8.17 16.79a13.24 13.24 0 006.58 3.79c5 1 9.77 3 15 2.53a40 40 0 015.49.29c.29.43.79 1.26 1.37 2 3 3.86 6.94 5.42 11.72 5.33a28.81 28.81 0 008.44-1.32c3.7-1.17 7-3 10.58-4.46 5.92-2.38 12-4.11 18.55-3.84a9 9 0 016 2.61c3.06 2.85 5.87 5.87 7.59 9.77a4.67 4.67 0 004.52 3c2.23 0 4.47.1 6.7.28a5.11 5.11 0 014.33 4.47c.12 1.27.17 2.55.21 3.82.07 2.56 0 5.13.19 7.67.33 4.08 5.09 7.81 9 6.47 5-1.73 10-1.48 15.15-1.56 5.28-.08 10.06 1.78 14.56 4.19a17.33 17.33 0 017.67 8.31c1.72 3.82 2 8 3.22 12a4.37 4.37 0 01-.27 2.82c-2 4.27-1.48 8.75-1.34 13.22a31.28 31.28 0 01-10.51 6.18c-3 1-5.75 2.68-8.6 4.08-5.12 2.52-10.13 5.34-15.4 7.5-3.92 1.61-7.3 3.38-9.47 7.27-1.42 2.56-4.15 4-6.9 4.81-5 1.37-9 4.67-13.43 7-3.94 2.07-6.8 5.66-9.5 9.21a5.71 5.71 0 00-1 2.62c-.41 3.5-.37 7 1.41 10.19a16.38 16.38 0 012.45 8.12c-2.79 1-4.55 3.37-6.5 5.4-5.37 5.58-12.18 7.65-19.6 8-4.73.24-9.48.05-14.22.05a7.19 7.19 0 00-5.13 2.09c-2.73 2.62-5.42 5.3-8.2 7.88a4.81 4.81 0 01-5.27.92c-1.47-.53-3-.93-4.5-1.38a12.57 12.57 0 00-2.57-7c-4.26-5.49-8.33-11.12-12.31-16.81s-7.91-11.44-11.6-17.33c-3.09-4.93-7.21-8.76-11.66-12.34-2.21-1.78-4.41-3.57-6.51-5.48s-4.11-4-6.11-6a10 10 0 00-5-2.63c-.1-1.91-.19-3.8-1.34-5.5-1.43-2.11-2.64-4.36-4-6.49-3.5-5.32-6.8-10.8-10.65-15.86-3.54-4.66-6.42-9.44-7.34-15.31a66.64 66.64 0 00-2-8.34c-2.43-8.41-6-16.14-13-21.91a20.91 20.91 0 00-7.34-4.33c-5.7.65-11 3.14-16.79 3.44-2.6.14-4.77 1.69-6.94 3.05a21.74 21.74 0 01-3.28 1.86 2.65 2.65 0 01-1.79-.35 3.24 3.24 0 01-1.44-1.21q-4.15-8.1-8.19-16.26a7.58 7.58 0 01-.4-1.87 4.61 4.61 0 011.63-4.24c2.75-1.62 5.53-3.19 8.27-4.81.92-.54.77-2.58-.1-3.41a6.09 6.09 0 00-4.35-1.67c-5.75 0-11.51 0-17.27-.05a22.63 22.63 0 01-7.56-.93 43 43 0 00-5.61-1c-4.7-1-9.53-2-13.33-5a50.08 50.08 0 01-11.32-11.65c-3.14-4.83-7.59-8.58-10.56-13.54a10.75 10.75 0 00-3.49-3.24 13.64 13.64 0 00-3.51-1.22zm116.38-124.67c0-.29.13-.7 0-.91-2.57-3.52-5.15-7-7.78-10.51a3.78 3.78 0 00-1.5-1.11 4.22 4.22 0 00-1.77-.27c-.73 0-1.57 1.35-1.45 2.13a4.29 4.29 0 00.39 1.8 39.76 39.76 0 009.91 9.88c.34.24 1.14-.1 1.68-.28.22-.08.33-.42.52-.73z" fill="#dcc155"/>
    <path d="M1729.8 1516.66c-.14-4.47-.63-9 1.34-13.22a4.37 4.37 0 00.27-2.82c-1.23-3.95-1.5-8.14-3.22-12a17.33 17.33 0 00-7.67-8.31c-4.5-2.41-9.28-4.27-14.56-4.19-5.1.08-10.14-.17-15.15 1.56-3.87 1.34-8.63-2.39-9-6.47-.21-2.54-.12-5.11-.19-7.67 0-1.27-.09-2.55-.21-3.82a5.11 5.11 0 00-4.33-4.47c-2.23-.18-4.47-.26-6.7-.28a4.67 4.67 0 01-4.52-3c-1.72-3.9-4.53-6.92-7.59-9.77a9 9 0 00-6-2.61c-6.53-.27-12.63 1.46-18.55 3.84-3.55 1.42-6.88 3.29-10.58 4.46a28.81 28.81 0 01-8.44 1.32c-4.78.09-8.77-1.47-11.72-5.33-.58-.76-1.08-1.59-1.37-2a40 40 0 00-5.49-.29c-5.24.5-10-1.52-15-2.53a13.24 13.24 0 01-6.58-3.79c-4.64-4.67-7.85-10-8.17-16.79a9.29 9.29 0 00-.18-2.86c-2.38-6.17-1.59-12.6-1.71-19v-4.8a20.81 20.81 0 00-3.87-12.6c-4.17-5.67-4.74-11.71-2.86-18.16a22.54 22.54 0 001-6.6v-2.88c0-6.71.55-13.51-.3-20.12s-3.16-13-4.83-19.43a7.84 7.84 0 01-.27-.91c-1-7.89-5-14.16-9.7-20.39a149.83 149.83 0 00-12.68-14.28c-3.59-3.65-7.22-7.25-10.78-10.93a5 5 0 01-1.25-5.32c.8-2.42 1.65-4.83 2.51-7.23a13.81 13.81 0 00-.15-9.36c-1.53-4.58-3-9.13-6.75-12.46-3.7-6.51-9.52-11.13-14.59-16.41a37 37 0 01-5.25-6.78c-3.69-6.21-4-12.72-2.29-19.41a32.76 32.76 0 001-8.5v-9.6a31.36 31.36 0 017-19.37c3.53-4.56 7.31-8.81 11.19-13a47.65 47.65 0 008.19-12.5 10.75 10.75 0 00-.35-2.21q-4-9.23-8-18.42a5.18 5.18 0 011.3-6.12c3.81-3.87 7.67-7.71 11.48-11.58a48 48 0 004.56-4.91c.7-1 .75-2.37 1.09-3.58 2.24 0 4.48 0 6.71-.11a14.91 14.91 0 0110 2.75c3.15 2.23 6.33 4.3 10.14 5.21a5.57 5.57 0 011.74.78c8.2 5.65 17.54 9.14 26.21 13.88a20 20 0 009.12 2.47c9.6.34 18.1 3.69 24.74 10.78 4.39 4.7 9.48 8.52 14.58 12.32 3 2.25 6.69 3.65 10.13 5.3 1.71.83 3.6 1.27 5.35 2 4.47 1.92 8.59 4.3 10.71 9 4.14 4.16 6.51 9.41 9.06 14.55 1.84 3.72 3.8 7.38 5.71 11.07-3.4.81-6.81 1.54-10.18 2.43-4 1.06-7.91 2.29-11.89 3.37a9.17 9.17 0 00-4.13 2.26 16 16 0 00-4.47 8.27 4.54 4.54 0 002.14 4.88 35 35 0 003.44 1.65c10.2 4.12 13.4 10.39 10.71 21a39.37 39.37 0 01-1.17 4.61c-1.89 4.87-2 9.93-1.83 15-.37 1.2-.43 2.66-1.16 3.56q-6 7.38-11.4 15.24a81.66 81.66 0 01-7.61 9.74 59.79 59.79 0 00-6.36 8.31 53.16 53.16 0 01-8.26 10.46 6.29 6.29 0 00-1.77 4.32 19.61 19.61 0 00-2.28 1.63c-3.6 3.47-7 7.14-11.4 9.68-.72.42-1 1.5-1.57 2.28a13.77 13.77 0 00-2.92 2.39q-13 18.89-25.91 37.89a7.32 7.32 0 00-4.37 1.64 15 15 0 00-5.15 9.87c-.29 2.19.09 4.46-.16 6.66-.68 5.73 1.71 10.54 4.43 15.23a27.34 27.34 0 003 3.65l4.25 5.08a36 36 0 009.67 22.34c5.89 6.24 8.32 7.78 16.09 9.72a141.27 141.27 0 0014.06 2.55c2.2.32 4.42.32 6.58 1.11a15.09 15.09 0 004.68.81c5.1.12 10.2-.14 15.13 1.77 1.4.54 3.17.13 4.77.16a8.17 8.17 0 002.24 1.61c1.18.35 2.54.12 3.74.44 3.33.9 6.67 1.82 9.92 3 3.61 1.29 7.54.16 11.15 1.73 1.66.73 3.67.68 5.52 1a5.84 5.84 0 002.48 4.88 20 20 0 013.22 2c6.76 6.63 15.27 9.92 24 12.82 6.9 2.29 13.77 4.71 20.67 7 4.54 1.5 9 3.31 12.54 6.51 3.31 3 6.36 6.2 9.44 9.39a15.74 15.74 0 014.49 9.22 40 40 0 00-2 14 19.13 19.13 0 01-.77 6.54c-2.32 6.76-.51 6-7.82 9.76-4.24 2.15-8.47 4.3-12.76 6.34a55.88 55.88 0 01-5.3 2.1z" fill="#e9cf67"/>
    <path d="M1476.56 1251.55c3.51 2 5.44 5.23 6.84 8.87a4.66 4.66 0 01-1.43 5.17c-1.24 1-2.61 1.8-3.87 2.76a2.53 2.53 0 00-.67 3.36c.79 1 2 1.79 2.43 2.89 2.28 5.49 6.64 9.27 10.67 13.3a59.31 59.31 0 018.5 10.23c2.07 3.28 3.79 6.5 4.33 10.42.34 2.48 1.44 4.86 2.22 7.27 1 3 2 6 3 9.23-4.12 4.48-6.82 10-11.4 14a25.74 25.74 0 00-4.1 5.22 36.52 36.52 0 01-5.11 5.6 3.34 3.34 0 01-5.38-1.55 12.1 12.1 0 01-.58-2.77c-.11-1.27 0-2.54 0-3.82 1 0 1.92 0 2.87-.12a4.65 4.65 0 004.31-3.29c1-3.76 3-7 4.53-10.53a15.09 15.09 0 001.52-4.49 42.16 42.16 0 00-1.85-17.91c-2.65-7.61-8.7-11.5-15.16-15.13-4.45-.28-8.48-2.48-13.11-2.34-9.57.3-19.17.36-28.74 0-5.76-.22-10.68.78-14.69 5.16-.82.9-2.18 1.3-3.2 2.05-2.7 2-4.12 4.84-5.16 7.89a5.51 5.51 0 000 2.82c.33 1.55 1.09 3 1.25 4.58a6.62 6.62 0 01-.67 3.67c-1.44 2.63-3.57 4.5-6.79 4.6-2.55.07-5.11.07-7.66.1-.9-1.31-1.85-2.6-2.67-4a15.07 15.07 0 01-1.09-2.62 2.72 2.72 0 01-.1-1c-.06-11.83-1.16-9.72 6.85-17.59 2.25-2.21 5.07-3.83 7.53-5.84 2.12-1.72 3.32-4 2.63-6.78-1.63-6.42-3.8-7.63-9.39-4.51-2.58 1.44-4.68 3.26-5.65 6.2a12.61 12.61 0 01-2 4.25c-2.13 2.5-2.09 5.93-4.24 8.51-2 2.4-3.14 5.53-4.61 8.36s-3.08 5.62-4.26 8.58c-2 5-3.78 10.15-5.49 15.29a16.21 16.21 0 00-.53 4.73c-.08 3.51 0 7-.05 10.55a31.39 31.39 0 005.74 18.87c1.25 1.85 2.18 4.06 3.79 5.49 3.84 3.39 4.18 7.62 3.9 12.22-.18 2.93-1.23 4.12-4.14 3.32a43.93 43.93 0 00-5.65-.82 12.4 12.4 0 01-5.31-5.37c-6.28-11.49-13.64-22.31-20.44-33.47a84 84 0 01-4-7.63c-2.87-6-6.29-11.77-9.08-17.86-3-6.65-7.16-12.79-10.82-19.15s-7.35-12.69-11-19.06c-.47-.82-.78-1.75-1.23-2.6-.92-1.77-1.41-3.67-.54-5.52 1.28-2.73 1.22-5.58 1.22-8.46v-18.23a29.29 29.29 0 00-1.13-9.46 22.07 22.07 0 01-.7-6.62c-.08-6.71-.06-13.43 0-20.15 0-4.14-.38-8.33 1.45-12.26a2.19 2.19 0 00.18-.94c-.15-8.89 4-16.68 6.54-24.86 1.1-3.59 3.28-6.92 5.34-10.13 3.61-5.62 7-11.46 12-16.08 2.19-4.39 5.87-7.53 9.25-10.91 4.52-4.5 9-9 14.31-12.66 6.53-4.53 12.46-9.89 18.83-14.66 4.59-3.43 9.17-7.1 14.28-9.57 7.13-3.44 14.56-6.37 22.85-6.21 9.89.19 8.33 1 15.81-6.58.9-.9 1.81-1.8 2.74-2.68a7.28 7.28 0 015.15-2.19h11.52l34.53.12c-.21 1.57-.35 3.17-.67 4.72-.18.93-1 1.81-.93 2.69.26 6.43-2.2 12.5-2.32 18.87-.14 7.28-3.26 13.57-7 19.56a17.15 17.15 0 01-6.29 5.77c-8.61 4.84-17.87 6.47-27.62 5.72a10.36 10.36 0 01-2.78-.67c-5-1.88-10.09-1.08-15.15-.86a6.56 6.56 0 00-3.35 1.66 14.23 14.23 0 00-4.72 8.1 4.62 4.62 0 002.67 4.64 14.16 14.16 0 0010.27-.29c3.8-1.65 7.48-3.58 11.19-5.42 4-1.95 8.11-1.52 12.18-.78 1.41.25 2.66 1.64 3.88 2.64a9.72 9.72 0 013.7 8.39c-.16 3.51 0 7 0 10.54a31.6 31.6 0 001.13 9.43c1.44 4.62.9 9.47.42 14.22-.08.81-1 1.53-1.57 2.3-2.74-1.19-4.46-3.57-6.49-5.58-6.84-6.75-5.57-5.88-15.13-5.94h-1a7.35 7.35 0 00-5.23 2l-8.48 7.7v9.78c-.5 3.25-2.2 5.93-4 8.57-2.73 3.92-5.47 7.84-8 11.9-1.33 2.14-2.83 4.48-3.15 6.88a48.19 48.19 0 002.09 22.64c1.41 4 4.83 6.65 8.47 8.79a4.1 4.1 0 001.84.45c7.32.18 14.57.5 21.76-2a62 62 0 0123.42-3.74c1.8.1 3.72.04 5.64.06z" fill="#e9cf67"/>
    <path d="M1576.06 1337.94q12.93-19 25.91-37.89a13.77 13.77 0 012.92-2.39 9.8 9.8 0 002.6 1.16c5.48.68 10.23 3.23 15 5.71 2.83 1.46 5.74 2.75 8.51 4.3 4.25 2.37 9 2.91 13.64 3.91 3.64.79 7.44.13 11.23-1s6.68-3.58 9.91-5.5a7.92 7.92 0 002.39-2.89 13.57 13.57 0 002-7.25c-.09-4.77-.05-9.53 0-14.3 0-1.9-.18-4 .49-5.65 1.71-4.32 1.38-8.74 1.3-13.17 1.27-2.14 2.25-4.55 3.89-6.35a180.32 180.32 0 0012.56-16.21c1.23-1.72 3.14-3 4.74-4.43a17.26 17.26 0 019.92 5.4c4.42 4.67 9.89 8 14.85 12 1 .79 2.29 1.28 3.1 2.21 4.66 5.34 10.51 9.3 15.94 13.72 5.19 4.23 10.19 8.65 15.22 13.06 3.09 2.71 6.5 5.08 9.54 7.92 3.64 3.4 5.73 7.66 7.51 12.11a10.38 10.38 0 01-.24 8.4c-2.73 5.76-5 11.83-10.07 16.13-3 5.3-8 9-11 14.39-.58 1-1.91 1.62-2.89 2.42a27.48 27.48 0 01-3.36-3.09c-2.86-3.63-5.55-7.39-8.34-11.06-.66-.86-2.66-.58-3.29.39a12.31 12.31 0 00-2.37 6c-1.2.37-2.69.41-3.56 1.17-4.09 3.57-8.29 7.12-11.29 11.67a43.11 43.11 0 01-5.46 6.62c-3.61 3.63-7.13 7.35-10.87 10.83-5.2 4.83-9.77 10.07-12.46 16.76a17.18 17.18 0 01-6.09 7.25 8.27 8.27 0 01-3.5 1.32c-5.43.83-12.38-3.26-14-8s-4.67-9-6.85-13.59c-1.83-3.85-5-6.64-7.51-9.87a13.43 13.43 0 00-6.25-4.24 20.85 20.85 0 00-12.29-.06 26.36 26.36 0 00-11.55 6.56c-3.34 3.44-6.8 6.76-10.22 10.12a7.13 7.13 0 01-5.25 1.92 12 12 0 01-5.56-1.15c-5.65-2.76-9.51-7.38-13.1-12.32-2.79-7.52-6.42-14.75-5.8-23.04z" fill="#fcf1b5"/>
    <path d="M1455.16 1664.23l-84.3.09c-14.37 0-28.74-.08-43.1.09a18.13 18.13 0 01-13.68-5.66c-3.18-3.16-3.89-7.29-4.69-11.27a16.46 16.46 0 01.56-9.46c1.25-3.07 1.14-6.24 1.14-9.43v-36.4c0-2.55.11-5.11 0-7.66-.12-3.08 1.7-4.67 4.19-5.72 2.64-1.12 5.36-2 8-3.11 10.59-4.36 21.41-8.12 32.1-12.22a28.52 28.52 0 013.7-.9c1.59 8.7 7.23 14.67 13.67 20a9.4 9.4 0 004.21 2.17c5.49.88 10.81 4.35 16.62 1.19a4.88 4.88 0 012.82-.32c3.66.47 6.83-1.26 10.21-2.08q5.25 5.54 10.5 11.05a11.81 11.81 0 004.93 2.71c13.75 4.91 27.92 8.62 41.37 14.39a12.72 12.72 0 001.82.55c8 2 15.94 4.18 24 5.8a10.84 10.84 0 018.06 5.9c-3.23 4.64-7.21 8.67-10.52 13.27a32.16 32.16 0 01-6.73 6.6c-5 3.79-10.23 7.29-15.39 10.86-2.33 1.61-4.74 3.11-7.1 4.67a5.55 5.55 0 00-2.39 4.89z" fill="#efd97e"/>
    <path d="M1455.16 1664.23a5.55 5.55 0 012.43-4.85c2.36-1.56 4.77-3.06 7.1-4.67 5.16-3.57 10.39-7.07 15.39-10.86a32.16 32.16 0 006.73-6.6c3.31-4.6 7.29-8.63 10.52-13.27 6-.09 12.1.42 18-1.49a12.91 12.91 0 013.8-.25c4.45 0 8.91-.12 13.37-.07a18.06 18.06 0 015.67.53c3.72 1.28 7.52 1.19 11.33 1.33 2.23.07 4.6-.27 6.65.39 5.91 1.9 12 1.48 18 1.66 1 .74 1.95 1.56 3 2.2a8.67 8.67 0 009 .23c1.68-.88 3.39-1.71 5.1-2.56a6.48 6.48 0 004-6c.08-4.43.13-8.87.19-13.3 1.5.45 3 .85 4.5 1.38a4.81 4.81 0 005.27-.92c2.78-2.58 5.47-5.26 8.2-7.88a7.19 7.19 0 015.13-2.09c4.74 0 9.49.19 14.22-.05 7.42-.39 14.23-2.46 19.6-8 2-2 3.71-4.35 6.5-5.4a15.06 15.06 0 012.78 2.54 24.56 24.56 0 012.65 5.08c2.12 5.59 6.43 9.43 10.59 13.37a7.63 7.63 0 003.26 1.86c4.17 1 7.6 3.32 10.87 5.85 7.57 5.85 14.8 12.06 19.37 20.76.73 1.4 1.74 2.65 2.57 4 4.72 7.66 7.53 16.11 10.21 24.62.19.62-.86 2-1.51 2.15s-1.24.29-1.86.34c-1 .06-1.92 0-2.87 0h-54.55c-1.91 0-3.82-.18-5.73-.27a14 14 0 012-7.29c2.42-4.11 2.18-8.57 1.65-13a5.24 5.24 0 00-4.66-4.14 20.29 20.29 0 00-9.4 1.11 37.51 37.51 0 01-9.19 2.45c-3.79.42-7.67.07-11.26 1.76-6.73-.28-13.23 1.55-19.86 2.22-1.9.19-4 0-5.66.65-3.72 1.48-7.54 1.3-11.35 1.26s-7.3 2.41-11.25 1.94a14.49 14.49 0 00-2.87 0 8.27 8.27 0 00-2.84.37c-3.32 1.5-6.82 1.43-10.33 1.55a12.07 12.07 0 00-4.62 1c-4.63 2.17-9.17 4.51-13.69 6.88-1.22.64-1.51 2-1.62 3.28-1.89.09-3.79.24-5.69.24q-39.4 0-78.84-.04zM1406.63 1583.58c-3.37.82-6.54 2.55-10.2 2.08a4.88 4.88 0 00-2.82.32c-5.81 3.16-11.13-.31-16.62-1.19a9.4 9.4 0 01-4.21-2.17c-6.44-5.37-12.08-11.34-13.67-20 .2-.24.35-.6.61-.72 2.88-1.32 5.75-2.64 8.65-3.88s5.89-2.39 8.82-3.62c1.18-.49 2.32-1.06 3.45-1.66a6.12 6.12 0 003.1-3.47c2.42-7.24 4.91-14.47 7.16-21.77a26.25 26.25 0 00.79-6.59c.19-4.76 0-9.47 1.47-14.19.92-2.93.41-6.32.49-9.5.09-3.5.06-7 1.15-10.4.74-2.36.63-5 .72-7.56.22-5.7-.52-11.49 1.68-17 .25-4.45.81-8.91-.79-13.25a16.31 16.31 0 01-.71-2.77c-1.34-7.16-2.12-14.42-3.86-21.51a54.3 54.3 0 01-1.87-10.28c-.15-3.57-1.14-6.87-1.89-10.28a24.41 24.41 0 01-.16-4.77 13.64 13.64 0 013.58 1.14 10.75 10.75 0 013.49 3.24c3 5 7.42 8.71 10.56 13.54a50.08 50.08 0 0011.32 11.65c3.8 3 8.63 4 13.33 5a43 43 0 015.61 1 22.63 22.63 0 007.56.93c5.76 0 11.52 0 17.27.05a6.09 6.09 0 014.35 1.67c.87.83 1 2.87.1 3.41-2.74 1.62-5.52 3.19-8.27 4.81a4.61 4.61 0 00-1.63 4.24 7.58 7.58 0 00.4 1.87q4 8.14 8.19 16.26a3.24 3.24 0 001.44 1.21 2.65 2.65 0 001.79.35 21.74 21.74 0 003.28-1.86c2.17-1.36 4.34-2.91 6.94-3.05 5.79-.3 11.09-2.79 16.79-3.44a20.91 20.91 0 017.34 4.33c7 5.77 10.52 13.5 13 21.91a66.64 66.64 0 012 8.34c.92 5.87 3.8 10.65 7.34 15.31 3.85 5.06 7.15 10.54 10.65 15.86 1.4 2.13 2.61 4.38 4 6.49 1.15 1.7 1.24 3.59 1.34 5.5-4.71-2.28-7.86-6.31-11-10.24a123.72 123.72 0 00-17.81-18.35c-3.92-5.69-9.06-10.54-11.92-17 .67-6-.54-12.13 1.83-18 .29-.74-.19-1.87-.49-2.76-1.3-3.71-4.15-5.55-7.86-6.09a54.42 54.42 0 00-5.72-.14 8.05 8.05 0 00-6 2.39c-3 2.85-5.79 6-9.14 8.37a79.93 79.93 0 00-8 6.75c-3.5 3.25-6.55 7-10.56 9.67a12.81 12.81 0 00-1.92 2.09c-5.78 6.34-10.43 13.65-16.8 19.48a23.26 23.26 0 00-2.26 3.06c-3.54 4.48-6.84 9.18-10.7 13.36-4.11 4.45-8 9-11.77 13.75a14.48 14.48 0 00-2 11.7c1.67 3.61 1.18 7.52 1.85 11.26a38 38 0 01-1.45 8 44.94 44.94 0 00-1.34 7.12z" fill="#e9cf67"/>
    <path d="M1576.06 1337.94c-.62 8.29 3 15.52 5.76 23 3.59 4.94 7.45 9.56 13.1 12.32a12 12 0 005.56 1.15 7.13 7.13 0 005.25-1.92c3.42-3.36 6.88-6.68 10.22-10.12a26.36 26.36 0 0111.55-6.56 20.85 20.85 0 0112.29.06 13.43 13.43 0 016.25 4.24c2.54 3.23 5.68 6 7.51 9.87 2.18 4.57 5.16 8.73 6.85 13.59s8.6 8.88 14 8a8.27 8.27 0 003.5-1.32 17.18 17.18 0 006.1-7.25c2.69-6.69 7.26-11.93 12.46-16.76 3.74-3.48 7.26-7.2 10.87-10.83a43.11 43.11 0 005.46-6.62c3-4.55 7.2-8.1 11.29-11.67.87-.76 2.36-.8 3.56-1.17a35.83 35.83 0 01-.8 3.7c-1.47 4.52-3.31 8.95-4.49 13.55-3.53 13.82-1.7 9.69-10.95 19.27-1.55 1.6-3.19 3.11-4.66 4.78a16.33 16.33 0 00-4 12.34c.21 3.64 2.68 5.6 4.86 7.88.65.69 1.35 1.34 2.07 2a8.88 8.88 0 0011.37-.27 44.37 44.37 0 004.41-5c1.36-1.75 2.43-3.73 3.79-5.48 3.25-4.19 7.19-7.13 12.88-6.66.95.08 1.91 0 2.87 0 .43.44 1.07.81 1.25 1.33 2.89 8.5 6.14 16.88 8.36 25.6a11.14 11.14 0 01-2.07 1.89c-2.78 1.5-5.64 2.85-8.47 4.28q-5.5 2.79-11 5.6a6 6 0 00-3.39 5.32c0 .64-.07 1.27-.07 1.9 0 5.42-1.7 5.94-6.28 5.91-1.58 0-3.32.25-4.71-.3-5.36-2.16-11.35-1-16.64-3.35-6.89-.79-13.59-2.54-20.36-4-1.85-.31-3.86-.26-5.52-1-3.61-1.57-7.54-.44-11.15-1.73-3.25-1.16-6.59-2.08-9.92-3-1.2-.32-2.56-.09-3.74-.44a8.37 8.37 0 01-2.25-1.61 8.47 8.47 0 00-3.71-8.23c-5.2-3.68-10.62-6.74-17.23-7.23-4.07-.3-8-1.61-12.06-2.31-7-1.21-12.85-5.17-18.33-9.56-5.21-4.17-11.16-7.14-16.88-10.49a9.29 9.29 0 00-2.76-.64l-4.25-5.08a27.34 27.34 0 01-3-3.65c-2.72-4.69-5.11-9.5-4.43-15.23.25-2.2-.13-4.47.16-6.66a15 15 0 015.15-9.87 7.32 7.32 0 014.37-1.57z" fill="#f6e69c"/>
    <path d="M1656.7 1232.44c-.15-5.11-.06-10.17 1.83-15a39.37 39.37 0 001.17-4.61c2.69-10.66-.51-16.93-10.71-21a35 35 0 01-3.44-1.65 4.54 4.54 0 01-2.14-4.88 16 16 0 014.47-8.27 9.17 9.17 0 014.13-2.26c4-1.08 7.91-2.31 11.89-3.37 3.37-.89 6.78-1.62 10.18-2.43 5.89 1 10 5.17 14.64 8.35 2.76 3.79 6.19 7.21 6.58 12.29.17 2.18 2 4.17 1.18 6.42-1.19 3.32-.87 6.92-2 10.18-2.12 6.26-3.67 12.77-7.31 18.43a21.24 21.24 0 00-9.08 1.77c-4.26 1.87-8.82 3.07-13.15 4.81a25 25 0 01-8.24 1.22z" fill="#dcc155"/>
    <path d="M1681.63 1426.28c6.77 1.41 13.47 3.16 20.36 4 5.29 2.36 11.28 1.19 16.64 3.35 1.39.55 3.13.29 4.71.3 4.58 0 6.29-.49 6.28-5.91 0-.63 0-1.26.07-1.9a6 6 0 013.39-5.32q5.49-2.82 11-5.6c2.83-1.43 5.69-2.78 8.47-4.28a11.14 11.14 0 002.07-1.89 4.71 4.71 0 01.84.42c3.24 2.54 7 5 8.18 8.94a25.27 25.27 0 010 14.06 45.33 45.33 0 00-1.34 12.16v27.5a6.26 6.26 0 01-3.78 6 15.74 15.74 0 00-4.49-9.22c-3.08-3.19-6.13-6.44-9.44-9.39-3.59-3.2-8-5-12.54-6.51-6.9-2.29-13.77-4.71-20.67-7-8.74-2.9-17.25-6.19-24-12.82a20 20 0 00-3.22-2 5.84 5.84 0 01-2.53-4.89zM1656.7 1232.44a25 25 0 008.27-1.31c4.33-1.74 8.89-2.94 13.15-4.81a21.24 21.24 0 019.08-1.77c2.58 1.74 3.82 4.56 5.33 7.07.7 1.17.45 2.9.63 4.37-1.6 1.45-3.51 2.7-4.74 4.42a180.32 180.32 0 01-12.56 16.21c-1.64 1.8-2.62 4.21-3.89 6.35a24.34 24.34 0 00-3.83.17 21.63 21.63 0 00-4.52 1.37c-2.54 1.08-3.38 3-2.43 5.37.48 1.18 1.07 2.32 1.57 3.5 2.91 6.89 2 10.37-3.76 15a8.53 8.53 0 01-4.43 1.54c-4.34.6-8.11-1.37-12.09-2.43-5.07-3.39-10.78-3.58-16.59-3.36-1.91.07-3.83 0-5.75-.07a6.29 6.29 0 011.77-4.32 53.16 53.16 0 008.26-10.46 59.79 59.79 0 016.36-8.31 81.66 81.66 0 007.61-9.74q5.37-7.87 11.4-15.24c.73-.89.79-2.35 1.16-3.55z" fill="#efd97e"/>
    <path d="M1539.72 1664c.11-1.31.4-2.64 1.62-3.28 4.52-2.37 9.06-4.71 13.69-6.88a12.07 12.07 0 014.62-1c3.51-.12 7-.05 10.33-1.55a8.27 8.27 0 012.84-.37 14.49 14.49 0 012.87 0c4 .47 7.36-2 11.25-1.94s7.63.22 11.35-1.26c1.7-.68 3.76-.46 5.66-.65 6.63-.67 13.13-2.5 19.86-2.22 3.59-1.69 7.47-1.34 11.26-1.76a37.51 37.51 0 009.19-2.45 20.29 20.29 0 019.4-1.11 5.24 5.24 0 014.66 4.14c.53 4.47.77 8.93-1.65 13a14 14 0 00-2 7.29c-2.23.07-4.47.2-6.7.2H1545.5c-1.95.05-3.86-.07-5.78-.16z" fill="#dcc155"/>
    <path d="M1745 1382.05c-1 0-1.92.1-2.87 0-5.69-.47-9.63 2.47-12.88 6.66-1.36 1.75-2.43 3.73-3.79 5.48a44.37 44.37 0 01-4.41 5 8.88 8.88 0 01-11.37.27c-.72-.63-1.42-1.28-2.07-2-2.18-2.28-4.65-4.24-4.86-7.88a16.33 16.33 0 014-12.34c1.47-1.67 3.11-3.18 4.66-4.78 9.25-9.58 7.42-5.45 10.95-19.27 1.18-4.6 3-9 4.49-13.55a35.83 35.83 0 00.8-3.7 12.31 12.31 0 012.37-6c.63-1 2.63-1.25 3.29-.39 2.79 3.67 5.48 7.43 8.34 11.06a27.48 27.48 0 003.36 3.09q-.01 19.2-.01 38.35zM1399.48 1318.79c2.55 0 5.11 0 7.66-.1 3.22-.1 5.35-2 6.79-4.6a6.62 6.62 0 00.67-3.67c-.16-1.56-.92-3-1.25-4.58a5.51 5.51 0 010-2.82c1-3 2.46-5.91 5.16-7.89 1-.75 2.38-1.15 3.2-2.05 4-4.38 8.93-5.38 14.69-5.16 9.57.38 19.17.32 28.74 0 4.63-.14 8.66 2.06 13.11 2.34 6.46 3.63 12.51 7.52 15.16 15.13a42.16 42.16 0 011.85 17.91 15.09 15.09 0 01-1.52 4.49c-1.53 3.5-3.54 6.77-4.53 10.53a4.65 4.65 0 01-4.31 3.29c-.95.11-1.92.09-2.87.12-.15-3.2-1.93-5.27-4.63-6.72-.75-.41-2.24 0-2.44.79-1.46 5.51-3 11-4.34 16.56-.93 3.69-1.39 7.53-2.62 11.12a25.22 25.22 0 00-1.39 8.43 7.47 7.47 0 01-3.36 6.53 80.16 80.16 0 01-10.6 6.42 41.89 41.89 0 01-9.13 2.57 12.46 12.46 0 01-4.75.12 47.22 47.22 0 01-9.24-2.25 53 53 0 01-20.36-13.84 25.08 25.08 0 01-2.56-4c-3.77-6.36-6-13.34-8.22-20.33a7.05 7.05 0 01-.56-1.82c-.14-7-1.15-14 .72-20.91.45-1.82.61-3.73.93-5.61z" fill="#efd97e"/>
    <path d="M1476.56 1251.55c-1.92 0-3.84 0-5.75-.06a62 62 0 00-23.42 3.74c-7.19 2.45-14.44 2.13-21.76 2a4.1 4.1 0 01-1.84-.45c-3.64-2.14-7.06-4.82-8.47-8.79a48.19 48.19 0 01-2.09-22.64c.32-2.4 1.82-4.74 3.15-6.88 2.52-4.06 5.26-8 8-11.9 1.84-2.64 3.54-5.32 4-8.58 4.41-.36 8.93.29 13.17-1.63a4.11 4.11 0 012.77.18 20.88 20.88 0 014.29 2c2.83 1.82 4.62 4.28 4.55 7.87-.06 2.86 0 5.73.14 8.59a3.6 3.6 0 003.51 3.75c5.73.14 11.46.2 17.19.3.1 3.11.19 6.23.29 9.34.06 1.56-.29 3.27.24 4.65 2.32 6.02 1.13 12.37 2.03 18.51zM1510.91 1510.54a123.72 123.72 0 0117.81 18.35c3.12 3.93 6.27 8 11 10.24a10 10 0 015 2.63c2 2 4 4.06 6.11 6s4.3 3.7 6.51 5.48c4.45 3.58 8.57 7.41 11.66 12.34 3.69 5.89 7.62 11.63 11.6 17.33s8 11.32 12.31 16.81a12.57 12.57 0 012.57 7c-.06 4.43-.11 8.87-.19 13.3a6.48 6.48 0 01-4 6c-1.71.85-3.42 1.68-5.1 2.56a8.67 8.67 0 01-9-.23c-1.06-.64-2-1.46-3-2.2-2-4-3.8-8-6.42-11.7a141.4 141.4 0 01-7.33-12.27c-3.74-6.65-7.35-13.38-11.1-20-1.7-3-3.44-6-4.87-9.2-1.79-4-4.56-7.62-6.85-11.43-3-4.89-6.17-9.67-8.72-14.77-4.42-8.84-9.66-17.17-14.84-25.56-3.15-3.02-3.58-6.72-3.15-10.68z" fill="#f6e69c"/>
    <path d="M1474 1219.05c-5.73-.1-11.46-.16-17.19-.3a3.6 3.6 0 01-3.51-3.75c-.11-2.86-.2-5.73-.14-8.59.07-3.59-1.72-6.05-4.55-7.87a20.88 20.88 0 00-4.29-2 4.11 4.11 0 00-2.77-.18c-4.24 1.92-8.76 1.27-13.17 1.63v-9.66l8.48-7.7a7.35 7.35 0 015.23-2h1c9.56.06 8.29-.81 15.13 5.94 2 2 3.75 4.39 6.49 5.58.2 2.77 1.4 4.75 4.21 5.59a12 12 0 013.47 1.38c2.43 1.69 4.06 4 3.82 7.13a10.75 10.75 0 01-.46 3.72c-1.75 3.52-1.27 7.35-1.75 11.08z" fill="#efd97e"/>
    <path d="M1504.3 1274.69c-.19.27-.31.65-.54.73-.54.18-1.34.52-1.68.28a39.76 39.76 0 01-9.91-9.88 4.29 4.29 0 01-.39-1.8c-.12-.78.72-2.09 1.45-2.13a4.22 4.22 0 011.77.27 3.78 3.78 0 011.5 1.11c2.63 3.48 5.21 7 7.78 10.51.15.22.02.62.02.91z" fill="#e9cf67"/>
    <path d="M1620.14 1284.07c1.92 0 3.84.14 5.75.07 5.81-.22 11.52 0 16.59 3.36 4 1.06 7.75 3 12.09 2.43a8.53 8.53 0 004.43-1.54c5.79-4.64 6.67-8.12 3.76-15-.5-1.18-1.09-2.32-1.57-3.5-1-2.32-.11-4.29 2.43-5.37a21.63 21.63 0 014.52-1.37 24.34 24.34 0 013.83-.17c.08 4.43.41 8.85-1.3 13.17-.67 1.69-.47 3.75-.49 5.65-.07 4.77-.11 9.53 0 14.3a13.57 13.57 0 01-2 7.25 7.92 7.92 0 01-2.39 2.89c-3.23 1.92-6.09 4.36-9.91 5.5s-7.59 1.8-11.23 1c-4.59-1-9.39-1.54-13.64-3.91-2.77-1.55-5.68-2.84-8.51-4.3-4.78-2.48-9.53-5-15-5.71a9.8 9.8 0 01-2.6-1.16c.52-.78.85-1.86 1.57-2.28 4.4-2.54 7.8-6.21 11.4-9.68a19.61 19.61 0 012.27-1.63z" fill="#f6e69c"/>
    <path d="M1578.08 1380.07a9.29 9.29 0 012.76.64c5.72 3.35 11.67 6.32 16.88 10.49 5.48 4.39 11.3 8.35 18.33 9.56 4 .7 8 2 12.06 2.31 6.61.49 12 3.55 17.23 7.23a8.47 8.47 0 013.71 8.23c-1.59 0-3.36.38-4.76-.16-4.93-1.91-10-1.65-15.13-1.77a15.09 15.09 0 01-4.68-.81c-2.16-.79-4.38-.79-6.58-1.11a141.27 141.27 0 01-14.06-2.55c-7.77-1.94-10.2-3.48-16.09-9.72a36 36 0 01-9.67-22.34z" fill="#efd97e"/>
    <path d="M1510.91 1510.54c-.43 4 0 7.66 3.09 10.58 5.18 8.39 10.42 16.72 14.84 25.56 2.55 5.1 5.76 9.88 8.72 14.77 2.29 3.81 5.06 7.4 6.85 11.43 1.43 3.21 3.17 6.17 4.87 9.2 3.75 6.65 7.36 13.38 11.1 20a141.4 141.4 0 007.33 12.27c2.62 3.68 4.4 7.73 6.42 11.7-6-.18-12.07.24-18-1.66-2.05-.66-4.42-.32-6.65-.39-3.81-.14-7.61 0-11.33-1.33a18.06 18.06 0 00-5.67-.53c-4.46-.05-8.92 0-13.37.07a12.91 12.91 0 00-3.8.25c-5.9 1.91-12 1.4-18 1.49a10.84 10.84 0 00-8.06-5.9c-8.07-1.62-16-3.83-24-5.8a12.72 12.72 0 01-1.82-.55c-13.45-5.77-27.62-9.48-41.37-14.39a11.81 11.81 0 01-4.93-2.71q-5.27-5.51-10.5-11.05a43.82 43.82 0 011.32-7.1 38 38 0 001.45-8 6.16 6.16 0 004.7-2.87c2.27-3.82 4.49-7.66 6.8-11.44 3.14-5.13 6.43-10.18 9.5-15.35 4.21-7.08 8.31-14.22 12.91-21.07a31.72 31.72 0 002.51-4c2.23-4.72 5.23-8.68 10-11.12a10.39 10.39 0 003-2.36c2.54-2.94 5.91-4.78 9-7 4.38-3.12 8.85-6.13 13.13-9.39a10.09 10.09 0 017.16-1.9 5.36 5.36 0 014.72 2.76c1.17 2.23 2 4.64 3.07 6.93.59 1.29 1.87 1.6 3.12 1.88 2.83 6.48 7.98 11.33 11.89 17.02z" fill="#fcf1b5"/>
    <path d="M1499 1493.55c-1.25-.28-2.53-.59-3.12-1.88-1.06-2.29-1.9-4.7-3.07-6.93a5.36 5.36 0 00-4.72-2.76 10.09 10.09 0 00-7.16 1.9c-4.28 3.26-8.75 6.27-13.13 9.39-3.09 2.2-6.46 4-9 7a10.39 10.39 0 01-3 2.36c-4.77 2.44-7.77 6.4-10 11.12a31.72 31.72 0 01-2.51 4c-4.6 6.85-8.7 14-12.91 21.07-3.07 5.17-6.36 10.22-9.5 15.35-2.31 3.78-4.53 7.62-6.8 11.44a6.16 6.16 0 01-4.7 2.87c-.67-3.74-.18-7.65-1.85-11.26a14.48 14.48 0 012-11.7c3.76-4.73 7.66-9.3 11.77-13.75 3.86-4.18 7.16-8.88 10.7-13.36a23.26 23.26 0 012.26-3.06c6.37-5.83 11-13.14 16.8-19.48a12.81 12.81 0 011.92-2.09c4-2.69 7.06-6.42 10.56-9.67a79.93 79.93 0 018-6.75c3.35-2.37 6.14-5.52 9.14-8.37a8.05 8.05 0 016-2.39 54.42 54.42 0 015.72.14c3.71.54 6.56 2.38 7.86 6.09.3.89.78 2 .49 2.76-2.3 5.83-1.09 11.99-1.75 17.96z" fill="#f6e69c"/>
</svg>