<svg viewBox="0 0 512 512"
    xmlns="http://www.w3.org/2000/svg">
    <path d="M437 0h-85l-35 17-35-17h-85c-8.284 0-15 6.716-15 15v180c0 8.284 6.716 15 15 15h240c8.284 0 15-6.716 15-15V15c0-8.284-6.716-15-15-15z" fill="#ffc178"/>
    <path d="M437 210c8.284 0 15-6.716 15-15V15c0-8.284-6.716-15-15-15h-85l-35 17v193z" fill="#ff9d21"/>
    <path d="M282 0v101.937c0 10.252 12.025 15.783 19.81 9.111L317 98.027l15.19 13.02c7.784 6.672 19.81 1.141 19.81-9.111V0z" fill="#0d8ebc"/>
    <path d="M317 98.027l15.19 13.02c7.784 6.672 19.81 1.141 19.81-9.111V0h-35z" fill="#0a617d"/>
    <path d="M467 180h-37.5l-30 17-30-17H317c-8.284 0-15 6.716-15 15v160c0 8.284 6.716 15 15 15h150c8.284 0 15-6.716 15-15V195c0-8.284-6.716-15-15-15z" fill="#ffc178"/>
    <path d="M264.5 180l-30 26-30-26H137v190h180V180z" fill="#ffe278"/>
    <path d="M137 370c-8.284 0-15-6.716-15-15V80c0-8.284 6.716-15 15-15s15 6.716 15 15v275c0 8.284-6.716 15-15 15z" fill="#ff3838"/>
    <path d="M122 355v102c0 8.284 6.716 15 15 15h360c8.284 0 15-6.716 15-15V355z" fill="#ff7d47"/>
    <path d="M317 472h180c8.284 0 15-6.716 15-15V355H317z" fill="#ff3838"/>
    <circle cx="417" cy="457" fill="#0a617d" r="55"/>
    <circle cx="417" cy="457" fill="#e2dff4" r="25"/>
    <circle cx="217" cy="457" fill="#0d8ebc" r="55"/>
    <circle cx="217" cy="457" fill="#f6f9f9" r="25"/>
    <path d="M107 20H30C13.431 20 0 33.431 0 50c0 16.569 13.431 30 30 30h122V65c0-24.853-20.147-45-45-45z" fill="#0d8ebc"/>
    <path d="M429.5 180h-60v61.315c0 7.987 8.901 12.751 15.547 8.32L399.5 240l14.453 9.635c6.646 4.43 15.547-.334 15.547-8.32z" fill="#0a617d"/>
    <path d="M264.5 180h-60v61.315c0 7.987 8.901 12.751 15.547 8.32L234.5 240l14.453 9.635c6.646 4.43 15.547-.334 15.547-8.32z" fill="#0d8ebc"/>
</svg>