<svg id="Layer_1" data-name="Layer 1"
    xmlns="http://www.w3.org/2000/svg" viewBox="0 0 600.1 109.33">
    <defs>
        <style>
        .cls-1{fill:#8752F6;}
        .cls-3{fill:#BDA8F0;}
        .cls-2{fill:#DB5654;}
        .cls-4{fill:#E5908F;}
        </style>
    </defs>
    <path class="cls-1" d="M564.13,42.14l17.67.23c4.65-.58,9.14.27,13.6,1.45,1.77.47,3.54,1,4.54,2.72q.09,31.35.16,62.7-297.75,0-595.5.09c-3.74,0-4.65-.84-4.6-4.59C.24,88.57.1,72.4.1,56.24c2.77-1.91,5.52-.34,8.14.24A171.78,171.78,0,0,1,65.63,81q4.38,2.86,8.69,5.82c5.2,3.56,5.16,3.53,9.87-1A122.79,122.79,0,0,1,103,71.05c13.77-7.46,28.29-12.73,44-13.66,21.13-1.26,40.84,2.8,57.07,17.5,3.18,2.89,5.36,2.83,8.53.32,8.56-6.75,18.27-11.56,28.07-16.22a29.86,29.86,0,0,1,11.48-2.69l9-2.07c2.83-2.4,6.24-1.33,9.42-1.5,2.44-.13,4.88-.35,7.33-.4a89.92,89.92,0,0,1,40.28,17.56c2.71,2.1,4.7,2,7.43-.21C339.07,59,353.72,50.19,370.25,44.85c7.84-2.56,15.72-4.9,24.1-4.5l4.75-.27c1.62-.81,3.49.19,5.09-.74h0c3.06-1.59,6.37-1.63,9.69-1.43A166.33,166.33,0,0,1,500.8,68.08c3.53,2.47,5.84,2.46,8.89-.77,12.1-12.84,27.14-20.65,44.21-24.66C557.22,41.87,560.64,40.65,564.13,42.14Z"/>
    <path class="cls-2" d="M103.15,72.21C95.75,77.78,88.1,83.05,81.89,90c-1.7,1.9-3.12,1.88-5.06.41A185.28,185.28,0,0,0,26.46,63,149.48,149.48,0,0,0,.1,56.24v-8c1.46-.3,2.95-.93,4.38-.83,4.63.35,7.36-1.29,7.43-6.24a2,2,0,0,1,2.35-.05l0,0a.77.77,0,0,1-.16,1.27c-2.42.16-1.78,2.12-1.66,3.36s1.49,1.08,2.48,1.05c10.85-.32,21.4,1.9,32,3.6a22.26,22.26,0,0,1,7.3.71c10.47,3.31,20.92,6.66,31,11.06C89.6,64,93.9,66.11,98.3,68,100.25,68.84,102.94,69.2,103.15,72.21Z"/>
    <path class="cls-3" d="M103.15,72.21C97.53,68.4,90.92,66.59,85,63.31c.3-1.88,1.79-2.7,3.18-3.59a178.07,178.07,0,0,1,44.67-20.36c2.77-.83,5.58-.21,8.28-1,15.41-3.17,31-3.8,46.64-3,4.45.24,8.5.39,11.85-3.27-1.54-1.24-3.44,1.13-4.81-1.15,1.41-1.63,4.26.29,5.46-1.89-.59-1.66-2.52-.11-3.31-1.41,1.87-1,5.15-.43,5.28-3.49.08-1.85-2.38-.14-3.37-1.59,2.27-.63,5-.16,6.48-3-.41,3.17.77,5.6,2.06,8.13-2.37.4-1.87-2-2.95-2.69-1.89.48-1.62,2.21,1,6.65-1.6,1.18-2.2-2.13-3.87-.8-.61,2,2.06,2.87,1.79,4.83-1.26.93-1.82-1.3-3.22-.65.06,2.82,2.6,2.69,4.23,3a129.19,129.19,0,0,1,41.21,15.86c2,1.17,4,2.45,6.46,2.38C237,60.84,223.55,68.64,211,78c-1.73,1.28-2.87,2.65-5.26.25-16.21-16.32-36.55-20.74-58.61-19.43a95.46,95.46,0,0,0-41.62,12.61A11.85,11.85,0,0,1,103.15,72.21Z"/>
    <path class="cls-3" d="M564.13,42.14c-22.42,3-41.57,12.39-56.72,29.36-2.05,2.29-3,.65-4.38-.32A171.74,171.74,0,0,0,440.3,42.84c-11.91-2.7-24-3.21-36.14-3.49,2-2.5,5.12-3,7.85-4,15.83-6.09,32-10.71,49-12.13,2.46-2.34,5.51.7,8.06-.86,32.66-2.1,63.56,4.87,93.21,18.19A8.12,8.12,0,0,1,564.13,42.14Z"/>
    <path class="cls-4" d="M394.35,40.35,370.45,46a13.63,13.63,0,0,1-4.73-1.42c-27.92-14.45-54.57-10.26-80.41,5.53-1.13.69-2.22,1.46-3.38,2.12a6.46,6.46,0,0,1-1.42.63,3.38,3.38,0,0,1-1.55,0c-5.81,2.32-11.94.56-17.86,1.4-2.51-1.4-5.69-1.82-7-5-1.18-2.88-1.9-5.82.12-8.5a8.09,8.09,0,0,1,8.38-3.16c3.23.61,6.41,1.49,10.15,2.39-1.23-4.78-4.1-10.15,2.69-12.57,5.2-1.85,7.57.66,13.07,12.44-.23-5.35,6.73-7,5.94-12.62l7.36-1.39c2,.24,4.34,1.61,5.3-1.6h0a19,19,0,0,0,2.95,1.83c1.69.67,3.47,1.09,5.27,1.63,1-1.7-.76-2.38-1.15-3.48-1.28-3.5-1.77-6.87,1.25-9.7s6.55-3,10.21-1.47a33.44,33.44,0,0,1,10.21,7.2c.19-2.9.33-4.94.46-7,1.93-.15,1.17,5.57,4.35,1.53.84,2-.85,3.08-.86,4.64,1,1.4,2.4-1,3.46.28-.05.25,0,.62-.19.8-1.14,1.16-5.32.72-2.27,4.08,1.94,2.13,3,7.35,7.17,4.19,12.54-9.45,24.37-5.67,36.15,1.15,3.13,1.81,6.33,3.69,8.74,6.54,1,1.16,3.17,2.46-.45,3C392,39.49,392.07,39.8,394.35,40.35Z"/>
    <path class="cls-4" d="M141.17,38.33c-12.69,3.85-25.36,7.74-37.2,13.92C97.48,55.63,91.23,59.42,85,63.31c-12.49-5-25.23-9.19-38.14-12.94,5.15-4.06,16.49-4.5,22.47-.06,3.28,2.43,3.82.93,4.43-1.65a11.94,11.94,0,0,1,4.84-7.33c2.79-1.92,6.25-2.1,7.76,1.12,2,4.17,3.22,1.77,4.79.17A48.82,48.82,0,0,1,116.08,28.8c8.2-1.8,15,1.12,20.64,7C138.08,37.22,139.14,38.41,141.17,38.33Z"/>
    <path class="cls-4" d="M599.94,46.54,581.8,42.37c.73-.31,2.16,0,.6-1.58-5.8-5.77-5.6-9.33,1-14.39a2.11,2.11,0,0,0,.66-2.74c-5.5-.38.11-2.75-.82-4-.67.09-2,.44-2.09.24-.74-1.7,1.91-2,1.62-3.65-.81-1-1.92.68-2.89-.69,4.68-2.25-.64-6.35,1.58-9.34,3.82,2,4.16,2.29,3.32,3.34-2.1,2.59,4.11,2,1.65,5-1,1.21,1.93,1.22,3,2.4l-3.47.59c-.06,2.27,2.72,1.65,3.19,3.39-1.37.58-3.27.53-3.08,2.92a3.7,3.7,0,0,0,2.81,3.57,29.24,29.24,0,0,1,5.63,3.11c4.21,2.83,4.18,2.88,5.43-3.51Z"/>
    <path class="cls-4" d="M307.11,24.24c-2-2.07-4.76-2-7.28-2.3-.44-2.39,2.21-1.06,2.47-2.51-.9-2-3-.65-4.34-1.51-.64-1.44,2.15-1.44,1.25-2.78-1.12-1.69-2.69-.3-4.23-.21-.47-1.7,2.62-1.67,1.71-3.51-.29-.58-.43-2.27.65-1.14,3.06,3.17,3.11-1.07,4.68-1.68,1.12,2.14-1.59,4-.36,6.07,2.28-.08,1.19-2.91,3-3.45,1.6,2-1.72,4.17,0,6.22,1.71,0,1.3-2.31,3.25-2.51-1.19,3.11-2.46,6.16-.75,9.31Z"/>
    <path class="cls-2" d="M14.26,41.12l-2.35.05c-1.52-2.54-3.23,1.66-4.92-.66,1.12-1.69,4.39-1.42,5.14-4.4-1.55-.8-3.36,1.14-5-.29,1.5-1.58,4.53-.62,5.4-3.15-1.14-1.32-2.88,1.07-4.08-.84,1.92-1.15,5.17-1,5.2-4.09,0-1-1.7-.34-2.58-.6-.33-.21-.44-.42-.33-.62s.22-.31.34-.31c1.58-1,3.9-1,4.77-3.42C15.72,26,17.82,28,19.39,30.46c-2.31.38-2.52-2.08-4-2.23-1.27,2.34.24,3.69,1.73,5.05.2.89,0,1.41-1,1-1.08-.61-2.53-1.29-1.82.9.47,1.42,1.92,2.52,2.93,3.76C17.75,41.7,10.82,34.55,14.26,41.12Z"/>
    <path class="cls-2" d="M14.06,42.36c.06-.43.11-.85.16-1.27.76.75,2.72.83,1.92,2.39C15.83,44.09,14.5,43.3,14.06,42.36Z"/>
    <path class="cls-3" d="M404.19,39.34a8.15,8.15,0,0,1-5.09.74C400.66,38.9,402.41,39,404.19,39.34Z"/>
    <path class="cls-2" d="M280,52.17c27.14-18.77,55.61-24.52,86.26-8.83,1.46.75,2.78,1.77,4.16,2.66a153.27,153.27,0,0,0-42.13,23.1c-6.42,4.89-6.5,4.73-13.17.18-9.78-6.67-20-12.27-31.92-14.24-1.53-.25-3.36-.5-4.27-2.21l1.08-.66Z"/>
    <path class="cls-1" d="M280,52.17l.41.26-.4-.26Z"/>
</svg>