<svg id="Layer_1" data-name="Layer 1"
    xmlns="http://www.w3.org/2000/svg" viewBox="0 0 1526.56 225.47">
    <defs>
        <style>.cls-1{fill:#020202;}.cls-2{fill:#e91e24;}</style>
    </defs>
    <title>logo</title>
    <path class="cls-1" d="M1401.48,6.67c57.51.13,103,46.32,102.83,104.38-.17,55.32-47.17,101.33-103.22,101.07-57.46-.26-103.07-46.78-102.69-104.75C1298.75,52.32,1345.61,6.55,1401.48,6.67Zm-69.3,162.05c1.44,1.78,1.89,2.45,2.44,3,21.91,22.61,48.83,32.29,79.71,28,46.08-6.45,79-45.48,78.67-91.36-.15-19.3-15.32-36.79-34-39.2-20.6-2.66-39.44,9.66-44.84,29.11-2.25,8.08-1.22,16.47-3.16,24.64-7.54,31.82-40.7,53.3-72.69,46.69C1336.69,169.26,1335.05,169.12,1332.18,168.72Zm21.48-42.7c1.33,0,2.67.11,4,0,8.4-.82,14.54-5.6,16.17-12.53,1.26-5.33.17-7.17-5.08-8.52-10.89-2.82-21.79-5.59-32.68-8.44-6.52-1.7-9.34.32-9.94,7.17a15.33,15.33,0,0,0,3.44,11.6C1335.82,122.83,1344.12,125.86,1353.66,126Z"/>
    <path class="cls-1" d="M141.07,6.39c56.78.08,103,46.5,102.89,103.45-.05,56.38-46.53,102.48-103.24,102.38A103,103,0,0,1,37.82,109.45C37.76,52.77,84.31,6.3,141.07,6.39ZM174.3,86.88c-.37-.63-1.06-1.07-1.57-.57-.68.67.26,1,.65,1.41,7.6,13.18,9,26.7,1.44,40.31-5.31,9.56-13.58,16.4-22.77,22-21.3,13-44.79,17-69.33,16.44-3-.06-6-.73-9.78.27,23.09,24.68,50.46,35.6,83.25,29.84,25.83-4.55,46.56-17.49,59.35-41.21,9.41-17.43,7-33.38-7.13-47.27C198.66,98.45,186.81,92.12,174.3,86.88Zm-64,46.59c-1-1.57-1.45-2.2-1.86-2.85-10.29-16.48-8-35.36,5.7-49.25C132,63.21,154.48,56,179,53c9.53-1.16,19.09-.5,28.69-.8a4.2,4.2,0,0,0-.27-1.23A17.2,17.2,0,0,0,205.82,49C183.81,26.43,157.13,17,126,22.2,99.81,26.63,78.87,39.72,66,63.85c-8.43,15.84-6.79,31.45,4.43,44C81.14,119.72,95.15,126.46,110.27,133.47Zm55.06-23.93a24.18,24.18,0,0,0-24.46-24.71,24.68,24.68,0,0,0-24.71,24.69c0,13.25,11,24.35,24.43,24.5A24.34,24.34,0,0,0,165.33,109.54Z"/>
    <path class="cls-1" d="M323.93,99.35c0-21.32.11-42.65-.09-64,0-3.73.89-4.65,4.63-4.64q62.71.23,125.45,0c3.48,0,4.42.85,4.38,4.36-.2,16.66-.12,33.32-.07,50,0,3.37.13,7.1-1.64,9.73-4.27,6.37-3.45,13.3-3.44,20.19,0,11.74-1.51,23.18-6,34.15-7.12,17.59-20.49,27.31-38.75,30.77-18.71,3.55-37.09.81-55.35-3.38-8.41-1.94-16.66-4.44-24.93-6.92-3.35-1-4.35-2.33-4.32-5.8C324,142.34,323.93,120.85,323.93,99.35ZM387.56,101c-9.66,0-19.33.09-29-.06-2.75,0-3.68.63-3.65,3.53.15,14.17.12,28.33,0,42.5,0,2.39.51,3.65,3.1,4,11.75,1.4,23.52,2.91,35.34,1.16,12.16-1.79,24.3-7.55,27-25,1.28-8.11-.59-15.92-.84-23.87-.07-2.52-1.83-2.26-3.52-2.26Q401.81,101.05,387.56,101Zm3.35-25c10.82,0,21.65-.13,32.46.08,3.14.06,4-.86,3.85-3.9a85.53,85.53,0,0,1,0-12c.26-3.42-.68-4.48-4.29-4.44-17.31.21-34.62,0-51.93.14-5.24,0-12.46-2.34-15.19,1s-.54,10.17-.91,15.45c-.23,3.37,1.22,3.74,4,3.7C369.61,75.92,380.26,76,390.91,76Z"/>
    <path class="cls-1" d="M673,55.51q26,0,52,0c4.87,0,9.6.59,13.94,3.1,7,4.08,11,10,11.06,18.24,0,6.5-.35,13,.06,19.49,1,15.42-11.71,23.55-23.3,23.64-10.66.08-21.32.17-32-.06-3.73-.09-4.4,1-3.91,4.55,1.61,11.44,9.8,19.46,22.25,21.66a99,99,0,0,0,28.35.45c7-.77,7-.86,7.46,6.26.12,1.66.16,3.33.25,5,.39,7.77.42,8-7.06,8.85-16.27,1.84-32.48,2.29-48.62-1.6-20-4.8-31.43-17.66-33.63-38.16-.24-2.24.37-5.93-1.27-6.4-3.38-1-7.24-.69-10.85-.37-2.07.19-1.14,2.46-1.15,3.76-.07,13.16-.21,26.33.07,39.48.09,4.07-1.23,4.94-5,4.81-7.82-.28-15.65-.17-23.48,0-2.34,0-3.11-.56-3.11-3q.12-53.22,0-106.44c0-3.37,1.67-3.24,4-3.24C637,55.52,655,55.5,673,55.51Zm9.92,20.62c-10.82,0-21.65.09-32.47-.07-2.91,0-4.24.47-4,3.76a81.24,81.24,0,0,1,0,12.48c-.29,3.55,1.22,4,4.28,4q32-.17,63.94,0c2.94,0,4.22-.54,4-3.81a81.11,81.11,0,0,1,0-12.47c.3-3.56-1.22-4-4.26-4C703.9,76.22,693.41,76.13,682.92,76.13Z"/>
    <path class="cls-1" d="M1037,158.47V83.59c0-8.17.12-16.34-.06-24.5-.06-2.87.87-3.72,3.68-3.65,6.66.18,13.34.32,20,0,3.87-.21,4.62,1.05,4.61,4.72-.15,34.66-.09,69.32-.09,104,0,7.45.46,7.9,7.52,5.75,2.47-.76,3.62-.85,3.59,2.25a48.21,48.21,0,0,0,.74,9.45c.78,4-1.11,5-4.61,5.62-24.18,4.25-43.69-4.57-60.4-21.31-18.12-18.14-32.25-39.31-46.07-60.72-1-1.51-2-3-3-4.65-1.42,1.33-.72,2.89-.72,4.23-.06,19.33-.15,38.66,0,58,0,3.93-.47,5.91-5.07,6.08-7.81.29-15.6,1.23-23.36,2.12-4,.47-2.78-2.36-2.78-4.15-.07-21.5-.05-43-.05-64.49,0-8.5-.1-17,.06-25.49.06-2.72-.67-4-3.52-3.94a40.53,40.53,0,0,1-4.94-.71c-8.56-1-11.81-5-11.44-13.7.09-2,.46-3,2.75-3,16.33.07,32.66.1,49,0,2.72,0,3.28,2,4.17,3.6a624.46,624.46,0,0,0,55.47,83.4c4.4,5.59,9,11.05,13.46,16.56Z"/>
    <path class="cls-1" d="M1128.76,139.06h89.51c-2,9.16-4,17.89-5.68,26.67-.58,3-2.6,2.39-4.47,2.39-27.65,0-55.3.06-82.94-.06-3.5,0-5.75.4-5.36,4.61.26,2.82-1.33,3.49-4,3.43-7.32-.18-14.66-.26-22,0-3.77.14-4.74-.82-4.42-4.72,1.79-22.41,10.3-42.43,21.44-61.53,11-18.9,23.85-36.43,39.84-51.5.55-.53,1.43-.86,1.27-2.5h-10.15c-13.83,0-27.66-.24-41.47.13-4.64.12-5.62-1.37-5.33-5.58A110.93,110.93,0,0,0,1095,35c-.27-3.85,1.41-4.19,4.6-4.18,26.65.11,53.3.06,80,.07,11.32,0,22.65.12,34-.07,3.32-.06,4.74.55,4.53,4.26-.33,6-.08,12-.08,18,0,1.48.13,2.65-2,3.26-18.63,5.4-34.06,16.31-48.23,29C1151.23,100.14,1139,118.22,1128.76,139.06Z"/>
    <path class="cls-1" d="M542.58,168.12H499.09c-15.08,0-24-8.82-24-23.68,0-27.83.14-55.66-.13-83.48-.05-4.83,1.52-5.57,5.82-5.54,28.16.17,56.32,0,84.48.15,3.6,0,5.82-.47,5-4.7-1-5.19.8-7.31,6.38-7.27A108.44,108.44,0,0,0,594,41.86c3.77-.58,4.35.83,4.26,4.19-.23,8.5-.27,17,0,25.49.12,3.63-.67,4.72-4.54,4.69-27.49-.2-55,0-82.48-.21-4.25,0-5.47,1.11-5.08,5.22.45,4.77-1.53,11.21.9,14,2.8,3.18,9.37,1,14.29,1,24.67.11,49.33.22,74-.09,4.94-.07,5.42,1.66,4.95,5.69-1.2,10.37-10.54,17.93-22.86,18-22,.07-44,.12-66-.08-4,0-5.61.75-5.31,5.08a132.57,132.57,0,0,1,0,17.49c-.26,4.12.91,5.3,5.13,5.27,27-.2,54-.11,81-.11,6.22,0,6.29,0,4.22,6.07-1.65,4.82-1.2,11.6-5.19,14-3.7,2.22-9.72.61-14.71.62C565.24,168.14,553.91,168.12,542.58,168.12Z"/>
    <path class="cls-1" d="M830.57,125.64c-13.49,0-27,0-40.49,0-15.35,0-24.08-8.81-24.09-24.1,0-7.16.52-14.37-.1-21.48-1.41-16,11.59-24.75,24.42-24.57,7.16.1,14.33-.15,21.49.09,3.51.12,5.48-.56,4.77-4.54-.77-4.34.8-6.09,5.48-6.18A188.76,188.76,0,0,0,841.43,43c2.52-.31,3.48.17,3.57,3,.3,9.51.43,9.43,10,9.54,6.82.08,13.65-.48,20.46.39,12.34,1.57,19.68,9.81,19.71,22.19q0,12.24,0,24.49c0,13.74-8.84,22.85-22.62,23C858.57,125.76,844.57,125.64,830.57,125.64Zm0-20.62c10,0,20-.1,29.94.06,2.83,0,3.72-.71,3.64-3.58-.19-7.32-.16-14.64,0-22,.06-2.62-.75-3.36-3.38-3.34q-29.92.15-59.87,0c-2.77,0-3.8.68-3.72,3.59.19,7.15.23,14.31,0,21.45-.1,3.19,1,3.91,4,3.85C811,104.92,820.79,105,830.6,105Z"/>
    <path class="cls-1" d="M894.15,143,887,165.72c-.57,1.82-1.7,2.45-3.69,2.45q-51.21-.09-102.43,0c-2.51,0-3.42-1-4.09-3.22-1.77-6-3.59-12.1-5.86-18-1.39-3.62-.31-4.06,3-4.06,34.31.1,68.62.06,102.93.06Z"/>
    <path class="cls-2" d="M1332.18,168.72c2.87.4,4.51.54,6.12.87,32,6.61,65.15-14.87,72.69-46.69,1.94-8.17.91-16.56,3.16-24.64,5.4-19.45,24.24-31.77,44.84-29.11,18.69,2.41,33.86,19.9,34,39.2.34,45.88-32.59,84.91-78.67,91.36-30.88,4.32-57.8-5.36-79.71-28C1334.07,171.17,1333.62,170.5,1332.18,168.72ZM1450,126.1c1.66-.25,4.65-.5,7.56-1.15,10-2.24,17.76-9.66,19.09-18.14,1.23-7.8-3-11.79-10.47-9.86-10.43,2.7-20.9,5.29-31.34,8-5.8,1.5-6.64,2.86-5.55,8.68a12.66,12.66,0,0,0,3.83,6.85C1437.4,124.63,1442.83,125.92,1450,126.1Z"/>
    <path class="cls-2" d="M1353.66,126c-9.54-.16-17.84-3.19-24.11-10.74a15.33,15.33,0,0,1-3.44-11.6c.6-6.85,3.42-8.87,9.94-7.17,10.89,2.85,21.79,5.62,32.68,8.44,5.25,1.35,6.34,3.19,5.08,8.52-1.63,6.93-7.77,11.71-16.17,12.53C1356.33,126.13,1355,126,1353.66,126Z"/>
    <path class="cls-2" d="M174.3,86.88c12.51,5.24,24.36,11.57,34.11,21.2,14.08,13.89,16.54,29.84,7.13,47.27C202.75,179.07,182,192,156.19,196.56,123.4,202.32,96,191.4,72.94,166.72c3.73-1,6.79-.33,9.78-.27,24.54.54,48-3.49,69.33-16.44,9.19-5.58,17.46-12.42,22.77-22,7.56-13.61,6.16-27.13-1.44-40.31Z"/>
    <path class="cls-2" d="M110.27,133.47c-15.12-7-29.13-13.75-39.81-25.66C59.24,95.3,57.6,79.69,66,63.85,78.87,39.72,99.81,26.63,126,22.2,157.13,17,183.81,26.43,205.82,49A17.2,17.2,0,0,1,207.38,51a4.2,4.2,0,0,1,.27,1.23c-9.6.3-19.16-.36-28.69.8-24.48,3-47,10.22-64.85,28.38-13.67,13.89-16,32.77-5.7,49.25C108.82,131.27,109.25,131.9,110.27,133.47Z"/>
    <path class="cls-2" d="M165.33,109.54A24.34,24.34,0,0,1,140.59,134c-13.41-.15-24.48-11.25-24.43-24.5a24.68,24.68,0,0,1,24.71-24.69A24.18,24.18,0,0,1,165.33,109.54Z"/>
    <path class="cls-2" d="M173.38,87.72c-.39-.41-1.33-.74-.65-1.41.51-.5,1.2-.06,1.57.57Z"/>
    <path class="cls-1" d="M1450,126.1c-7.13-.18-12.56-1.47-16.88-5.65a12.66,12.66,0,0,1-3.83-6.85c-1.09-5.82-.25-7.18,5.55-8.68,10.44-2.68,20.91-5.27,31.34-8,7.42-1.93,11.7,2.06,10.47,9.86-1.33,8.48-9.06,15.9-19.09,18.14C1454.61,125.6,1451.62,125.85,1450,126.1Z"/>
</svg>